<?xml version="1.0" standalone="no"?>
<!DOCTYPE svg PUBLIC "-//W3C//DTD SVG 1.1//EN" "http://www.w3.org/Graphics/SVG/1.1/DTD/svg11.dtd" >
<svg>
<metadata>
Created by FontForge 20110222 at Sun Mar 23 03:17:28 2014
 By Orthosie Webhosting
Copyright 2010 URW++ Design &#38; Development Hamburg
</metadata>
<defs>
<font id="NeuzeitGroteskLight" horiz-adv-x="500" >
  <font-face 
    font-family="NeuzeitGroteskLight"
    font-weight="300"
    font-stretch="normal"
    units-per-em="1000"
    panose-1="0 0 4 0 0 0 0 0 0 0"
    ascent="667"
    descent="-333"
    x-height="460"
    cap-height="667"
    bbox="-187 -250 942 857"
    underline-thickness="38"
    underline-position="-58"
    unicode-range="U+0020-FB04"
  />
<missing-glyph horiz-adv-x="300" 
 />
    <glyph glyph-name="ff" unicode="ff" horiz-adv-x="519" 
d="M140 413v-413h-50v413h-69v47h69v81q0 61 29 93q32 34 81 34q10 0 18 -1v-42q-41 -6 -53 -15q-25 -16 -25 -69v-81h78v-47h-78zM414 413v-413h-50v413h-69v47h69v81q0 61 29 93q32 34 81 34q10 0 18 -1v-42q-41 -6 -53 -15q-25 -16 -25 -69v-81h78v-47h-78z" />
    <glyph glyph-name="fi" unicode="fi" horiz-adv-x="491" 
d="M140 413v-413h-50v413h-69v47h69v81q0 61 29 93q32 34 81 34q10 0 18 -1v-42q-41 -6 -53 -15q-25 -16 -25 -69v-81h78v-47h-78zM407 460v-460h-50v460h50zM383 626q16 0 26.5 -11t10.5 -27q0 -15 -11 -26t-26 -11q-16 0 -27 11t-11 26q0 16 11 27t27 11z" />
    <glyph glyph-name="fl" unicode="fl" horiz-adv-x="491" 
d="M140 413v-413h-50v413h-69v47h69v81q0 61 29 93q32 34 81 34q10 0 18 -1v-42q-41 -6 -53 -15q-25 -16 -25 -69v-81h78v-47h-78zM407 0h-50v667h50v-667z" />
    <glyph glyph-name="ffi" unicode="ffi" horiz-adv-x="763" 
d="M139 413v-413h-50v413h-69v47h69v81q0 61 29 93q32 34 81 34q10 0 18 -1v-42q-41 -6 -53 -15q-25 -16 -25 -69v-81h78v-47h-78zM413 413v-413h-50v413h-69v47h69v81q0 61 29 93q32 34 81 34q10 0 18 -1v-42q-41 -6 -53 -15q-25 -16 -25 -69v-81h78v-47h-78zM680 460v-460
h-50v460h50zM656 626q16 0 26.5 -11t10.5 -27q0 -15 -11 -26t-26 -11q-16 0 -27 11t-11 26q0 16 11 27t27 11z" />
    <glyph glyph-name="ffl" unicode="ffl" horiz-adv-x="765" 
d="M140 413v-413h-50v413h-69v47h69v81q0 61 29 93q32 34 81 34q10 0 18 -1v-42q-41 -6 -53 -15q-25 -16 -25 -69v-81h78v-47h-78zM414 413v-413h-50v413h-69v47h69v81q0 61 29 93q32 34 81 34q10 0 18 -1v-42q-41 -6 -53 -15q-25 -16 -25 -69v-81h78v-47h-78zM681 0h-50
v667h50v-667z" />
    <glyph glyph-name=".notdef" horiz-adv-x="300" 
 />
    <glyph glyph-name=".null" horiz-adv-x="0" 
 />
    <glyph glyph-name="nonmarkingreturn" horiz-adv-x="333" 
 />
    <glyph glyph-name="space" unicode=" " horiz-adv-x="300" 
 />
    <glyph glyph-name="exclam" unicode="!" horiz-adv-x="242" 
d="M147 667v-530h-52v530h52zM121 77q18 0 29.5 -12t11.5 -30q0 -17 -12 -28.5t-29 -11.5t-29 12t-12 29q0 18 12 29.5t29 11.5z" />
    <glyph glyph-name="quotedbl" unicode="&#x22;" horiz-adv-x="296" 
d="M105 400h-42l-7 267h56zM233 400h-42l-7 267h57z" />
    <glyph glyph-name="numbersign" unicode="#" 
d="M435 286v-41h-106l-30 -218h-42l30 218h-89l-30 -218h-43l30 218h-112v41h117l14 97h-108v42h114l28 202h44l-28 -202h88l29 202h41l-28 -202h102v-42h-108l-13 -97h100zM309 385h-93l-15 -102h94z" />
    <glyph glyph-name="dollar" unicode="$" 
d="M260 597v-241q71 -28 100 -47q34 -23 54 -60.5t20 -79.5q0 -70 -46.5 -115.5t-127.5 -53.5v-96h-38v96q-58 4 -99 32q-67 46 -67 119q0 14 1 22h45l1 -9v-12q5 -41 40 -72t79 -32v269q-67 25 -96 45t-47 54t-18 71q0 41 20 77t54 57q34 19 87 28v72h38v-72
q73 -8 117 -53.5t43 -109.5h-49q-9 95 -111 111zM222 372v225q-54 -7 -82.5 -35t-28.5 -73q0 -83 111 -117zM260 300v-252q43 3 71 21q52 34 52 97q0 88 -123 134z" />
    <glyph glyph-name="percent" unicode="%" horiz-adv-x="576" 
d="M238 549v-110q0 -45 -14 -67q-23 -36 -80 -36q-49 0 -74 31q-13 15 -15.5 25.5t-2.5 47.5v109q0 66 22 89q26 28 72 28q43 0 69 -26q16 -15 19.5 -29.5t3.5 -61.5zM85 548v-93q0 -33 1.5 -43t8.5 -19q16 -23 50 -23q36 0 52 26q8 15 8 54v109q0 73 -58 73q-34 0 -50 -19
q-8 -10 -10 -20.5t-2 -44.5zM524 213v-110q0 -45 -14 -67q-23 -36 -80 -36q-49 0 -74 31q-13 15 -15.5 25.5t-2.5 47.5v109q0 66 22 89q26 28 72 28q43 0 69 -26q16 -15 19.5 -29.5t3.5 -61.5zM371 212v-93q0 -33 1.5 -43t8.5 -19q16 -23 50 -23q36 0 52 26q8 15 8 54v109
q0 73 -58 73q-34 0 -50 -19q-8 -10 -10 -20.5t-2 -44.5zM536 653l-467 -659l-29 21l466 658z" />
    <glyph glyph-name="ampersand" unicode="&#x26;" horiz-adv-x="576" 
d="M447 137l102 -137h-52l-75 105q-65 -69 -103.5 -92t-86.5 -23q-77 0 -131 55t-54 133q0 61 35.5 104.5t130.5 101.5q-40 54 -51 76.5t-11 51.5q0 48 35.5 81.5t86.5 33.5q49 0 83 -32.5t34 -79.5q0 -37 -19 -65.5t-64 -59.5l-27 -18l142 -197q35 38 93 97l34 -33
q-52 -50 -102 -102zM253 409q53 34 69.5 54t16.5 51q0 30 -18 47.5t-49 17.5q-32 0 -51 -18t-19 -48q0 -37 33 -79q2 -3 18 -25zM392 143l-152 204q-14 -10 -20 -14q-75 -49 -97 -80q-26 -40 -26 -80q0 -56 38.5 -95.5t92.5 -39.5q49 0 89 32q20 16 75 73z" />
    <glyph glyph-name="quotesingle" unicode="'" horiz-adv-x="169" 
d="M106 400h-43l-7 267h58z" />
    <glyph glyph-name="parenleft" unicode="(" horiz-adv-x="287" 
d="M254 -201l-32 -35q-175 201 -175 452q0 265 175 466l32 -36q-158 -190 -158 -425q0 -114 42 -226t116 -196z" />
    <glyph glyph-name="parenright" unicode=")" horiz-adv-x="287" 
d="M33 647l31 35q176 -201 176 -452q0 -266 -176 -466l-31 36q158 190 158 424q0 114 -42 226t-116 197z" />
    <glyph glyph-name="asterisk" unicode="*" horiz-adv-x="427" 
d="M212 481l-77 -103l-29 22l77 102l-123 39l11 36l123 -36v124h37v-124l125 36l11 -36l-125 -39l74 -102l-27 -22z" />
    <glyph glyph-name="plus" unicode="+" 
d="M27 351h206v190h33v-190h206v-32h-206v-191h-33v191h-206v32z" />
    <glyph glyph-name="comma" unicode="," horiz-adv-x="215" 
d="M149 63l-107 -236l-39 16l98 240z" />
    <glyph glyph-name="hyphen" unicode="-" horiz-adv-x="200" 
d="M200 265v-47h-200v47h200z" />
    <glyph glyph-name="period" unicode="." horiz-adv-x="215" 
d="M108 77q18 0 29.5 -12t11.5 -30q0 -17 -12 -28.5t-29 -11.5t-29 12t-12 29q0 18 12 29.5t29 11.5z" />
    <glyph glyph-name="slash" unicode="/" horiz-adv-x="396" 
d="M352 667l-337 -887h-53l337 887h53z" />
    <glyph glyph-name="zero" unicode="0" 
d="M442 468v-268q0 -105 -43 -152q-53 -58 -150 -58q-98 0 -151 59q-24 27 -32 60.5t-8 108.5v223q0 67 7.5 100.5t29.5 61.5q48 62 153 62q92 0 146 -49q27 -26 37.5 -58t10.5 -90zM111 439v-221q0 -66 5 -89t25 -45q41 -43 110 -43q75 0 113 49q25 35 25 110v266
q0 75 -41 113q-40 35 -98 35q-78 0 -115 -56q-14 -21 -19 -45t-5 -74z" />
    <glyph glyph-name="one" unicode="1" 
d="M271 571l-161 -115v54l214 157v-667h-53v571z" />
    <glyph glyph-name="two" unicode="2" 
d="M150 53h259v-53h-358l232 320q54 75 73 113.5t19 71.5q0 49 -35.5 80.5t-91.5 31.5q-80 0 -108 -60q-12 -26 -13 -72h-54q12 181 179 181q78 0 127.5 -44.5t49.5 -114.5q0 -41 -16 -78.5t-56 -92.5z" />
    <glyph glyph-name="three" unicode="3" 
d="M334 600h-254v53h364l-203 -250q8 1 19 1q79 0 134.5 -58.5t55.5 -141.5q0 -93 -62.5 -153.5t-157.5 -60.5q-74 0 -127 37.5t-73 104.5l50 17q39 -108 145 -108q70 0 119 46t49 112q0 69 -47 111.5t-124 42.5q-45 0 -90 -27l-11 13z" />
    <glyph glyph-name="four" unicode="4" 
d="M319 157h-278v39l331 482v-468h87v-53h-87v-157h-53v157zM319 210v314l-217 -314h217z" />
    <glyph glyph-name="five" unicode="5" 
d="M140 600v-193q53 20 104 20q92 0 151.5 -61t59.5 -155q0 -97 -63 -159t-162 -62q-80 0 -137 47q-22 17 -34 34t-25 48l54 19q18 -38 34 -55q40 -42 109 -42q71 0 119 49t48 122t-47 118.5t-121 45.5q-43 0 -74.5 -14.5t-68.5 -52.5v344h262v-53h-209z" />
    <glyph glyph-name="six" unicode="6" 
d="M348 653l-171 -269q40 17 80 17q87 0 145.5 -57.5t58.5 -142.5q0 -88 -62 -150t-150 -62t-149 62.5t-61 153.5q0 55 39 118l204 330h66zM252 353q-65 0 -110.5 -43.5t-45.5 -107.5q0 -67 45 -114.5t109 -47.5t109.5 46.5t45.5 111.5t-44.5 110t-108.5 45z" />
    <glyph glyph-name="seven" unicode="7" 
d="M368 600h-277v53h358l-266 -653h-61z" />
    <glyph glyph-name="eight" unicode="8" 
d="M311 368q56 -14 87 -44q55 -53 55 -136q0 -87 -57.5 -143t-146.5 -56t-145.5 54t-56.5 139q0 87 56 141q31 30 87 45q-51 17 -76 43q-38 43 -38 100q0 67 50 110.5t126 43.5q75 0 124 -43.5t49 -109.5q0 -63 -42 -105q-23 -23 -72 -39zM251 616q-53 0 -86.5 -29
t-33.5 -75q0 -47 34.5 -79.5t84.5 -32.5q47 0 83.5 33.5t36.5 76.5t-35 74.5t-84 31.5zM252 337q-61 0 -104.5 -43.5t-43.5 -104.5t43 -105t103 -44t103 44t43 105t-42.5 104.5t-101.5 43.5z" />
    <glyph glyph-name="nine" unicode="9" 
d="M155 0l168 269q-43 -17 -81 -17q-86 0 -144.5 58.5t-58.5 144.5q0 88 62.5 149t151.5 61q88 0 147.5 -60t59.5 -148q0 -62 -33 -116l-205 -341h-67zM252 614q-66 0 -111.5 -45.5t-45.5 -111.5q0 -65 44.5 -110.5t108.5 -45.5q67 0 111 44.5t44 110.5q0 67 -43.5 112.5
t-107.5 45.5z" />
    <glyph glyph-name="colon" unicode=":" horiz-adv-x="215" 
d="M108 77q18 0 29.5 -12t11.5 -30q0 -17 -12 -28.5t-29 -11.5t-29 12t-12 29q0 18 12 29.5t29 11.5zM108 344q18 0 29.5 -12t11.5 -30q0 -17 -12 -28.5t-29 -11.5t-29 12t-12 29q0 18 12 29.5t29 11.5z" />
    <glyph glyph-name="semicolon" unicode=";" horiz-adv-x="215" 
d="M149 63l-107 -236l-39 16l98 240zM111 344q18 0 29.5 -12t11.5 -30q0 -17 -12 -28.5t-29 -11.5t-29 12t-12 29q0 18 12 29.5t29 11.5z" />
    <glyph glyph-name="less" unicode="&#x3c;" 
d="M466 555v-54l-375 -167l375 -167v-53l-433 197v47z" />
    <glyph glyph-name="equal" unicode="=" 
d="M27 419h445v-32h-445v32zM27 282h445v-32h-445v32z" />
    <glyph glyph-name="greater" unicode="&#x3e;" 
d="M34 114v53l375 167l-375 167v54l433 -197v-48z" />
    <glyph glyph-name="question" unicode="?" horiz-adv-x="415" 
d="M196 138h-46v37v32q0 61 15 90.5t66 69.5q47 36 64 64t17 69q0 54 -32.5 89.5t-82.5 35.5q-46 0 -78 -29.5t-32 -72.5q0 -9 1 -17h-50q0 76 42.5 121t114.5 45t120.5 -48.5t48.5 -121.5q0 -50 -24 -90t-81 -83q-41 -31 -52 -55t-11 -83v-53zM176 77q18 0 29.5 -12
t11.5 -30q0 -17 -12 -28.5t-29 -11.5t-29 12t-12 29q0 18 12 29.5t29 11.5z" />
    <glyph glyph-name="at" unicode="@" horiz-adv-x="781" 
d="M666 180h40q-32 -85 -116.5 -139t-184.5 -54q-141 0 -239.5 99.5t-98.5 242.5q0 142 98.5 242.5t238.5 100.5q131 0 220.5 -82t89.5 -201q0 -103 -63 -178q-33 -38 -76 -60.5t-84 -22.5q-30 0 -50.5 14t-25.5 38q-53 -52 -114 -52q-46 0 -77 36.5t-31 92.5
q0 107 64.5 190t149.5 83q73 0 92 -55l14 42h77l-91 -265q-19 -55 -19 -74q0 -20 22 -20q30 0 66 23q49 32 77.5 87.5t28.5 119.5q0 100 -78 172q-81 73 -191 73q-124 0 -211 -88.5t-87 -214.5q0 -127 87 -215.5t211 -88.5q83 0 150.5 40t110.5 114zM424 262l54 158
q3 8 3 19q0 29 -15.5 47.5t-39.5 18.5q-51 0 -94 -74q-29 -50 -48.5 -112.5t-19.5 -108.5q0 -25 14.5 -40.5t38.5 -15.5q32 0 61 29t46 79z" />
    <glyph glyph-name="A" unicode="A" horiz-adv-x="592" 
d="M457 175h-322l-71 -175h-57l262 667h62l254 -667h-63zM437 227l-139 364l-142 -364h281z" />
    <glyph glyph-name="B" unicode="B" horiz-adv-x="540" 
d="M90 667h175q94 0 148 -47.5t54 -128.5q0 -65 -36 -106q-21 -25 -68 -45q49 -9 75 -29q59 -45 59 -131q0 -99 -74 -146q-31 -19 -68.5 -26.5t-105.5 -7.5h-159v667zM147 616v-257h101q80 0 118 28q48 37 48 105q0 37 -16 65.5t-43 41.5q-35 17 -128 17h-80zM147 308v-257
h93q62 0 90.5 4.5t54.5 18.5q56 32 56 106q0 66 -40 97t-126 31h-128z" />
    <glyph glyph-name="C" unicode="C" horiz-adv-x="628" 
d="M559 144l42 -37q-37 -51 -83 -78q-68 -41 -157 -41q-140 0 -226 97q-88 101 -88 248q0 149 89 247.5t224 98.5q146 0 241 -119l-42 -34q-36 40 -65 60q-60 41 -134 41q-110 0 -182 -84t-72 -211t73 -209.5t184 -82.5q59 0 106 24.5t90 79.5z" />
    <glyph glyph-name="D" unicode="D" horiz-adv-x="618" 
d="M90 0v667h171q142 0 226 -86.5t84 -233.5q0 -164 -89 -255.5t-248 -91.5h-144zM147 616v-565h31q101 0 149.5 10.5t87.5 41.5q98 74 98 244q0 131 -65.5 200t-189.5 69h-111z" />
    <glyph glyph-name="E" unicode="E" horiz-adv-x="478" 
d="M147 616v-253h278v-51h-278v-261h278v-51h-335v667h335v-51h-278z" />
    <glyph glyph-name="F" unicode="F" horiz-adv-x="451" 
d="M147 616v-253h274v-51h-274v-312h-57v667h331v-51h-274z" />
    <glyph glyph-name="G" unicode="G" horiz-adv-x="722" 
d="M365 354h310v-41q0 -91 -35 -160q-41 -78 -112.5 -121.5t-159.5 -43.5q-140 0 -230.5 97t-90.5 246q0 154 90 251t233 97q145 0 239 -118l-42 -35q-40 43 -58 55q-61 46 -141 46q-112 0 -187.5 -84.5t-75.5 -209.5q0 -124 74 -208.5t184 -84.5q61 0 120 31.5t94 82.5
q40 59 43 149h-255v51z" />
    <glyph glyph-name="H" unicode="H" horiz-adv-x="656" 
d="M147 306v-306h-57v667h57v-310h362v310h57v-667h-57v306h-362z" />
    <glyph glyph-name="I" unicode="I" horiz-adv-x="237" 
d="M147 667v-667h-57v667h57z" />
    <glyph glyph-name="J" unicode="J" horiz-adv-x="368" 
d="M291 667v-476q0 -126 -102 -171q-44 -20 -166 -20v48q25 -1 49 -1q78 0 117 36q25 22 35 57.5t10 103.5v372h-211v51h268z" />
    <glyph glyph-name="K" unicode="K" horiz-adv-x="527" 
d="M147 313v-313h-57v667h57v-316l296 316h70l-310 -335l310 -332h-79z" />
    <glyph glyph-name="L" unicode="L" horiz-adv-x="415" 
d="M147 57h241v-57h-298v667h57v-610z" />
    <glyph glyph-name="M" unicode="M" horiz-adv-x="818" 
d="M147 527v-527h-57v667h46l272 -550l275 550h45v-667h-57v526l-263 -526z" />
    <glyph glyph-name="N" unicode="N" horiz-adv-x="679" 
d="M147 555v-555h-57v667h47l395 -547v547h57v-667h-43z" />
    <glyph glyph-name="O" unicode="O" horiz-adv-x="731" 
d="M367 679q68 0 131.5 -31t110.5 -86q74 -87 74 -237q0 -167 -111 -259q-94 -78 -207 -78q-73 0 -141 34.5t-113 93.5q-64 84 -64 214q0 160 98 256q95 93 222 93zM366 627q-113 0 -187 -83t-74 -210q0 -128 73 -211t186 -83q114 0 192 86q31 36 50 91t19 112
q0 143 -80 222q-78 76 -179 76z" />
    <glyph glyph-name="P" unicode="P" horiz-adv-x="520" 
d="M147 268v-268h-57v667h161q117 0 177 -48q66 -54 66 -150q0 -104 -73 -160q-52 -41 -161 -41h-113zM147 319h102q59 0 92 12q44 13 70.5 51t26.5 86q0 50 -27.5 87t-74.5 50q-40 11 -106 11h-83v-297z" />
    <glyph glyph-name="Q" unicode="Q" horiz-adv-x="737" 
d="M698 27l-39 -38l-76 84q-48 -40 -86 -58q-65 -27 -128 -27q-66 0 -128.5 28t-110.5 78q-80 86 -80 237q0 161 96 255q95 93 223 93q65 0 127 -27.5t107 -76.5q85 -91 85 -241q0 -127 -70 -221zM532 203l48 -50q48 82 48 177q0 150 -89 230q-76 67 -170 67
q-59 0 -113.5 -27.5t-91.5 -76.5q-56 -75 -56 -189q0 -130 72.5 -212t187.5 -82q53 0 93.5 16.5t84.5 56.5l-50 56z" />
    <glyph glyph-name="R" unicode="R" horiz-adv-x="548" 
d="M147 288v-288h-57v667h171q98 0 155.5 -51t57.5 -137q0 -61 -30 -107.5t-84 -68.5q-39 -16 -113 -16q-13 0 -23 1l299 -288h-78zM147 332h96q84 0 128.5 37t44.5 107q0 140 -159 140h-110v-284z" />
    <glyph glyph-name="S" unicode="S" horiz-adv-x="474" 
d="M41 170h53q3 -47 19 -76q32 -55 112 -55q67 0 108 37.5t41 98.5q0 50 -32 79t-117 56q-61 20 -85 32t-45 31q-51 46 -51 123q0 81 52.5 132t135.5 51q84 0 134 -50t50 -134h-55q-1 51 -18 78q-34 55 -112 55q-56 0 -93 -36.5t-37 -92.5t37 -85q24 -20 122 -54
q95 -34 128 -71q41 -47 41 -114q0 -82 -55.5 -134.5t-143.5 -52.5q-98 0 -145 54q-44 49 -44 112v16z" />
    <glyph glyph-name="T" unicode="T" horiz-adv-x="434" 
d="M245 616v-616h-57v616h-175v51h407v-51h-175z" />
    <glyph glyph-name="U" unicode="U" horiz-adv-x="635" 
d="M134 667v-400q0 -73 11.5 -113t40.5 -66q23 -21 59.5 -34.5t69.5 -13.5q73 0 130 50q32 30 43 66t11 114v397h60v-400q0 -76 -12 -119.5t-44 -80.5q-68 -79 -185 -79q-120 0 -190 84q-30 36 -40.5 76t-10.5 119v400h57z" />
    <glyph glyph-name="V" unicode="V" horiz-adv-x="542" 
d="M269 94l205 573h61l-242 -667h-48l-238 667h61z" />
    <glyph glyph-name="W" unicode="W" horiz-adv-x="862" 
d="M623 110l175 557h58l-212 -667h-41l-170 569l-169 -569h-42l-215 667h60l176 -557l167 557h50z" />
    <glyph glyph-name="X" unicode="X" horiz-adv-x="537" 
d="M270 283l-191 -283h-72l230 333l-230 334h72l191 -286l193 286h68l-227 -334l227 -333h-68z" />
    <glyph glyph-name="Y" unicode="Y" horiz-adv-x="515" 
d="M288 293v-293h-57v293l-234 374h67l194 -314l193 314h67z" />
    <glyph glyph-name="Z" unicode="Z" horiz-adv-x="532" 
d="M112 51h369v-51h-468l412 616h-367v51h467z" />
    <glyph glyph-name="bracketleft" unicode="[" horiz-adv-x="287" 
d="M84 667h133v-37h-86v-813h86v-37h-133v887z" />
    <glyph glyph-name="backslash" unicode="\" horiz-adv-x="396" 
d="M43 667h53l337 -887h-53z" />
    <glyph glyph-name="bracketright" unicode="]" horiz-adv-x="287" 
d="M203 667v-887h-133v37h86v813h-86v37h133z" />
    <glyph glyph-name="asciicircum" unicode="^" 
d="M90 382h-53l182 286h62l182 -286h-54l-160 249z" />
    <glyph glyph-name="underscore" unicode="_" 
d="M0 -77h500v-38h-500v38z" />
    <glyph glyph-name="grave" unicode="`" 
d="M197 653l82 -128h-42l-110 128h70z" />
    <glyph glyph-name="a" unicode="a" horiz-adv-x="561" 
d="M428 375v85h50v-460h-50v102q-67 -110 -172 -110q-93 0 -153 67t-60 171t59.5 171t152.5 67q108 0 173 -93zM259 421q-80 0 -123 -59q-41 -57 -41 -135q0 -81 46 -134.5t115 -53.5q72 0 122.5 58t50.5 140t-47 133t-123 51z" />
    <glyph glyph-name="b" unicode="b" horiz-adv-x="557" 
d="M133 89v-89h-50v667h50v-298q68 99 169 99q95 0 153.5 -66.5t58.5 -173.5q0 -103 -59.5 -169.5t-151.5 -66.5q-102 0 -170 97zM300 421q-74 0 -121 -53t-47 -136q0 -88 45 -140.5t120 -52.5q74 0 119.5 51.5t45.5 135.5q0 86 -45.5 140.5t-116.5 54.5z" />
    <glyph glyph-name="c" unicode="c" horiz-adv-x="451" 
d="M393 96l31 -36q-69 -68 -164 -68q-96 0 -156.5 66.5t-60.5 171.5t62 171.5t160 66.5q94 0 159 -65l-31 -34q-56 52 -128 52q-76 0 -123 -52.5t-47 -136.5q0 -86 46 -139.5t120 -53.5q76 0 132 57z" />
    <glyph glyph-name="d" unicode="d" horiz-adv-x="557" 
d="M424 381v286h50v-667h-50v89q-71 -97 -169 -97q-93 0 -152.5 66t-59.5 170t59 172t150 68q52 0 98 -23q40 -20 74 -64zM262 421q-75 0 -121 -53.5t-46 -140.5q0 -83 45 -135.5t116 -52.5q73 0 121 54.5t48 137.5q0 86 -45 138t-118 52z" />
    <glyph glyph-name="e" unicode="e" horiz-adv-x="531" 
d="M493 209h-396q5 -57 32 -96q52 -74 139 -74q47 0 89.5 24.5t65.5 65.5l41 -22q-25 -52 -79 -83.5t-116 -31.5q-99 0 -162.5 66.5t-63.5 169.5q0 105 63.5 172.5t162.5 67.5q96 0 161 -65.5t65 -161.5q0 -4 -2 -32zM99 256h341q-4 52 -27 89q-52 76 -145 76
q-44 0 -82 -20.5t-60 -57.5q-21 -33 -27 -87z" />
    <glyph glyph-name="f" unicode="f" horiz-adv-x="245" 
d="M140 413v-413h-50v413h-69v47h69v81q0 61 29 93q32 34 81 34q10 0 18 -1v-42q-41 -6 -53 -15q-25 -16 -25 -69v-81h78v-47h-78z" />
    <glyph glyph-name="g" unicode="g" horiz-adv-x="560" 
d="M427 370v90h50v-482q0 -100 -58 -156.5t-161 -56.5q-126 0 -191 80l38 37q27 -29 44 -40q44 -28 112 -28q84 0 131 49q35 38 35 115v123q-31 -50 -59 -72q-50 -37 -115 -37q-89 0 -149.5 68t-60.5 169q0 55 19.5 105t53.5 82q52 52 140 52q54 0 94 -23t77 -75zM263 421
q-74 0 -121 -53t-47 -136t47 -138t118 -55q74 0 128 62q37 45 37 132q0 48 -8 76t-28 53q-51 59 -126 59z" />
    <glyph glyph-name="h" unicode="h" horiz-adv-x="497" 
d="M133 667v-278q63 79 145 79q68 0 106 -41q33 -34 33 -115v-312h-50v316q0 105 -95 105q-64 0 -106 -50q-33 -40 -33 -104v-267h-50v667h50z" />
    <glyph glyph-name="i" unicode="i" horiz-adv-x="217" 
d="M133 460v-460h-50v460h50zM109 626q16 0 26.5 -11t10.5 -27q0 -15 -11 -26t-26 -11q-16 0 -27 11t-11 26q0 16 11 27t27 11z" />
    <glyph glyph-name="j" unicode="j" horiz-adv-x="217" 
d="M133 460v-525q0 -80 -36 -122q-41 -47 -104 -47h-15v48h6q44 0 71.5 34t27.5 87v525h50zM109 626q16 0 26.5 -11t10.5 -27q0 -15 -11 -26t-26 -11q-16 0 -27 11t-11 26q0 16 11 27t27 11z" />
    <glyph glyph-name="k" unicode="k" horiz-adv-x="428" 
d="M133 213v-213h-50v667h50v-422l213 215h68l-229 -227l229 -233h-69z" />
    <glyph glyph-name="l" unicode="l" horiz-adv-x="217" 
d="M133 0h-50v667h50v-667z" />
    <glyph glyph-name="m" unicode="m" horiz-adv-x="761" 
d="M84 460h49v-67q54 75 132 75q53 0 87 -28q21 -17 37 -59q26 46 61 66.5t88 20.5q84 0 120 -51q14 -22 18.5 -46t4.5 -80v-291h-50v276q0 58 -2 71.5t-12 30.5q-24 43 -92 43q-57 0 -87.5 -37.5t-30.5 -107.5v-276h-50v276q0 85 -24 114q-27 31 -77 31q-57 0 -90 -39
t-33 -106v-276h-49v460z" />
    <glyph glyph-name="n" unicode="n" horiz-adv-x="497" 
d="M83 460h50v-69q63 77 143 77q63 0 102 -36q39 -35 39 -112v-320h-50v298q0 68 -19 92q-24 31 -78 31q-60 0 -100 -42q-37 -38 -37 -97v-282h-50v460z" />
    <glyph glyph-name="o" unicode="o" horiz-adv-x="537" 
d="M270 468q107 0 174 -81q51 -63 51 -157q0 -100 -66 -169t-162 -69q-50 0 -96 21t-78 59q-50 59 -50 160q0 111 67 174q65 62 160 62zM270 421q-79 0 -127 -53t-48 -139q0 -85 48 -137.5t126 -52.5q76 0 125 54t49 137q0 91 -52 142q-51 49 -121 49z" />
    <glyph glyph-name="p" unicode="p" horiz-adv-x="559" 
d="M83 460h50v-98q35 58 75 82t101 24q94 0 151 -63t57 -167q0 -110 -58 -178t-152 -68q-53 0 -100 24q-23 12 -38 25.5t-36 41.5v-303h-50v680zM303 421q-76 0 -123 -55t-47 -144q0 -82 46 -132.5t121 -50.5q74 0 119 53t45 141q0 89 -43 136q-47 52 -118 52z" />
    <glyph glyph-name="q" unicode="q" horiz-adv-x="556" 
d="M423 460h50v-680h-50v311q-67 -99 -171 -99q-49 0 -92.5 21t-72.5 59q-44 58 -44 162q0 107 58 170.5t156 63.5q105 0 166 -100v92zM259 421q-73 0 -118.5 -53.5t-45.5 -138.5t45 -137.5t117 -52.5q73 0 118 51.5t45 136.5q0 93 -47 145q-49 49 -114 49z" />
    <glyph glyph-name="r" unicode="r" horiz-adv-x="309" 
d="M83 460h50v-83q18 41 43 61q38 30 93 30h20v-49h-17q-58 -1 -94 -40q-45 -49 -45 -139v-240h-50v460z" />
    <glyph glyph-name="s" unicode="s" horiz-adv-x="407" 
d="M356 339h-52q0 40 -27 61.5t-76 21.5q-46 0 -73.5 -21t-27.5 -56q0 -36 22.5 -54t86.5 -34q84 -20 115 -53q36 -36 36 -87q0 -56 -43 -90.5t-114 -34.5q-150 0 -165 136h51q3 -43 33.5 -67t82.5 -24q46 0 74.5 22t28.5 58q0 35 -26 55.5t-89 35.5q-74 18 -106 47
q-39 34 -39 87q0 56 43 91t111 35q70 0 110.5 -34t43.5 -95z" />
    <glyph glyph-name="t" unicode="t" horiz-adv-x="247" 
d="M137 413v-341q0 -17 6.5 -22t26.5 -5h42v-45h-54q-38 0 -54.5 14.5t-16.5 48.5v350h-70v47h70v155h50v-155h75v-47h-75z" />
    <glyph glyph-name="u" unicode="u" horiz-adv-x="470" 
d="M352 460h50v-297q0 -45 -9.5 -72.5t-33.5 -49.5q-51 -49 -123 -49q-76 0 -122 47t-46 124v297h50v-297q0 -56 32.5 -90t84.5 -34q57 0 92 38q25 28 25 86v297z" />
    <glyph glyph-name="v" unicode="v" horiz-adv-x="419" 
d="M358 460h51l-175 -460h-54l-170 460h52l146 -392z" />
    <glyph glyph-name="w" unicode="w" horiz-adv-x="673" 
d="M612 460h51l-170 -460h-37l-119 384l-125 -384h-40l-162 460h51l131 -369l120 369h50l115 -369z" />
    <glyph glyph-name="x" unicode="x" horiz-adv-x="428" 
d="M213 189l-143 -189h-63l174 228l-174 232h63l143 -193l148 193h61l-178 -232l167 -228h-61z" />
    <glyph glyph-name="y" unicode="y" horiz-adv-x="422" 
d="M202 84l154 376h56l-283 -688h-55l101 245l-165 443h53z" />
    <glyph glyph-name="z" unicode="z" horiz-adv-x="391" 
d="M116 47h229v-47h-320l263 413h-233v47h321z" />
    <glyph glyph-name="braceleft" unicode="{" 
d="M261 539v-181q0 -47 -11.5 -71t-42.5 -39q30 -15 42 -40.5t12 -73.5v-173q0 -57 20 -78.5t74 -23.5v-44h-8q-80 0 -109.5 31.5t-29.5 118.5v166q0 45 -12.5 66.5t-45.5 31.5v39q32 10 45 31.5t13 64.5v184q0 73 31 103.5t106 30.5h10v-46q-53 -3 -73.5 -24t-20.5 -73z
" />
    <glyph glyph-name="bar" unicode="|" 
d="M223 667h53v-834h-53v834z" />
    <glyph glyph-name="braceright" unicode="}" 
d="M239 -42v181q0 46 12 70.5t42 39.5q-30 15 -42 40.5t-12 73.5v172q0 57 -20.5 79t-73.5 24v44h8q80 0 109.5 -32t29.5 -118v-166q0 -45 12.5 -66t45.5 -32v-39q-32 -10 -45 -31.5t-13 -64.5v-184q0 -73 -31 -103.5t-106 -30.5h-10v46q53 3 73.5 24t20.5 73z" />
    <glyph glyph-name="asciitilde" unicode="~" horiz-adv-x="667" 
d="M126 590l-31 24q52 104 131 104q40 0 117 -42q68 -36 99 -36q29 0 52 18.5t47 61.5l31 -24q-49 -104 -135 -104q-22 0 -44 8.5t-84 41.5q-53 28 -85 28q-28 0 -50.5 -18.5t-47.5 -61.5z" />
    <glyph glyph-name="uni00A0" unicode="&#xa0;" horiz-adv-x="300" 
 />
    <glyph glyph-name="exclamdown" unicode="&#xa1;" horiz-adv-x="242" 
d="M95 -203v530h52v-530h-52zM121 469q17 0 29 -12t12 -29q0 -18 -12 -29.5t-29 -11.5q-18 0 -29.5 12t-11.5 30q0 17 12 28.5t29 11.5z" />
    <glyph glyph-name="cent" unicode="&#xa2;" 
d="M292 523v-383q64 0 114 55l31 -35q-32 -32 -64 -47t-81 -20v-77h-38v77q-97 16 -147.5 75.5t-50.5 156.5q0 64 23.5 117.5t65.5 85.5q40 30 109 42v81h38v-81q41 -1 81.5 -21t63.5 -49l-31 -33q-56 53 -114 56zM254 140v383q-70 -10 -109 -60.5t-39 -130.5t39.5 -131.5
t108.5 -60.5z" />
    <glyph glyph-name="sterling" unicode="&#xa3;" 
d="M201 357h155v-43h-120q50 -51 50 -104q0 -56 -58 -117q14 -4 52 -22q52 -24 74 -24q24 0 38.5 15t15.5 43h54q-4 -40 -20 -62q-15 -22 -40.5 -36.5t-50.5 -14.5q-29 0 -102 34q-61 28 -84 28q-48 0 -50 -54h-54q-2 47 31 78t79 27q61 46 61 100q0 27 -13.5 51t-47.5 58
h-110v43h72q-32 40 -43.5 66.5t-11.5 63.5q0 76 54.5 127t134.5 51q92 0 143 -68q26 -34 27 -92h-52v13q0 38 -38 68t-87 30q-52 0 -89.5 -36.5t-37.5 -87.5q0 -57 68 -135z" />
    <glyph glyph-name="currency" unicode="&#xa4;" horiz-adv-x="679" 
d="M77 109l88 91q-51 66 -51 143q0 70 52 141l-92 91l30 30l91 -91q73 54 145 54t143 -54l92 91l30 -30l-91 -90q52 -69 52 -144q0 -71 -51 -141l90 -91l-29 -30l-91 91q-65 -53 -143 -53q-72 0 -145 53l-90 -91zM342 522q-75 0 -127 -52t-52 -128q0 -74 52 -126t125 -52
t125 52t52 126t-51.5 127t-123.5 53z" />
    <glyph glyph-name="yen" unicode="&#xa5;" 
d="M155 420l-124 233h63l158 -305l152 305h64l-121 -233h101v-43h-123l-47 -90v-7h150v-43h-150v-237h-53v237h-154v43h154v7l-47 90h-127v43h104z" />
    <glyph glyph-name="brokenbar" unicode="&#xa6;" 
d="M223 667h53v-329h-53v329zM223 153h53v-320h-53v320z" />
    <glyph glyph-name="section" unicode="&#xa7;" 
d="M412 543h-52q-4 40 -32 65t-70 25q-43 0 -72.5 -27t-29.5 -68q0 -39 29 -68q17 -16 30.5 -22t76.5 -26q70 -22 107.5 -69.5t37.5 -114.5q0 -111 -108 -159q43 -31 59.5 -59.5t16.5 -68.5q0 -69 -46.5 -113.5t-119.5 -44.5q-83 0 -133 56q-45 50 -45 107v14h51
q3 -61 37 -95.5t92 -34.5q49 0 81 30.5t32 77.5q0 41 -34 71q-19 17 -37 24.5t-73 21.5q-72 18 -110 62t-38 109q0 131 121 176q-76 40 -76 128q0 59 42.5 100t104.5 41q66 0 110 -38.5t48 -99.5zM251 376q-56 0 -103 -45q-35 -35 -35 -88q0 -61 38 -98.5t99 -37.5t99 37.5
t38 98.5q0 53 -35 88q-47 45 -101 45z" />
    <glyph glyph-name="dieresis" unicode="&#xa8;" 
d="M154 623q16 0 26 -10.5t10 -26.5t-10.5 -26t-25.5 -10q-16 0 -26.5 10t-10.5 26t10.5 26.5t26.5 10.5zM347 623q16 0 26 -10.5t10 -26.5t-10.5 -26t-25.5 -10q-16 0 -26.5 10t-10.5 26t10 26.5t27 10.5z" />
    <glyph glyph-name="copyright" unicode="&#xa9;" horiz-adv-x="787" 
d="M548 296h32q-6 -75 -56 -121t-126 -46q-86 0 -139 57t-53 148q0 92 54 149t140 57q69 0 117.5 -38.5t55.5 -97.5h-31q-11 48 -49 75.5t-93 27.5q-70 0 -113 -48t-43 -125t42.5 -124.5t111.5 -47.5q62 0 102.5 35.5t47.5 98.5zM398 678q140 0 240 -101.5t100 -243.5
q0 -143 -101 -243.5t-243 -100.5t-243 101t-101 243q0 145 101 245t247 100zM398 648q-132 0 -223.5 -91.5t-91.5 -223.5q0 -130 91.5 -222t219.5 -92q129 0 220 92t91 223q0 128 -90.5 221t-216.5 93z" />
    <glyph glyph-name="ordfeminine" unicode="&#xaa;" horiz-adv-x="365" 
d="M269 503v42h39v-278h-39v50q-41 -55 -102 -55q-60 0 -98 40.5t-38 103.5t38 103.5t97 40.5q65 0 103 -47zM169 515q-44 0 -71 -30.5t-27 -80.5q0 -46 27.5 -76.5t68.5 -30.5q43 0 73 33t30 80t-28 76t-73 29z" />
    <glyph glyph-name="guillemotleft" unicode="&#xab;" horiz-adv-x="412" 
d="M95 234l104 -165h-48l-104 165l104 172h48zM255 234l104 -165h-48l-104 165l104 172h48z" />
    <glyph glyph-name="logicalnot" unicode="&#xac;" 
d="M414 0v226h-381v47h433v-273h-52z" />
    <glyph glyph-name="uni00AD" unicode="&#xad;" horiz-adv-x="200" 
d="M200 265v-47h-200v47h200z" />
    <glyph glyph-name="registered" unicode="&#xae;" horiz-adv-x="787" 
d="M246 527h166q67 0 102.5 -28t35.5 -80q0 -71 -74 -97q40 -12 53.5 -36.5t14.5 -88.5q3 -50 12 -66h-38q-8 11 -10 72q-2 45 -7.5 61.5t-21.5 27.5q-26 16 -84 16h-112v-177h-37v396zM283 499v-164h112q117 0 117 83q0 81 -107 81h-122zM398 678q140 0 240 -101.5
t100 -243.5q0 -143 -101 -243.5t-243 -100.5t-243 101t-101 243q0 145 101 245t247 100zM398 648q-133 0 -224 -91.5t-91 -223.5q0 -130 91.5 -222t219.5 -92q129 0 220 92t91 222q0 129 -90.5 222t-216.5 93z" />
    <glyph glyph-name="macron" unicode="&#xaf;" 
d="M384 609v-41h-267v41h267z" />
    <glyph glyph-name="degree" unicode="&#xb0;" 
d="M251 661q56 0 95.5 -40t39.5 -97q0 -56 -39.5 -96t-95.5 -40q-57 0 -97 40t-40 97t40 96.5t97 39.5zM249 632q-43 0 -74 -31.5t-31 -75.5t31.5 -76t74.5 -32t74.5 31t31.5 74q0 46 -31 78t-76 32z" />
    <glyph glyph-name="plusminus" unicode="&#xb1;" 
d="M27 365h206v191h33v-191h206v-32h-206v-189h-33v189h-206v32zM27 99h445v-32h-445v32z" />
    <glyph glyph-name="twosuperior" unicode="&#xb2;" horiz-adv-x="327" 
d="M110 300h156v-39h-234l148 195q36 46 47 66.5t11 40.5q0 27 -21 44t-55 17q-37 0 -53.5 -18t-17.5 -59h-41q6 114 115 114q50 0 82 -27t32 -70q0 -44 -46 -103z" />
    <glyph glyph-name="threesuperior" unicode="&#xb3;" horiz-adv-x="327" 
d="M207 614h-153v39h238l-125 -146q53 0 89 -35t36 -87q0 -56 -40 -93t-101 -37q-49 0 -82 23.5t-47 67.5l38 12q24 -65 89 -65q42 0 71 26t29 63q0 38 -28.5 62t-74.5 24q-26 0 -57 -16l-11 13z" />
    <glyph glyph-name="acute" unicode="&#xb4;" 
d="M303 653h70l-110 -128h-42z" />
    <glyph glyph-name="mu" unicode="&#xb5;" 
d="M58 -164v644h47v-279q0 -55 8 -83t30 -50q41 -41 100 -41q67 0 109.5 51.5t42.5 133.5v268h47v-480h-47v101q-46 -115 -153 -115q-88 0 -137 79v-229h-47z" />
    <glyph glyph-name="paragraph" unicode="&#xb6;" 
d="M239 -105v414h-16q-82 1 -132.5 50t-50.5 128q0 49 22 90t60 63q45 27 122 27h170v-772h-47v739h-81v-739h-47z" />
    <glyph glyph-name="periodcentered" unicode="&#xb7;" horiz-adv-x="215" 
d="M108 283q18 0 29.5 -12t11.5 -30q0 -17 -12 -28.5t-29 -11.5t-29 12t-12 29q0 18 12 29.5t29 11.5z" />
    <glyph glyph-name="cedilla" unicode="&#xb8;" 
d="M197 -216l-22 29q78 48 101 138l50 -18q-27 -58 -54 -89t-75 -60z" />
    <glyph glyph-name="onesuperior" unicode="&#xb9;" horiz-adv-x="327" 
d="M173 594l-100 -68v41l141 98v-404h-41v333z" />
    <glyph glyph-name="ordmasculine" unicode="&#xba;" horiz-adv-x="350" 
d="M176 550q63 0 103 -40.5t40 -103.5q0 -61 -42 -102.5t-103 -41.5q-63 0 -103 40.5t-40 104.5t40 103.5t105 39.5zM176 515q-47 0 -76 -30.5t-29 -79.5q0 -48 29 -78t75 -30t75 30.5t29 78.5q0 49 -28.5 79t-74.5 30z" />
    <glyph glyph-name="guillemotright" unicode="&#xbb;" horiz-adv-x="412" 
d="M317 248l-104 164h48l104 -164l-104 -172h-48zM157 248l-104 164h48l104 -164l-104 -172h-48z" />
    <glyph glyph-name="onequarter" unicode="&#xbc;" horiz-adv-x="776" 
d="M173 594l-100 -68v41l141 98v-404h-41v333zM636 646l-466 -659l-30 21l467 659zM651 93h-172v28l213 295v-284h54v-39h-54v-93h-41v93zM651 132v168l-122 -168h122z" />
    <glyph glyph-name="onehalf" unicode="&#xbd;" horiz-adv-x="776" 
d="M173 594l-100 -68v41l141 98v-404h-41v333zM636 646l-466 -659l-30 21l467 659zM559 39h156v-39h-234l148 194q36 47 47 67.5t11 39.5q0 27 -21 44t-55 17q-37 0 -53.5 -18t-17.5 -59h-41q6 114 115 114q50 0 82 -27t32 -70q0 -44 -46 -103z" />
    <glyph glyph-name="threequarters" unicode="&#xbe;" horiz-adv-x="776" 
d="M207 614h-153v39h238l-125 -146q53 0 89 -35t36 -87q0 -56 -40 -93t-101 -37q-49 0 -82 23.5t-47 67.5l38 12q24 -65 89 -65q42 0 71 26t29 63q0 38 -28.5 62t-74.5 24q-26 0 -57 -16l-11 13zM636 646l-467 -659l-29 21l466 659zM651 93h-172v28l213 295v-284h54v-39h-54
v-93h-41v93zM651 132v168l-122 -168h122z" />
    <glyph glyph-name="questiondown" unicode="&#xbf;" horiz-adv-x="415" 
d="M218 325h47l-1 -37v-32q1 -60 -14.5 -90t-66.5 -70q-47 -36 -64 -63.5t-17 -68.5q0 -55 32.5 -90.5t82.5 -35.5q46 0 78 29.5t32 73.5q0 9 -1 17h50q0 -76 -42.5 -121.5t-113.5 -45.5q-73 0 -121.5 48.5t-48.5 121.5q0 50 24 90t81 83q41 31 52 55t11 83v53zM239 469
q17 0 29 -12t12 -29q0 -18 -12 -29.5t-29 -11.5q-18 0 -29.5 12t-11.5 30q0 17 12 28.5t29 11.5z" />
    <glyph glyph-name="Agrave" unicode="&#xc0;" horiz-adv-x="592" 
d="M457 175h-322l-71 -175h-57l262 667h62l254 -667h-63zM437 227l-139 364l-142 -364h281zM242 845l86 -130h-46l-111 130h71z" />
    <glyph glyph-name="Aacute" unicode="&#xc1;" horiz-adv-x="592" 
d="M457 175h-322l-71 -175h-57l262 667h62l254 -667h-63zM437 227l-139 364l-142 -364h281zM350 845h71l-111 -130h-46z" />
    <glyph glyph-name="Acircumflex" unicode="&#xc2;" horiz-adv-x="592" 
d="M457 175h-322l-71 -175h-57l262 667h62l254 -667h-63zM437 227l-139 364l-142 -364h281zM296 805l-73 -90h-54l106 132h46l103 -132h-54z" />
    <glyph glyph-name="Atilde" unicode="&#xc3;" horiz-adv-x="592" 
d="M457 175h-322l-71 -175h-57l262 667h62l254 -667h-63zM437 227l-139 364l-142 -364h281zM416 824l39 -27q-48 -68 -94 -68q-26 0 -69 27q-31 18 -47 18q-33 0 -55 -47l-39 22q25 43 44.5 59.5t44.5 16.5q23 0 73 -28q37 -20 50 -20q29 0 53 47z" />
    <glyph glyph-name="Adieresis" unicode="&#xc4;" horiz-adv-x="592" 
d="M457 175h-322l-71 -175h-57l262 667h62l254 -667h-63zM437 227l-139 364l-142 -364h281zM197 821q17 0 29 -12t12 -30q0 -17 -12 -29t-29 -12q-18 0 -30 12t-12 29q0 18 12 30t30 12zM397 821q17 0 29 -12t12 -30q0 -17 -12 -29t-29 -12q-18 0 -30 12t-12 29q0 18 12 30
t30 12z" />
    <glyph glyph-name="Aring" unicode="&#xc5;" horiz-adv-x="592" 
d="M457 175h-322l-71 -175h-57l262 667h62l254 -667h-63zM437 227l-139 364l-142 -364h281zM297 857q31 0 52 -21.5t21 -53.5q0 -30 -21.5 -51t-51.5 -21q-31 0 -52.5 21t-21.5 53q0 31 21.5 52t52.5 21zM297 832q-21 0 -35 -13.5t-14 -34.5t14 -35t35 -14q20 0 34 14t14 34
q0 21 -13.5 35t-34.5 14z" />
    <glyph glyph-name="AE" unicode="&#xc6;" horiz-adv-x="793" 
d="M466 312v-261h276v-51h-333v185h-249l-104 -185h-60l380 667h366v-51h-276v-253h276v-51h-276zM409 236v393l-220 -393h220z" />
    <glyph glyph-name="Ccedilla" unicode="&#xc7;" horiz-adv-x="628" 
d="M559 144l42 -37q-37 -51 -83 -78q-68 -41 -157 -41q-140 0 -226 97q-88 101 -88 248q0 149 89 247.5t224 98.5q146 0 241 -119l-42 -34q-36 40 -65 60q-60 41 -134 41q-110 0 -182 -84t-72 -211t73 -209.5t184 -82.5q59 0 106 24.5t90 79.5zM287 -207l-33 27
q37 29 55.5 56t29.5 68l56 -21q-25 -74 -108 -130z" />
    <glyph glyph-name="Egrave" unicode="&#xc8;" horiz-adv-x="478" 
d="M147 616v-253h278v-51h-278v-261h278v-51h-335v667h335v-51h-278zM185 845l86 -130h-46l-111 130h71z" />
    <glyph glyph-name="Eacute" unicode="&#xc9;" horiz-adv-x="478" 
d="M147 616v-253h278v-51h-278v-261h278v-51h-335v667h335v-51h-278zM293 845h71l-111 -130h-46z" />
    <glyph glyph-name="Ecircumflex" unicode="&#xca;" horiz-adv-x="478" 
d="M147 616v-253h278v-51h-278v-261h278v-51h-335v667h335v-51h-278zM239 805l-73 -90h-54l106 132h46l103 -132h-54z" />
    <glyph glyph-name="Edieresis" unicode="&#xcb;" horiz-adv-x="478" 
d="M147 616v-253h278v-51h-278v-261h278v-51h-335v667h335v-51h-278zM140 821q17 0 29 -12t12 -30q0 -17 -12 -29t-30 -12q-17 0 -29 12t-12 29q0 18 12 30t30 12zM340 821q17 0 29 -12t12 -30q0 -17 -12 -29t-29 -12q-18 0 -30 12t-12 29q0 18 12 30t30 12z" />
    <glyph glyph-name="Igrave" unicode="&#xcc;" horiz-adv-x="237" 
d="M146 667v-667h-57v667h57zM64 845l86 -130h-46l-111 130h71z" />
    <glyph glyph-name="Iacute" unicode="&#xcd;" horiz-adv-x="237" 
d="M147 667v-667h-57v667h57zM173 845h71l-111 -130h-46z" />
    <glyph glyph-name="Icircumflex" unicode="&#xce;" horiz-adv-x="237" 
d="M147 667v-667h-57v667h57zM119 805l-73 -90h-55l106 132h46l103 -132h-53z" />
    <glyph glyph-name="Idieresis" unicode="&#xcf;" horiz-adv-x="237" 
d="M147 667v-667h-57v667h57zM52 821q17 0 29 -12t12 -30q0 -17 -12 -29t-30 -12q-17 0 -29 12t-12 29q0 18 12 30t30 12zM185 821q17 0 29 -12t12 -30q0 -17 -12 -29t-29 -12q-18 0 -30 12t-12 29q0 18 12 30t30 12z" />
    <glyph glyph-name="Eth" unicode="&#xd0;" horiz-adv-x="618" 
d="M90 363v304h171q142 0 225.5 -86.5t83.5 -233.5q0 -163 -89 -255t-247 -92h-144v316h-80v47h80zM147 363h185v-47h-185v-265h31q100 0 148.5 10.5t87.5 41.5q98 74 98 244q0 130 -65.5 199.5t-188.5 69.5h-111v-253z" />
    <glyph glyph-name="Ntilde" unicode="&#xd1;" horiz-adv-x="679" 
d="M147 555v-555h-57v667h47l395 -547v547h57v-667h-43zM459 824l40 -27q-50 -68 -95 -68q-26 0 -69 27q-31 18 -47 18q-33 0 -55 -47l-39 22q26 44 45 60t44 16q23 0 73 -28q37 -20 50 -20q31 0 53 47z" />
    <glyph glyph-name="Ograve" unicode="&#xd2;" horiz-adv-x="731" 
d="M367 679q68 0 131.5 -31t110.5 -86q74 -87 74 -237q0 -167 -111 -259q-94 -78 -207 -78q-73 0 -141 34.5t-113 93.5q-64 84 -64 214q0 160 98 256q95 93 222 93zM366 627q-113 0 -187 -83t-74 -210q0 -128 73 -211t186 -83q114 0 192 86q31 36 50 91t19 112
q0 143 -80 222q-78 76 -179 76zM311 845l86 -130h-46l-111 130h71z" />
    <glyph glyph-name="Oacute" unicode="&#xd3;" horiz-adv-x="731" 
d="M367 679q68 0 131.5 -31t110.5 -86q74 -87 74 -237q0 -167 -111 -259q-94 -78 -207 -78q-73 0 -141 34.5t-113 93.5q-64 84 -64 214q0 160 98 256q95 93 222 93zM366 627q-113 0 -187 -83t-74 -210q0 -128 73 -211t186 -83q114 0 192 86q31 36 50 91t19 112
q0 143 -80 222q-78 76 -179 76zM419 845h71l-111 -130h-46z" />
    <glyph glyph-name="Ocircumflex" unicode="&#xd4;" horiz-adv-x="731" 
d="M367 679q68 0 131.5 -31t110.5 -86q74 -87 74 -237q0 -167 -111 -259q-94 -78 -207 -78q-73 0 -141 34.5t-113 93.5q-64 84 -64 214q0 160 98 256q95 93 222 93zM366 627q-113 0 -187 -83t-74 -210q0 -128 73 -211t186 -83q114 0 192 86q31 36 50 91t19 112
q0 143 -80 222q-78 76 -179 76zM365 805l-73 -90h-54l106 132h46l103 -132h-54z" />
    <glyph glyph-name="Otilde" unicode="&#xd5;" horiz-adv-x="731" 
d="M367 679q68 0 131.5 -31t110.5 -86q74 -87 74 -237q0 -167 -111 -259q-94 -78 -207 -78q-73 0 -141 34.5t-113 93.5q-64 84 -64 214q0 160 98 256q95 93 222 93zM366 627q-113 0 -187 -83t-74 -210q0 -128 73 -211t186 -83q114 0 192 86q31 36 50 91t19 112
q0 143 -80 222q-78 76 -179 76zM485 824l39 -27q-48 -68 -94 -68q-26 0 -69 27q-31 18 -47 18q-33 0 -55 -47l-40 22q26 43 45.5 59.5t44.5 16.5q23 0 73 -28q37 -20 50 -20q30 0 53 47z" />
    <glyph glyph-name="Odieresis" unicode="&#xd6;" horiz-adv-x="731" 
d="M367 679q68 0 131.5 -31t110.5 -86q74 -87 74 -237q0 -167 -111 -259q-94 -78 -207 -78q-73 0 -141 34.5t-113 93.5q-64 84 -64 214q0 160 98 256q95 93 222 93zM366 627q-113 0 -187 -83t-74 -210q0 -128 73 -211t186 -83q114 0 192 86q31 36 50 91t19 112
q0 143 -80 222q-78 76 -179 76zM266 821q17 0 29 -12t12 -30q0 -17 -12 -29t-29 -12q-18 0 -30 12t-12 29q0 18 12 30t30 12zM466 821q17 0 29 -12t12 -30q0 -17 -12 -29t-29 -12q-18 0 -30 12t-12 29q0 18 12 30t30 12z" />
    <glyph glyph-name="multiply" unicode="&#xd7;" 
d="M88 519l161 -161l162 161l23 -23l-162 -161l162 -162l-23 -22l-161 161l-162 -162l-23 23l162 162l-161 161z" />
    <glyph glyph-name="Oslash" unicode="&#xd8;" horiz-adv-x="728" 
d="M153 73l-76 -85l-24 22l77 86q-46 55 -64.5 107.5t-18.5 126.5q0 153 87 246q97 103 231 103q114 0 213 -84l70 77l25 -21l-72 -80q44 -59 62 -111.5t18 -124.5q0 -161 -95 -254q-93 -93 -224 -93q-61 0 -107 19t-102 66zM564 529l-375 -416q79 -73 172 -73
q116 0 188.5 82.5t72.5 214.5q0 60 -13 103t-45 89zM166 137l376 417q-83 73 -176 73q-115 0 -188 -82.5t-73 -210.5q0 -112 61 -197z" />
    <glyph glyph-name="Ugrave" unicode="&#xd9;" horiz-adv-x="635" 
d="M134 667v-400q0 -73 11.5 -113t40.5 -66q23 -21 59.5 -34.5t69.5 -13.5q73 0 130 50q32 30 43 66t11 114v397h60v-400q0 -76 -12 -119.5t-44 -80.5q-68 -79 -185 -79q-120 0 -190 84q-30 36 -40.5 76t-10.5 119v400h57zM264 845l86 -130h-46l-111 130h71z" />
    <glyph glyph-name="Uacute" unicode="&#xda;" horiz-adv-x="635" 
d="M134 667v-400q0 -73 11.5 -113t40.5 -66q23 -21 59.5 -34.5t69.5 -13.5q73 0 130 50q32 30 43 66t11 114v397h60v-400q0 -76 -12 -119.5t-44 -80.5q-68 -79 -185 -79q-120 0 -190 84q-30 36 -40.5 76t-10.5 119v400h57zM372 845h71l-111 -130h-46z" />
    <glyph glyph-name="Ucircumflex" unicode="&#xdb;" horiz-adv-x="635" 
d="M134 667v-400q0 -73 11.5 -113t40.5 -66q23 -21 59.5 -34.5t69.5 -13.5q73 0 130 50q32 30 43 66t11 114v397h60v-400q0 -76 -12 -119.5t-44 -80.5q-68 -79 -185 -79q-120 0 -190 84q-30 36 -40.5 76t-10.5 119v400h57zM318 805l-73 -90h-54l106 132h46l103 -132h-54z
" />
    <glyph glyph-name="Udieresis" unicode="&#xdc;" horiz-adv-x="635" 
d="M134 667v-400q0 -73 11.5 -113t40.5 -66q23 -21 59.5 -34.5t69.5 -13.5q73 0 130 50q32 30 43 66t11 114v397h60v-400q0 -76 -12 -119.5t-44 -80.5q-68 -79 -185 -79q-120 0 -190 84q-30 36 -40.5 76t-10.5 119v400h57zM219 821q17 0 29 -12t12 -30q0 -17 -12 -29
t-29 -12q-18 0 -30 12t-12 29q0 18 12 30t30 12zM419 821q17 0 29 -12t12 -30q0 -17 -12 -29t-29 -12q-18 0 -30 12t-12 29q0 18 12 30t30 12z" />
    <glyph glyph-name="Yacute" unicode="&#xdd;" horiz-adv-x="515" 
d="M288 293v-293h-57v293l-234 374h67l194 -314l193 314h67zM312 845h71l-111 -130h-46z" />
    <glyph glyph-name="Thorn" unicode="&#xde;" horiz-adv-x="519" 
d="M140 178v-178h-57v667h57v-90h104q117 0 177 -48q66 -54 66 -150q0 -104 -73 -160q-52 -41 -161 -41h-113zM140 229h102q59 0 92 12q44 13 70.5 51t26.5 86q0 50 -27.5 87t-74.5 50q-40 11 -106 11h-83v-297z" />
    <glyph glyph-name="germandbls" unicode="&#xdf;" horiz-adv-x="476" 
d="M87 413h-57v47h57v60q0 72 40 110t116 38q71 0 108 -37q44 -42 44 -107q0 -54 -30 -92q-18 -24 -64 -45q52 -12 77 -36q56 -51 56 -146t-49.5 -154t-129.5 -59q-40 0 -74 19l18 41q41 -14 62 -14q54 0 87.5 45.5t33.5 117.5q0 155 -146 155v52q44 5 65 21q42 31 42 91
q0 44 -28.5 72.5t-72.5 28.5q-56 0 -84 -33q-21 -22 -21 -68v-520h-50v413z" />
    <glyph glyph-name="agrave" unicode="&#xe0;" horiz-adv-x="561" 
d="M428 375v85h50v-460h-50v102q-67 -110 -172 -110q-93 0 -153 67t-60 171t59.5 171t152.5 67q108 0 173 -93zM259 421q-80 0 -123 -59q-41 -57 -41 -135q0 -81 46 -134.5t115 -53.5q72 0 122.5 58t50.5 140t-47 133t-123 51zM228 653l82 -128h-42l-110 128h70z" />
    <glyph glyph-name="aacute" unicode="&#xe1;" horiz-adv-x="561" 
d="M428 375v85h50v-460h-50v102q-67 -110 -172 -110q-93 0 -153 67t-60 171t59.5 171t152.5 67q108 0 173 -93zM259 421q-80 0 -123 -59q-41 -57 -41 -135q0 -81 46 -134.5t115 -53.5q72 0 122.5 58t50.5 140t-47 133t-123 51zM334 653h69l-110 -128h-42z" />
    <glyph glyph-name="acircumflex" unicode="&#xe2;" horiz-adv-x="561" 
d="M428 375v85h50v-460h-50v102q-67 -110 -172 -110q-93 0 -153 67t-60 171t59.5 171t152.5 67q108 0 173 -93zM259 421q-80 0 -123 -59q-41 -57 -41 -135q0 -81 46 -134.5t115 -53.5q72 0 122.5 58t50.5 140t-47 133t-123 51zM279 615l-73 -90h-54l105 130h48l104 -130h-54
z" />
    <glyph glyph-name="atilde" unicode="&#xe3;" horiz-adv-x="561" 
d="M428 375v85h50v-460h-50v102q-67 -110 -172 -110q-93 0 -153 67t-60 171t59.5 171t152.5 67q108 0 173 -93zM259 421q-80 0 -123 -59q-41 -57 -41 -135q0 -81 46 -134.5t115 -53.5q72 0 122.5 58t50.5 140t-47 133t-123 51zM404 631l35 -25q-45 -69 -90 -69
q-15 0 -29 6.5t-55 32.5q-23 15 -39 15q-30 0 -55 -42l-35 30q46 61 90 61q20 0 35.5 -7t58.5 -37q17 -11 30 -11q30 0 54 46z" />
    <glyph glyph-name="adieresis" unicode="&#xe4;" horiz-adv-x="561" 
d="M428 375v85h50v-460h-50v102q-67 -110 -172 -110q-93 0 -153 67t-60 171t59.5 171t152.5 67q108 0 173 -93zM259 421q-80 0 -123 -59q-41 -57 -41 -135q0 -81 46 -134.5t115 -53.5q72 0 122.5 58t50.5 140t-47 133t-123 51zM184 623q16 0 26 -10.5t10 -26.5t-10.5 -26
t-25.5 -10q-16 0 -26.5 10t-10.5 26t10.5 26.5t26.5 10.5zM377 623q16 0 26 -10.5t10 -26.5t-10.5 -26t-25.5 -10q-16 0 -26.5 10t-10.5 26t10 26.5t27 10.5z" />
    <glyph glyph-name="aring" unicode="&#xe5;" horiz-adv-x="561" 
d="M428 375v85h50v-460h-50v102q-67 -110 -172 -110q-93 0 -153 67t-60 171t59.5 171t152.5 67q108 0 173 -93zM259 421q-80 0 -123 -59q-41 -57 -41 -135q0 -81 46 -134.5t115 -53.5q72 0 122.5 58t50.5 140t-47 133t-123 51zM261 667q31 0 52 -21.5t21 -53.5
q0 -30 -21.5 -51t-51.5 -21q-31 0 -52.5 21t-21.5 53q0 31 21.5 52t52.5 21zM261 642q-21 0 -35 -13.5t-14 -34.5t14 -35t35 -14q20 0 34 14t14 34q0 21 -13.5 35t-34.5 14z" />
    <glyph glyph-name="ae" unicode="&#xe6;" horiz-adv-x="917" 
d="M811 129l40 -22q-61 -115 -201 -115q-116 0 -169 97v-89h-50v100q-65 -108 -173 -108q-95 0 -155 66.5t-60 172.5q0 104 59 170.5t153 66.5q70 0 125 -39q25 -18 51 -55v86h50v-86q18 29 32.5 43t37.5 26q46 25 105 25q122 0 187 -101q38 -62 38 -130q0 -16 -1 -28h-399
q9 -69 41 -109q53 -61 129 -61q60 0 114 39q23 18 46 51zM481 256h346q-9 76 -55 120.5t-117 44.5q-44 0 -83 -20t-62 -54q-24 -36 -29 -91zM263 421q-94 0 -136 -73q-32 -53 -32 -122q0 -80 47 -133.5t119 -53.5t121.5 56.5t49.5 139.5t-47 134.5t-122 51.5z" />
    <glyph glyph-name="ccedilla" unicode="&#xe7;" horiz-adv-x="451" 
d="M393 96l31 -36q-69 -68 -164 -68q-96 0 -156.5 66.5t-60.5 171.5t62 171.5t160 66.5q94 0 159 -65l-31 -34q-56 52 -128 52q-76 0 -123 -52.5t-47 -136.5q0 -86 46 -139.5t120 -53.5q76 0 132 57zM180 -216l-22 29q78 48 101 138l50 -18q-26 -58 -53 -89t-76 -60z" />
    <glyph glyph-name="egrave" unicode="&#xe8;" horiz-adv-x="531" 
d="M493 209h-396q5 -57 32 -96q52 -74 139 -74q47 0 89.5 24.5t65.5 65.5l41 -22q-25 -52 -79 -83.5t-116 -31.5q-99 0 -162.5 66.5t-63.5 169.5q0 105 63.5 172.5t162.5 67.5q96 0 161 -65.5t65 -161.5q0 -4 -2 -32zM99 256h341q-4 52 -27 89q-52 76 -145 76
q-44 0 -82 -20.5t-60 -57.5q-21 -33 -27 -87zM213 653l82 -128h-42l-110 128h70z" />
    <glyph glyph-name="eacute" unicode="&#xe9;" horiz-adv-x="531" 
d="M493 209h-396q5 -57 32 -96q52 -74 139 -74q47 0 89.5 24.5t65.5 65.5l41 -22q-25 -52 -79 -83.5t-116 -31.5q-99 0 -162.5 66.5t-63.5 169.5q0 105 63.5 172.5t162.5 67.5q96 0 161 -65.5t65 -161.5q0 -4 -2 -32zM99 256h341q-4 52 -27 89q-52 76 -145 76
q-44 0 -82 -20.5t-60 -57.5q-21 -33 -27 -87zM319 653h70l-110 -128h-43z" />
    <glyph glyph-name="ecircumflex" unicode="&#xea;" horiz-adv-x="531" 
d="M493 209h-396q5 -57 32 -96q52 -74 139 -74q47 0 89.5 24.5t65.5 65.5l41 -22q-25 -52 -79 -83.5t-116 -31.5q-99 0 -162.5 66.5t-63.5 169.5q0 105 63.5 172.5t162.5 67.5q96 0 161 -65.5t65 -161.5q0 -4 -2 -32zM99 256h341q-4 52 -27 89q-52 76 -145 76
q-44 0 -82 -20.5t-60 -57.5q-21 -33 -27 -87zM265 615l-74 -90h-53l104 130h48l104 -130h-54z" />
    <glyph glyph-name="edieresis" unicode="&#xeb;" horiz-adv-x="531" 
d="M493 209h-396q5 -57 32 -96q52 -74 139 -74q47 0 89.5 24.5t65.5 65.5l41 -22q-25 -52 -79 -83.5t-116 -31.5q-99 0 -162.5 66.5t-63.5 169.5q0 105 63.5 172.5t162.5 67.5q96 0 161 -65.5t65 -161.5q0 -4 -2 -32zM99 256h341q-4 52 -27 89q-52 76 -145 76
q-44 0 -82 -20.5t-60 -57.5q-21 -33 -27 -87zM170 623q16 0 26 -10.5t10 -26.5t-10.5 -26t-25.5 -10q-16 0 -26.5 10t-10.5 26t10.5 26.5t26.5 10.5zM363 623q16 0 26 -10.5t10 -26.5t-10.5 -26t-25.5 -10q-16 0 -26.5 10t-10.5 26t10 26.5t27 10.5z" />
    <glyph glyph-name="igrave" unicode="&#xec;" horiz-adv-x="217" 
d="M134 460v-460h-50v460h50zM56 653l82 -128h-42l-110 128h70z" />
    <glyph glyph-name="iacute" unicode="&#xed;" horiz-adv-x="217" 
d="M133 460v-460h-50v460h50zM161 653h70l-110 -128h-42z" />
    <glyph glyph-name="icircumflex" unicode="&#xee;" horiz-adv-x="217" 
d="M133 460v-460h-50v460h50zM107 615l-74 -90h-53l104 130h49l104 -130h-54z" />
    <glyph glyph-name="idieresis" unicode="&#xef;" horiz-adv-x="217" 
d="M133 460v-460h-50v460h50zM49 623q16 0 26 -10.5t10 -26.5t-10.5 -26t-25.5 -10q-16 0 -26.5 10t-10.5 26t10 26.5t27 10.5zM169 623q16 0 26 -10.5t10 -26.5t-10.5 -26t-25.5 -10q-16 0 -26.5 10t-10.5 26t10 26.5t27 10.5z" />
    <glyph glyph-name="eth" unicode="&#xf0;" horiz-adv-x="538" 
d="M184 552l95 53q-56 52 -99 75l23 27q53 -25 115 -81l102 56l19 -32l-92 -51q71 -74 110 -165t39 -182q0 -123 -65 -191q-66 -69 -164 -69t-161 67t-63 172q0 109 63 172q69 66 164 66q68 0 133 -43q-12 35 -40 78t-58 73l-103 -58zM267 422q-76 0 -124 -53.5t-48 -137.5
q0 -86 48 -139t125 -53q78 0 127 54.5t49 140.5q0 82 -50 135t-127 53z" />
    <glyph glyph-name="ntilde" unicode="&#xf1;" horiz-adv-x="497" 
d="M83 460h50v-69q63 77 143 77q63 0 102 -36q39 -35 39 -112v-320h-50v298q0 68 -19 92q-24 31 -78 31q-60 0 -100 -42q-37 -38 -37 -97v-282h-50v460zM372 631l34 -25q-45 -69 -89 -69q-15 0 -29 6.5t-55 32.5q-25 15 -39 15q-32 0 -55 -42l-35 30q44 61 90 61q20 0 35 -7
t59 -37q16 -11 29 -11q31 0 55 46z" />
    <glyph glyph-name="ograve" unicode="&#xf2;" horiz-adv-x="537" 
d="M270 468q107 0 174 -81q51 -63 51 -157q0 -100 -66 -169t-162 -69q-50 0 -96 21t-78 59q-50 59 -50 160q0 111 67 174q65 62 160 62zM270 421q-79 0 -127 -53t-48 -139q0 -85 48 -137.5t126 -52.5q76 0 125 54t49 137q0 91 -52 142q-51 49 -121 49zM216 653l82 -128h-42
l-110 128h70z" />
    <glyph glyph-name="oacute" unicode="&#xf3;" horiz-adv-x="537" 
d="M270 468q107 0 174 -81q51 -63 51 -157q0 -100 -66 -169t-162 -69q-50 0 -96 21t-78 59q-50 59 -50 160q0 111 67 174q65 62 160 62zM270 421q-79 0 -127 -53t-48 -139q0 -85 48 -137.5t126 -52.5q76 0 125 54t49 137q0 91 -52 142q-51 49 -121 49zM322 653h70l-110 -128
h-43z" />
    <glyph glyph-name="ocircumflex" unicode="&#xf4;" horiz-adv-x="537" 
d="M270 468q107 0 174 -81q51 -63 51 -157q0 -100 -66 -169t-162 -69q-50 0 -96 21t-78 59q-50 59 -50 160q0 111 67 174q65 62 160 62zM270 421q-79 0 -127 -53t-48 -139q0 -85 48 -137.5t126 -52.5q76 0 125 54t49 137q0 91 -52 142q-51 49 -121 49zM268 615l-74 -90h-53
l104 130h48l104 -130h-54z" />
    <glyph glyph-name="otilde" unicode="&#xf5;" horiz-adv-x="537" 
d="M270 468q107 0 174 -81q51 -63 51 -157q0 -100 -66 -169t-162 -69q-50 0 -96 21t-78 59q-50 59 -50 160q0 111 67 174q65 62 160 62zM270 421q-79 0 -127 -53t-48 -139q0 -85 48 -137.5t126 -52.5q76 0 125 54t49 137q0 91 -52 142q-51 49 -121 49zM393 631l34 -25
q-45 -69 -90 -69q-14 0 -28 6.5t-56 32.5q-23 15 -38 15q-31 0 -56 -42l-35 30q46 61 91 61q19 0 34.5 -7.5t58.5 -36.5q17 -11 30 -11q29 0 55 46z" />
    <glyph glyph-name="odieresis" unicode="&#xf6;" horiz-adv-x="537" 
d="M270 468q107 0 174 -81q51 -63 51 -157q0 -100 -66 -169t-162 -69q-50 0 -96 21t-78 59q-50 59 -50 160q0 111 67 174q65 62 160 62zM270 421q-79 0 -127 -53t-48 -139q0 -85 48 -137.5t126 -52.5q76 0 125 54t49 137q0 91 -52 142q-51 49 -121 49zM173 623
q16 0 26 -10.5t10 -26.5t-10.5 -26t-25.5 -10q-16 0 -26.5 10t-10.5 26t10 26.5t27 10.5zM366 623q16 0 26 -10.5t10 -26.5t-10.5 -26t-25.5 -10q-16 0 -26.5 10t-10.5 26t10.5 26.5t26.5 10.5z" />
    <glyph glyph-name="divide" unicode="&#xf7;" 
d="M27 351h445v-32h-445v32zM250 556q14 0 23.5 -10t9.5 -23q0 -14 -9.5 -24t-23.5 -10t-24 9.5t-10 23.5t10 24t24 10zM250 180q14 0 23.5 -10t9.5 -23q0 -14 -9.5 -24t-23.5 -10t-24 9.5t-10 23.5t10 24t24 10z" />
    <glyph glyph-name="oslash" unicode="&#xf8;" horiz-adv-x="537" 
d="M119 45l-52 -59l-27 23l56 60q-30 40 -42 76.5t-12 85.5q0 114 69 177q66 61 155 61q84 0 146 -52l64 70l24 -25l-62 -68q56 -72 56 -160q0 -107 -64.5 -174.5t-167.5 -67.5q-80 0 -143 53zM403 356l-249 -273q49 -44 115 -44q75 0 124 54.5t49 139.5q0 64 -39 123z
M131 109l247 271q-48 42 -113 42q-76 0 -123.5 -53.5t-47.5 -138.5q0 -66 37 -121z" />
    <glyph glyph-name="ugrave" unicode="&#xf9;" horiz-adv-x="470" 
d="M352 460h50v-297q0 -45 -9.5 -72.5t-33.5 -49.5q-51 -49 -123 -49q-76 0 -122 47t-46 124v297h50v-297q0 -56 32.5 -90t84.5 -34q57 0 92 38q25 28 25 86v297zM182 653l82 -128h-42l-110 128h70z" />
    <glyph glyph-name="uacute" unicode="&#xfa;" horiz-adv-x="470" 
d="M352 460h50v-297q0 -45 -9.5 -72.5t-33.5 -49.5q-51 -49 -123 -49q-76 0 -122 47t-46 124v297h50v-297q0 -56 32.5 -90t84.5 -34q57 0 92 38q25 28 25 86v297zM288 653h70l-110 -128h-43z" />
    <glyph glyph-name="ucircumflex" unicode="&#xfb;" horiz-adv-x="470" 
d="M352 460h50v-297q0 -45 -9.5 -72.5t-33.5 -49.5q-51 -49 -123 -49q-76 0 -122 47t-46 124v297h50v-297q0 -56 32.5 -90t84.5 -34q57 0 92 38q25 28 25 86v297zM234 615l-74 -90h-53l104 130h48l104 -130h-54z" />
    <glyph glyph-name="udieresis" unicode="&#xfc;" horiz-adv-x="470" 
d="M352 460h50v-297q0 -45 -9.5 -72.5t-33.5 -49.5q-51 -49 -123 -49q-76 0 -122 47t-46 124v297h50v-297q0 -56 32.5 -90t84.5 -34q57 0 92 38q25 28 25 86v297zM139 623q16 0 26 -10.5t10 -26.5t-10.5 -26t-25.5 -10q-16 0 -26.5 10t-10.5 26t10 26.5t27 10.5zM332 623
q16 0 26 -10.5t10 -26.5t-10.5 -26t-25.5 -10q-16 0 -26.5 10t-10.5 26t10.5 26.5t26.5 10.5z" />
    <glyph glyph-name="yacute" unicode="&#xfd;" horiz-adv-x="422" 
d="M202 84l154 376h56l-283 -688h-55l101 245l-165 443h53zM264 653h70l-110 -128h-43z" />
    <glyph glyph-name="thorn" unicode="&#xfe;" horiz-adv-x="557" 
d="M80 667h50v-305q35 58 75 82t101 24q94 0 151 -63t57 -167q0 -110 -58 -178t-152 -68q-54 0 -100 24q-23 12 -38 25.5t-36 41.5v-303h-50v887zM300 421q-76 0 -123 -55t-47 -144q0 -82 46 -132.5t121 -50.5q74 0 119 53t45 141q0 89 -43 136q-47 52 -118 52z" />
    <glyph glyph-name="ydieresis" unicode="&#xff;" horiz-adv-x="422" 
d="M202 84l154 376h56l-283 -688h-55l101 245l-165 443h53zM115 623q16 0 26 -10.5t10 -26.5t-10.5 -26t-25.5 -10q-16 0 -26.5 10t-10.5 26t10 26.5t27 10.5zM308 623q16 0 26 -10.5t10 -26.5t-10.5 -26t-25.5 -10q-16 0 -26.5 10t-10.5 26t10.5 26.5t26.5 10.5z" />
    <glyph glyph-name="Amacron" unicode="&#x100;" horiz-adv-x="592" 
d="M457 175h-322l-71 -175h-57l262 667h62l254 -667h-63zM437 227l-139 364l-142 -364h281zM436 799v-44h-280v44h280z" />
    <glyph glyph-name="amacron" unicode="&#x101;" horiz-adv-x="561" 
d="M428 375v85h50v-460h-50v102q-67 -110 -172 -110q-93 0 -153 67t-60 171t59.5 171t152.5 67q108 0 173 -93zM259 421q-80 0 -123 -59q-41 -57 -41 -135q0 -81 46 -134.5t115 -53.5q72 0 122.5 58t50.5 140t-47 133t-123 51zM414 609v-41h-267v41h267z" />
    <glyph glyph-name="Abreve" unicode="&#x102;" horiz-adv-x="592" 
d="M457 175h-322l-71 -175h-57l262 667h62l254 -667h-63zM437 227l-139 364l-142 -364h281zM151 829h52q25 -55 93 -55t94 55h52q-11 -46 -50 -72.5t-96 -26.5t-96 26.5t-49 72.5z" />
    <glyph glyph-name="abreve" unicode="&#x103;" horiz-adv-x="561" 
d="M428 375v85h50v-460h-50v102q-67 -110 -172 -110q-93 0 -153 67t-60 171t59.5 171t152.5 67q108 0 173 -93zM259 421q-80 0 -123 -59q-41 -57 -41 -135q0 -81 46 -134.5t115 -53.5q72 0 122.5 58t50.5 140t-47 133t-123 51zM141 632h49q25 -58 91 -58t90 58h49
q-10 -46 -47 -72.5t-92 -26.5t-92 26.5t-48 72.5z" />
    <glyph glyph-name="Aogonek" unicode="&#x104;" horiz-adv-x="603" 
d="M331 667l263 -667q-56 -38 -56 -79q0 -24 19 -39.5t49 -15.5q21 0 48 11v-31q-32 -12 -57 -12q-41 0 -67.5 21.5t-26.5 55.5q0 49 59 89h-24l-77 197h-317l-78 -197h-56l268 667h53zM447 238l-124 311q-13 38 -18 62q-4 -12 -6 -16l-15 -44l-126 -313h289z" />
    <glyph glyph-name="aogonek" unicode="&#x105;" horiz-adv-x="494" 
d="M429 220v-78q0 -86 2 -98q2 -15 5.5 -21.5t20.5 -22.5q-51 -35 -51 -76q0 -24 19.5 -39.5t48.5 -15.5q21 0 48 11v-30q-31 -11 -56 -11q-42 0 -68 21.5t-26 56.5q0 46 52 83h-21q-16 16 -18.5 25.5t-2.5 50.5v29q-29 -62 -73 -90t-111 -28q-78 0 -121 35.5t-43 100.5
q0 92 86 125q43 17 145 24q80 6 98 17t18 52q0 38 -11 62q-12 25 -44.5 39.5t-75.5 14.5q-128 0 -141 -124h-47q11 159 191 159q77 0 122.5 -31t52.5 -88q1 -13 1 -153zM381 191v79q-17 -17 -37.5 -21.5t-116.5 -11.5q-73 -6 -107.5 -34t-34.5 -80q0 -48 33 -75t92 -27
q87 0 135 64q36 49 36 106z" />
    <glyph glyph-name="Cacute" unicode="&#x106;" horiz-adv-x="628" 
d="M559 144l42 -37q-37 -51 -83 -78q-68 -41 -157 -41q-140 0 -226 97q-88 101 -88 248q0 149 89 247.5t224 98.5q146 0 241 -119l-42 -34q-36 40 -65 60q-60 41 -134 41q-110 0 -182 -84t-72 -211t73 -209.5t184 -82.5q59 0 106 24.5t90 79.5zM368 845h71l-111 -130h-46z
" />
    <glyph glyph-name="cacute" unicode="&#x107;" horiz-adv-x="451" 
d="M393 96l31 -36q-69 -68 -164 -68q-96 0 -156.5 66.5t-60.5 171.5t62 171.5t160 66.5q94 0 159 -65l-31 -34q-56 52 -128 52q-76 0 -123 -52.5t-47 -136.5q0 -86 46 -139.5t120 -53.5q76 0 132 57zM279 653h69l-110 -128h-42z" />
    <glyph glyph-name="Ccircumflex" unicode="&#x108;" horiz-adv-x="628" 
d="M559 144l42 -37q-37 -51 -83 -78q-68 -41 -157 -41q-140 0 -226 97q-88 101 -88 248q0 149 89 247.5t224 98.5q146 0 241 -119l-42 -34q-36 40 -65 60q-60 41 -134 41q-110 0 -182 -84t-72 -211t73 -209.5t184 -82.5q59 0 106 24.5t90 79.5zM314 805l-73 -90h-55l107 132
h46l102 -132h-53z" />
    <glyph glyph-name="Cdotaccent" unicode="&#x10a;" horiz-adv-x="628" 
d="M559 144l42 -37q-37 -51 -83 -78q-68 -41 -157 -41q-140 0 -226 97q-88 101 -88 248q0 149 89 247.5t224 98.5q146 0 241 -119l-42 -34q-36 40 -65 60q-60 41 -134 41q-110 0 -182 -84t-72 -211t73 -209.5t184 -82.5q59 0 106 24.5t90 79.5zM314 821q17 0 29 -12t12 -30
q0 -17 -12 -29t-29 -12q-18 0 -30 12t-12 29q0 18 12 30t30 12z" />
    <glyph glyph-name="cdotaccent" unicode="&#x10b;" horiz-adv-x="451" 
d="M393 96l31 -36q-69 -68 -164 -68q-96 0 -156.5 66.5t-60.5 171.5t62 171.5t160 66.5q94 0 159 -65l-31 -34q-56 52 -128 52q-76 0 -123 -52.5t-47 -136.5q0 -86 46 -139.5t120 -53.5q76 0 132 57zM226 623q16 0 26 -10.5t10 -26.5t-10.5 -26t-25.5 -10q-16 0 -26.5 10
t-10.5 26t10.5 26.5t26.5 10.5z" />
    <glyph glyph-name="Ccaron" unicode="&#x10c;" horiz-adv-x="628" 
d="M559 144l42 -37q-37 -51 -83 -78q-68 -41 -157 -41q-140 0 -226 97q-88 101 -88 248q0 149 89 247.5t224 98.5q146 0 241 -119l-42 -34q-36 40 -65 60q-60 41 -134 41q-110 0 -182 -84t-72 -211t73 -209.5t184 -82.5q59 0 106 24.5t90 79.5zM314 757l73 90h54l-106 -132
h-46l-103 132h54z" />
    <glyph glyph-name="ccaron" unicode="&#x10d;" horiz-adv-x="451" 
d="M393 96l31 -36q-69 -68 -164 -68q-96 0 -156.5 66.5t-60.5 171.5t62 171.5t160 66.5q94 0 159 -65l-31 -34q-56 52 -128 52q-76 0 -123 -52.5t-47 -136.5q0 -86 46 -139.5t120 -53.5q76 0 132 57zM227 565l74 90h53l-104 -130h-49l-104 130h54z" />
    <glyph glyph-name="Dcaron" unicode="&#x10e;" horiz-adv-x="618" 
d="M90 0v667h171q142 0 226 -86.5t84 -233.5q0 -164 -89 -255.5t-248 -91.5h-144zM147 616v-565h31q101 0 149.5 10.5t87.5 41.5q98 74 98 244q0 131 -65.5 200t-189.5 69h-111zM309 757l73 90h54l-106 -132h-46l-103 132h54z" />
    <glyph glyph-name="dcaron" unicode="&#x10f;" horiz-adv-x="703" 
d="M424 381v286h50v-667h-50v89q-71 -97 -169 -97q-93 0 -152.5 66t-59.5 170t59 172t150 68q52 0 98 -23q40 -20 74 -64zM262 421q-75 0 -121 -53.5t-46 -140.5q0 -83 45 -135.5t116 -52.5q73 0 121 54.5t48 137.5q0 86 -45 138t-118 52zM662 658l-98 -201l-39 17l94 206z
" />
    <glyph glyph-name="Dcroat" unicode="&#x110;" horiz-adv-x="618" 
d="M90 363v304h171q142 0 225.5 -86.5t83.5 -233.5q0 -163 -89 -255t-247 -92h-144v316h-80v47h80zM147 363h185v-47h-185v-265h31q100 0 148.5 10.5t87.5 41.5q98 74 98 244q0 130 -65.5 199.5t-188.5 69.5h-111v-253z" />
    <glyph glyph-name="dcroat" unicode="&#x111;" horiz-adv-x="557" 
d="M424 573v94h50v-94h80v-43h-80v-530h-50v89q-38 -51 -78 -74t-92 -23q-92 0 -151.5 66.5t-59.5 169.5q0 104 59 172.5t150 68.5q51 0 97 -23q41 -20 75 -65v149h-153v43h153zM261 422q-74 0 -120 -54t-46 -141q0 -83 44.5 -135.5t115.5 -52.5q74 0 122 54.5t48 137.5
q0 86 -45 138.5t-119 52.5z" />
    <glyph glyph-name="Emacron" unicode="&#x112;" horiz-adv-x="478" 
d="M147 616v-253h278v-51h-278v-261h278v-51h-335v667h335v-51h-278zM398 799v-44h-280v44h280z" />
    <glyph glyph-name="emacron" unicode="&#x113;" horiz-adv-x="531" 
d="M493 209h-396q5 -57 32 -96q52 -74 139 -74q47 0 89.5 24.5t65.5 65.5l41 -22q-25 -52 -79 -83.5t-116 -31.5q-99 0 -162.5 66.5t-63.5 169.5q0 105 63.5 172.5t162.5 67.5q96 0 161 -65.5t65 -161.5q0 -4 -2 -32zM99 256h341q-4 52 -27 89q-52 76 -145 76
q-44 0 -82 -20.5t-60 -57.5q-21 -33 -27 -87zM399 609v-41h-267v41h267z" />
    <glyph glyph-name="Ebreve" unicode="&#x114;" horiz-adv-x="478" 
d="M147 616v-253h278v-51h-278v-261h278v-51h-335v667h335v-51h-278zM94 829h52q25 -55 93 -55t94 55h52q-11 -46 -50 -72.5t-96 -26.5t-96 26.5t-49 72.5z" />
    <glyph glyph-name="Edotaccent" unicode="&#x116;" horiz-adv-x="478" 
d="M147 616v-253h278v-51h-278v-261h278v-51h-335v667h335v-51h-278zM240 821q17 0 29 -12t12 -30q0 -17 -12 -29t-29 -12q-18 0 -30 12t-12 29q0 18 12 30t30 12z" />
    <glyph glyph-name="edotaccent" unicode="&#x117;" horiz-adv-x="531" 
d="M493 209h-396q5 -57 32 -96q52 -74 139 -74q47 0 89.5 24.5t65.5 65.5l41 -22q-25 -52 -79 -83.5t-116 -31.5q-99 0 -162.5 66.5t-63.5 169.5q0 105 63.5 172.5t162.5 67.5q96 0 161 -65.5t65 -161.5q0 -4 -2 -32zM99 256h341q-4 52 -27 89q-52 76 -145 76
q-44 0 -82 -20.5t-60 -57.5q-21 -33 -27 -87zM266 623q16 0 26 -10.5t10 -26.5t-10.5 -26t-25.5 -10q-16 0 -26.5 10t-10.5 26t10.5 26.5t26.5 10.5z" />
    <glyph glyph-name="Eogonek" unicode="&#x118;" horiz-adv-x="563" 
d="M535 46v-46q-56 -41 -56 -79q0 -24 19 -39.5t48 -15.5q22 0 49 11l-2 -31q-32 -12 -57 -12q-41 0 -67.5 22t-26.5 56q0 47 58 88h-434v667h464v-44h-411v-254h385v-43h-385v-280h416z" />
    <glyph glyph-name="eogonek" unicode="&#x119;" horiz-adv-x="517" 
d="M426 165h48q-13 -82 -74.5 -131.5t-143.5 -45.5q-38 -33 -38 -68q0 -23 19.5 -38.5t48.5 -15.5q20 0 48 10v-29q-31 -11 -56 -11q-42 0 -68 21.5t-26 55.5q0 39 42 77q-87 13 -137 79.5t-50 167.5q0 113 62 184t162 71q98 0 157.5 -68t59.5 -180v-11h-392
q1 -96 48.5 -153t127.5 -57q64 0 105.5 36.5t56.5 105.5zM88 265h342q-1 70 -29 115q-48 76 -137 76q-46 0 -85 -22.5t-61 -60.5q-24 -42 -30 -108z" />
    <glyph glyph-name="Ecaron" unicode="&#x11a;" horiz-adv-x="478" 
d="M147 616v-253h278v-51h-278v-261h278v-51h-335v667h335v-51h-278zM239 757l73 90h55l-107 -132h-45l-103 132h53z" />
    <glyph glyph-name="ecaron" unicode="&#x11b;" horiz-adv-x="531" 
d="M493 209h-396q5 -57 32 -96q52 -74 139 -74q47 0 89.5 24.5t65.5 65.5l41 -22q-25 -52 -79 -83.5t-116 -31.5q-99 0 -162.5 66.5t-63.5 169.5q0 105 63.5 172.5t162.5 67.5q96 0 161 -65.5t65 -161.5q0 -4 -2 -32zM99 256h341q-4 52 -27 89q-52 76 -145 76
q-44 0 -82 -20.5t-60 -57.5q-21 -33 -27 -87zM267 565l74 90h53l-104 -130h-49l-103 130h53z" />
    <glyph glyph-name="Gcircumflex" unicode="&#x11c;" horiz-adv-x="722" 
d="M365 354h310v-41q0 -91 -35 -160q-41 -78 -112.5 -121.5t-159.5 -43.5q-140 0 -230.5 97t-90.5 246q0 154 90 251t233 97q145 0 239 -118l-42 -35q-40 43 -58 55q-61 46 -141 46q-112 0 -187.5 -84.5t-75.5 -209.5q0 -124 74 -208.5t184 -84.5q61 0 120 31.5t94 82.5
q40 59 43 149h-255v51zM361 805l-73 -90h-55l107 132h45l103 -132h-53z" />
    <glyph glyph-name="gcircumflex" unicode="&#x11d;" horiz-adv-x="560" 
d="M427 370v90h50v-482q0 -100 -58 -156.5t-161 -56.5q-126 0 -191 80l38 37q27 -29 44 -40q44 -28 112 -28q84 0 131 49q35 38 35 115v123q-31 -50 -59 -72q-50 -37 -115 -37q-89 0 -149.5 68t-60.5 169q0 55 19.5 105t53.5 82q52 52 140 52q54 0 94 -23t77 -75zM263 421
q-74 0 -121 -53t-47 -136t47 -138t118 -55q74 0 128 62q37 45 37 132q0 48 -8 76t-28 53q-51 59 -126 59zM279 615l-74 -90h-53l104 130h49l104 -130h-54z" />
    <glyph glyph-name="Gbreve" unicode="&#x11e;" horiz-adv-x="722" 
d="M365 354h310v-41q0 -91 -35 -160q-41 -78 -112.5 -121.5t-159.5 -43.5q-140 0 -230.5 97t-90.5 246q0 154 90 251t233 97q145 0 239 -118l-42 -35q-40 43 -58 55q-61 46 -141 46q-112 0 -187.5 -84.5t-75.5 -209.5q0 -124 74 -208.5t184 -84.5q61 0 120 31.5t94 82.5
q40 59 43 149h-255v51zM215 829h52q26 -55 94 -55t93 55h52q-11 -46 -49.5 -72.5t-95.5 -26.5q-58 0 -96.5 26.5t-49.5 72.5z" />
    <glyph glyph-name="gbreve" unicode="&#x11f;" horiz-adv-x="560" 
d="M427 370v90h50v-482q0 -100 -58 -156.5t-161 -56.5q-126 0 -191 80l38 37q27 -29 44 -40q44 -28 112 -28q84 0 131 49q35 38 35 115v123q-31 -50 -59 -72q-50 -37 -115 -37q-89 0 -149.5 68t-60.5 169q0 55 19.5 105t53.5 82q52 52 140 52q54 0 94 -23t77 -75zM263 421
q-74 0 -121 -53t-47 -136t47 -138t118 -55q74 0 128 62q37 45 37 132q0 48 -8 76t-28 53q-51 59 -126 59zM141 632h49q24 -58 90 -58t91 58h49q-11 -46 -48 -72.5t-92 -26.5t-92 26.5t-47 72.5z" />
    <glyph glyph-name="Gdotaccent" unicode="&#x120;" horiz-adv-x="722" 
d="M365 354h310v-41q0 -91 -35 -160q-41 -78 -112.5 -121.5t-159.5 -43.5q-140 0 -230.5 97t-90.5 246q0 154 90 251t233 97q145 0 239 -118l-42 -35q-40 43 -58 55q-61 46 -141 46q-112 0 -187.5 -84.5t-75.5 -209.5q0 -124 74 -208.5t184 -84.5q61 0 120 31.5t94 82.5
q40 59 43 149h-255v51zM361 821q17 0 29 -12t12 -30q0 -17 -12 -29t-29 -12q-18 0 -30 12t-12 29q0 18 12 30t30 12z" />
    <glyph glyph-name="gdotaccent" unicode="&#x121;" horiz-adv-x="560" 
d="M427 370v90h50v-482q0 -100 -58 -156.5t-161 -56.5q-126 0 -191 80l38 37q27 -29 44 -40q44 -28 112 -28q84 0 131 49q35 38 35 115v123q-31 -50 -59 -72q-50 -37 -115 -37q-89 0 -149.5 68t-60.5 169q0 55 19.5 105t53.5 82q52 52 140 52q54 0 94 -23t77 -75zM263 421
q-74 0 -121 -53t-47 -136t47 -138t118 -55q74 0 128 62q37 45 37 132q0 48 -8 76t-28 53q-51 59 -126 59zM281 623q16 0 26 -10.5t10 -26.5t-10.5 -26t-25.5 -10q-16 0 -26.5 10t-10.5 26t10 26.5t27 10.5z" />
    <glyph glyph-name="Gcommaaccent" unicode="&#x122;" horiz-adv-x="722" 
d="M365 354h310v-41q0 -91 -35 -160q-41 -78 -112.5 -121.5t-159.5 -43.5q-140 0 -230.5 97t-90.5 246q0 154 90 251t233 97q145 0 239 -118l-42 -35q-40 43 -58 55q-61 46 -141 46q-112 0 -187.5 -84.5t-75.5 -209.5q0 -124 74 -208.5t184 -84.5q61 0 120 31.5t94 82.5
q40 59 43 149h-255v51zM383 -41v-73q0 -89 -59 -107v27q33 19 32 71h-20v82h47z" />
    <glyph glyph-name="gcommaaccent" unicode="&#x123;" horiz-adv-x="560" 
d="M427 370v90h50v-482q0 -100 -58 -156.5t-161 -56.5q-126 0 -191 80l38 37q27 -29 44 -40q44 -28 112 -28q84 0 131 49q35 38 35 115v123q-31 -50 -59 -72q-50 -37 -115 -37q-89 0 -149.5 68t-60.5 169q0 55 19.5 105t53.5 82q52 52 140 52q54 0 94 -23t77 -75zM263 421
q-74 0 -121 -53t-47 -136t47 -138t118 -55q74 0 128 62q37 45 37 132q0 48 -8 76t-28 53q-51 59 -126 59zM224 570l98 201l39 -18l-94 -206z" />
    <glyph glyph-name="Hcircumflex" unicode="&#x124;" horiz-adv-x="656" 
d="M147 306v-306h-57v667h57v-310h362v310h57v-667h-57v306h-362zM328 805l-73 -90h-55l107 132h46l102 -132h-53z" />
    <glyph glyph-name="Hbar" unicode="&#x126;" horiz-adv-x="655" 
d="M589 541h72v-35h-72v-506h-54v325h-416v-325h-53v506h-72v35h72v126h53v-126h416v126h54v-126zM119 506v-138h416v138h-416z" />
    <glyph glyph-name="hbar" unicode="&#x127;" horiz-adv-x="524" 
d="M114 582h155v-34h-155v-183q20 51 45 76q51 51 126 51q91 0 142 -67q32 -45 32 -121v-304h-50v295q0 69 -28 104q-40 51 -110 51q-73 0 -115 -54t-42 -146v-250h-50v548h-77v34h77v85h50v-85z" />
    <glyph glyph-name="Imacron" unicode="&#x12a;" horiz-adv-x="237" 
d="M147 667v-667h-57v667h57zM258 799v-44h-280v44h280z" />
    <glyph glyph-name="imacron" unicode="&#x12b;" horiz-adv-x="217" 
d="M133 460v-460h-50v460h50zM242 609v-41h-267v41h267z" />
    <glyph glyph-name="ibreve" unicode="&#x12d;" horiz-adv-x="217" 
d="M134 460v-460h-50v460h50zM-31 632h49q25 -58 91 -58t90 58h49q-10 -46 -47 -72.5t-92 -26.5t-92 26.5t-48 72.5z" />
    <glyph glyph-name="Iogonek" unicode="&#x12e;" horiz-adv-x="237" 
d="M147 667v-667h-57v667h57zM256 0h47q-39 -29 -54 -48.5t-15 -40.5q0 -23 16.5 -36.5t44.5 -13.5q17 0 38 7l10 -40q-27 -10 -53 -10q-44 0 -73.5 23t-29.5 58q0 59 69 101z" />
    <glyph glyph-name="iogonek" unicode="&#x12f;" horiz-adv-x="217" 
d="M134 460v-460h-50v460h50zM109 626q16 0 26.5 -11t10.5 -27q0 -15 -11 -26t-26 -11q-16 0 -27 11t-11 26q0 16 11 27t27 11zM100 0h47q-69 -46 -69 -90q0 -22 16.5 -35.5t44.5 -13.5q13 0 38 7l10 -40q-27 -10 -53 -10q-45 0 -74 23t-29 58q0 59 69 101z" />
    <glyph glyph-name="Idotaccent" unicode="&#x130;" horiz-adv-x="237" 
d="M147 667v-667h-57v667h57zM119 821q17 0 29 -12t12 -30q0 -17 -12 -29t-30 -12q-17 0 -29 12t-12 29q0 18 12 30t30 12z" />
    <glyph glyph-name="dotlessi" unicode="&#x131;" horiz-adv-x="217" 
d="M133 460v-460h-50v460h50z" />
    <glyph glyph-name="IJ" unicode="&#x132;" horiz-adv-x="605" 
d="M147 667v-667h-57v667h57zM528 667v-476q0 -126 -102 -171q-44 -20 -166 -20v48q25 -1 49 -1q78 0 117 36q25 22 35 57.5t10 103.5v372h-211v51h268z" />
    <glyph glyph-name="ij" unicode="&#x133;" horiz-adv-x="433" 
d="M133 460v-460h-50v460h50zM109 626q16 0 26.5 -11t10.5 -27q0 -15 -11 -26t-26 -11q-16 0 -27 11t-11 26q0 16 11 27t27 11zM350 460v-525q0 -80 -36 -122q-41 -47 -104 -47h-15v48h6q44 0 71.5 34t27.5 87v525h50zM326 626q16 0 26.5 -11t10.5 -27q0 -15 -11 -26
t-26 -11q-16 0 -27 11t-11 26q0 16 11 27t27 11z" />
    <glyph glyph-name="Kcommaaccent" unicode="&#x136;" horiz-adv-x="527" 
d="M147 313v-313h-57v667h57v-316l296 316h70l-310 -335l310 -332h-79zM286 -41v-73q0 -89 -59 -107v27q33 19 32 71h-20v82h47z" />
    <glyph glyph-name="kcommaaccent" unicode="&#x137;" horiz-adv-x="428" 
d="M133 213v-213h-50v667h50v-422l213 215h68l-229 -227l229 -233h-69zM235 -54v-56q0 -41 -13.5 -64.5t-48.5 -41.5v29l6 6q4 4 14 12q12 13 15 49h-20v66h47z" />
    <glyph glyph-name="kgreenlandic" unicode="&#x138;" horiz-adv-x="472" 
d="M460 481l-220 -199l240 -282h-60l-213 249l-93 -83v-166h-50v481h50v-260l284 260h62z" />
    <glyph glyph-name="Lacute" unicode="&#x139;" horiz-adv-x="415" 
d="M147 57h241v-57h-298v667h57v-610zM262 845h71l-112 -130h-45z" />
    <glyph glyph-name="lacute" unicode="&#x13a;" horiz-adv-x="217" 
d="M134 0h-50v667h50v-667zM163 845h71l-111 -130h-46z" />
    <glyph glyph-name="Lcommaaccent" unicode="&#x13b;" horiz-adv-x="415" 
d="M147 57h241v-57h-298v667h57v-610zM230 -41v-73q0 -91 -60 -107v27q34 18 33 71h-20v82h47z" />
    <glyph glyph-name="lcommaaccent" unicode="&#x13c;" horiz-adv-x="217" 
d="M134 0h-50v667h50v-667zM130 -54v-56q0 -41 -13.5 -64.5t-48.5 -41.5v29l6 6q4 4 14 12q12 13 15 49h-20v66h47z" />
    <glyph glyph-name="Lcaron" unicode="&#x13d;" horiz-adv-x="415" 
d="M147 57h241v-57h-298v667h57v-610zM406 658l-98 -201l-39 17l94 206z" />
    <glyph glyph-name="lcaron" unicode="&#x13e;" horiz-adv-x="430" 
d="M133 0h-50v667h50v-667zM388 658l-98 -201l-39 17l94 206z" />
    <glyph glyph-name="Ldot" unicode="&#x13f;" horiz-adv-x="415" 
d="M147 57h241v-57h-298v667h57v-610zM341 384q19 0 31.5 -13t12.5 -32q0 -18 -12.5 -30.5t-31.5 -12.5t-31.5 12.5t-12.5 31.5t12.5 31.5t31.5 12.5z" />
    <glyph glyph-name="ldot" unicode="&#x140;" horiz-adv-x="305" 
d="M133 0h-50v667h50v-667zM260 384q19 0 31.5 -13t12.5 -32q0 -18 -12.5 -30.5t-31.5 -12.5t-31.5 12.5t-12.5 31.5t12.5 31.5t31.5 12.5z" />
    <glyph glyph-name="Lslash" unicode="&#x141;" horiz-adv-x="415" 
d="M90 339v328h57v-295l120 91v-57l-120 -91v-258h242v-57h-299v282l-73 -56v57z" />
    <glyph glyph-name="lslash" unicode="&#x142;" horiz-adv-x="217" 
d="M83 372v295h50v-267l74 57v-53l-74 -56v-348h-50v320l-73 -56v52z" />
    <glyph glyph-name="Nacute" unicode="&#x143;" horiz-adv-x="679" 
d="M147 555v-555h-57v667h47l395 -547v547h57v-667h-43zM394 845h71l-112 -130h-45z" />
    <glyph glyph-name="nacute" unicode="&#x144;" horiz-adv-x="497" 
d="M83 460h50v-69q63 77 143 77q63 0 102 -36q39 -35 39 -112v-320h-50v298q0 68 -19 92q-24 31 -78 31q-60 0 -100 -42q-37 -38 -37 -97v-282h-50v460zM301 653h70l-110 -128h-42z" />
    <glyph glyph-name="Ncommaaccent" unicode="&#x145;" horiz-adv-x="679" 
d="M147 555v-555h-57v667h47l395 -547v547h57v-667h-43zM362 -41v-73q0 -91 -60 -107v27q34 18 33 71h-20v82h47z" />
    <glyph glyph-name="ncommaaccent" unicode="&#x146;" horiz-adv-x="497" 
d="M83 460h50v-69q63 77 143 77q63 0 102 -36q39 -35 39 -112v-320h-50v298q0 68 -19 92q-24 31 -78 31q-60 0 -100 -42q-37 -38 -37 -97v-282h-50v460zM270 -54v-56q0 -42 -14 -65.5t-49 -40.5v29l6 6q17 13 22.5 24t7.5 37h-20v66h47z" />
    <glyph glyph-name="Ncaron" unicode="&#x147;" horiz-adv-x="679" 
d="M147 555v-555h-57v667h47l395 -547v547h57v-667h-43zM339 757l73 90h55l-106 -132h-46l-103 132h53z" />
    <glyph glyph-name="ncaron" unicode="&#x148;" horiz-adv-x="497" 
d="M83 460h50v-69q63 77 143 77q63 0 102 -36q39 -35 39 -112v-320h-50v298q0 68 -19 92q-24 31 -78 31q-60 0 -100 -42q-37 -38 -37 -97v-282h-50v460zM249 565l74 90h53l-104 -130h-48l-104 130h54z" />
    <glyph glyph-name="napostrophe" unicode="&#x149;" horiz-adv-x="710" 
d="M172 658l-98 -201l-39 17l94 206zM297 460h50v-69q63 77 143 77q62 0 101 -36q39 -35 39 -112v-320h-50v298q0 68 -19 92q-24 31 -77 31q-58 0 -100 -42q-37 -38 -37 -97v-282h-50v460z" />
    <glyph glyph-name="Eng" unicode="&#x14a;" horiz-adv-x="645" 
d="M66 654h51v-160q20 60 51 97q68 79 185 79q115 0 181 -79q26 -32 35.5 -68t9.5 -100v-501q0 -55 -23 -73.5t-91 -18.5h-34v34h4q57 0 73.5 18t16.5 80v450q0 61 -10.5 95t-37.5 62q-53 53 -139 53q-59 0 -106.5 -26t-75.5 -74q-37 -63 -37 -182v-340h-53v654z" />
    <glyph glyph-name="eng" unicode="&#x14b;" horiz-adv-x="525" 
d="M64 478h47v-109q46 123 177 123q87 0 136 -57q21 -24 29 -52.5t8 -80.5v-378q0 -76 -54 -88q-23 -3 -58 -3h-32v29h3q54 0 72.5 14t18.5 57v360q0 62 -17 92q-16 30 -48 47t-72 17q-43 0 -79 -19.5t-55 -53.5q-27 -45 -27 -124v-252h-49v478z" />
    <glyph glyph-name="Omacron" unicode="&#x14c;" horiz-adv-x="731" 
d="M367 679q68 0 131.5 -31t110.5 -86q74 -87 74 -237q0 -167 -111 -259q-94 -78 -207 -78q-73 0 -141 34.5t-113 93.5q-64 84 -64 214q0 160 98 256q95 93 222 93zM366 627q-113 0 -187 -83t-74 -210q0 -128 73 -211t186 -83q114 0 192 86q31 36 50 91t19 112
q0 143 -80 222q-78 76 -179 76zM505 799v-44h-280v44h280z" />
    <glyph glyph-name="omacron" unicode="&#x14d;" horiz-adv-x="537" 
d="M270 468q107 0 174 -81q51 -63 51 -157q0 -100 -66 -169t-162 -69q-50 0 -96 21t-78 59q-50 59 -50 160q0 111 67 174q65 62 160 62zM270 421q-79 0 -127 -53t-48 -139q0 -85 48 -137.5t126 -52.5q76 0 125 54t49 137q0 91 -52 142q-51 49 -121 49zM402 609v-41h-267v41
h267z" />
    <glyph glyph-name="Ohungarumlaut" unicode="&#x150;" horiz-adv-x="731" 
d="M367 679q68 0 131.5 -31t110.5 -86q74 -87 74 -237q0 -167 -111 -259q-94 -78 -207 -78q-73 0 -141 34.5t-113 93.5q-64 84 -64 214q0 160 98 256q95 93 222 93zM366 627q-113 0 -187 -83t-74 -210q0 -128 73 -211t186 -83q114 0 192 86q31 36 50 91t19 112
q0 143 -80 222q-78 76 -179 76zM330 845h69l-91 -130h-44zM477 845h69l-91 -130h-44z" />
    <glyph glyph-name="ohungarumlaut" unicode="&#x151;" horiz-adv-x="537" 
d="M270 468q107 0 174 -81q51 -63 51 -157q0 -100 -66 -169t-162 -69q-50 0 -96 21t-78 59q-50 59 -50 160q0 111 67 174q65 62 160 62zM270 421q-79 0 -127 -53t-48 -139q0 -85 48 -137.5t126 -52.5q76 0 125 54t49 137q0 91 -52 142q-51 49 -121 49zM239 653h68l-90 -128
h-40zM373 653h68l-90 -128h-41z" />
    <glyph glyph-name="OE" unicode="&#x152;" horiz-adv-x="996" 
d="M667 312v-261h275v-51h-332v135q-24 -37 -41.5 -56.5t-44.5 -37.5q-76 -53 -167 -53q-62 0 -120.5 25.5t-102.5 71.5q-41 44 -64 111t-23 144q0 150 88.5 244.5t229.5 94.5q87 0 158 -45q28 -17 46 -36.5t41 -54.5v124h332v-51h-275v-253h275v-51h-275zM362 627
q-115 0 -186 -79.5t-71 -209.5q0 -129 71.5 -213.5t181.5 -84.5q52 0 101.5 23t84.5 63q31 34 49 89t18 112q0 137 -67.5 218.5t-181.5 81.5z" />
    <glyph glyph-name="oe" unicode="&#x153;" horiz-adv-x="931" 
d="M831 130l38 -21q-29 -48 -61 -72q-63 -45 -136 -45q-82 0 -145 53q-19 16 -30.5 33.5t-25.5 51.5q-24 -58 -59 -88q-61 -50 -144 -50q-98 0 -161.5 66.5t-63.5 169.5q0 106 63 173t163 67q79 0 140 -47q39 -30 62 -84q28 61 69 89q59 42 133 42q80 0 140 -50.5t76 -130.5
q6 -28 6 -78h-399q7 -66 36 -102q24 -31 62 -49.5t76 -18.5q62 0 110 35q23 16 51 56zM497 256h347q-5 59 -28 92q-23 34 -62 53.5t-84 19.5q-81 0 -135 -63q-33 -41 -38 -102zM271 421q-78 0 -127 -53t-49 -137q0 -85 49 -138.5t127 -53.5q77 0 126.5 54t49.5 137
q0 84 -49.5 137.5t-126.5 53.5z" />
    <glyph glyph-name="Racute" unicode="&#x154;" horiz-adv-x="548" 
d="M147 288v-288h-57v667h171q98 0 155.5 -51t57.5 -137q0 -61 -30 -107.5t-84 -68.5q-39 -16 -113 -16q-13 0 -23 1l299 -288h-78zM147 332h96q84 0 128.5 37t44.5 107q0 140 -159 140h-110v-284zM328 845h71l-111 -130h-46z" />
    <glyph glyph-name="racute" unicode="&#x155;" horiz-adv-x="309" 
d="M83 460h50v-83q18 41 43 61q38 30 93 30h20v-49h-17q-58 -1 -94 -40q-45 -49 -45 -139v-240h-50v460zM207 653h70l-110 -128h-42z" />
    <glyph glyph-name="Rcommaaccent" unicode="&#x156;" horiz-adv-x="548" 
d="M147 288v-288h-57v667h171q98 0 155.5 -51t57.5 -137q0 -61 -30 -107.5t-84 -68.5q-39 -16 -113 -16q-13 0 -23 1l299 -288h-78zM147 332h96q84 0 128.5 37t44.5 107q0 140 -159 140h-110v-284zM296 -41v-73q0 -89 -59 -107v27q33 19 32 71h-20v82h47z" />
    <glyph glyph-name="rcommaaccent" unicode="&#x157;" horiz-adv-x="309" 
d="M83 460h50v-83q18 41 43 61q38 30 93 30h20v-49h-17q-58 -1 -94 -40q-45 -49 -45 -139v-240h-50v460zM207 -54v-56q0 -41 -13.5 -64.5t-48.5 -41.5v29l6 6q4 4 14 12q12 13 15 49h-20v66h47z" />
    <glyph glyph-name="Rcaron" unicode="&#x158;" horiz-adv-x="548" 
d="M147 288v-288h-57v667h171q98 0 155.5 -51t57.5 -137q0 -61 -30 -107.5t-84 -68.5q-39 -16 -113 -16q-13 0 -23 1l299 -288h-78zM147 332h96q84 0 128.5 37t44.5 107q0 140 -159 140h-110v-284zM274 757l73 90h54l-106 -132h-46l-103 132h54z" />
    <glyph glyph-name="rcaron" unicode="&#x159;" horiz-adv-x="309" 
d="M83 460h50v-83q18 41 43 61q38 30 93 30h20v-49h-17q-58 -1 -94 -40q-45 -49 -45 -139v-240h-50v460zM156 565l73 90h54l-105 -130h-48l-104 130h54z" />
    <glyph glyph-name="Sacute" unicode="&#x15a;" horiz-adv-x="474" 
d="M41 170h53q3 -47 19 -76q32 -55 112 -55q67 0 108 37.5t41 98.5q0 50 -32 79t-117 56q-61 20 -85 32t-45 31q-51 46 -51 123q0 81 52.5 132t135.5 51q84 0 134 -50t50 -134h-55q-1 51 -18 78q-34 55 -112 55q-56 0 -93 -36.5t-37 -92.5t37 -85q24 -20 122 -54
q95 -34 128 -71q41 -47 41 -114q0 -82 -55.5 -134.5t-143.5 -52.5q-98 0 -145 54q-44 49 -44 112v16zM291 845h71l-111 -130h-46z" />
    <glyph glyph-name="sacute" unicode="&#x15b;" horiz-adv-x="407" 
d="M356 339h-52q0 40 -27 61.5t-76 21.5q-46 0 -73.5 -21t-27.5 -56q0 -36 22.5 -54t86.5 -34q84 -20 115 -53q36 -36 36 -87q0 -56 -43 -90.5t-114 -34.5q-150 0 -165 136h51q3 -43 33.5 -67t82.5 -24q46 0 74.5 22t28.5 58q0 35 -26 55.5t-89 35.5q-74 18 -106 47
q-39 34 -39 87q0 56 43 91t111 35q70 0 110.5 -34t43.5 -95zM256 653h70l-110 -128h-42z" />
    <glyph glyph-name="Scircumflex" unicode="&#x15c;" horiz-adv-x="474" 
d="M41 170h53q3 -47 19 -76q32 -55 112 -55q67 0 108 37.5t41 98.5q0 50 -32 79t-117 56q-61 20 -85 32t-45 31q-51 46 -51 123q0 81 52.5 132t135.5 51q84 0 134 -50t50 -134h-55q-1 51 -18 78q-34 55 -112 55q-56 0 -93 -36.5t-37 -92.5t37 -85q24 -20 122 -54
q95 -34 128 -71q41 -47 41 -114q0 -82 -55.5 -134.5t-143.5 -52.5q-98 0 -145 54q-44 49 -44 112v16zM237 805l-73 -90h-55l107 132h46l102 -132h-53z" />
    <glyph glyph-name="scircumflex" unicode="&#x15d;" horiz-adv-x="407" 
d="M356 339h-52q0 40 -27 61.5t-76 21.5q-46 0 -73.5 -21t-27.5 -56q0 -36 22.5 -54t86.5 -34q84 -20 115 -53q36 -36 36 -87q0 -56 -43 -90.5t-114 -34.5q-150 0 -165 136h51q3 -43 33.5 -67t82.5 -24q46 0 74.5 22t28.5 58q0 35 -26 55.5t-89 35.5q-74 18 -106 47
q-39 34 -39 87q0 56 43 91t111 35q70 0 110.5 -34t43.5 -95zM202 615l-74 -90h-53l104 130h49l104 -130h-54z" />
    <glyph glyph-name="Scedilla" unicode="&#x15e;" horiz-adv-x="585" 
d="M301 -15l-30 -40q21 5 38 5q32 0 52.5 -17t20.5 -45q0 -32 -27 -53t-70 -21q-46 0 -96 22l10 23q44 -20 81 -20q28 0 46.5 13t18.5 33q0 19 -14.5 30t-37.5 11q-21 0 -48 -11l-16 14l42 57q-98 4 -158 47q-39 27 -62 74.5t-23 102.5v11h53q3 -84 40 -129q52 -64 171 -64
q93 0 145.5 39t52.5 108q0 65 -48 95q-31 18 -152 48q-92 24 -123.5 34.5t-58.5 28.5q-60 41 -60 123t61.5 129.5t167.5 47.5q118 0 181.5 -52t68.5 -152h-51q-10 161 -200 161q-82 0 -129 -35t-47 -97q0 -74 67 -103q32 -14 161 -46q110 -26 147 -49q68 -41 68 -130
q0 -88 -63 -138.5t-179 -54.5z" />
    <glyph glyph-name="scedilla" unicode="&#x15f;" horiz-adv-x="450" 
d="M239 -13l-30 -41q21 5 38 5q31 0 51 -17t20 -43q0 -32 -27 -52.5t-69 -20.5q-44 0 -92 21l10 23q41 -20 79 -20q27 0 45 13t18 33q0 18 -14 29t-37 11q-20 0 -46 -11l-16 13l42 57q-87 5 -135 51.5t-47 125.5h48q3 -57 22 -85q38 -57 129 -57q64 0 103 29t39 76
q0 40 -30.5 61t-114.5 40q-95 22 -127 40q-53 31 -53 93t47 96.5t130 34.5q102 0 150 -54q30 -34 34 -99h-47q-5 62 -38 90.5t-101 28.5q-59 0 -92.5 -24.5t-33.5 -68.5q0 -31 16 -47q15 -17 40.5 -27t93.5 -25q78 -17 115 -36q60 -32 60 -102q0 -61 -48.5 -99t-131.5 -42z
" />
    <glyph glyph-name="Scaron" unicode="&#x160;" horiz-adv-x="474" 
d="M41 170h53q3 -47 19 -76q32 -55 112 -55q67 0 108 37.5t41 98.5q0 50 -32 79t-117 56q-61 20 -85 32t-45 31q-51 46 -51 123q0 81 52.5 132t135.5 51q84 0 134 -50t50 -134h-55q-1 51 -18 78q-34 55 -112 55q-56 0 -93 -36.5t-37 -92.5t37 -85q24 -20 122 -54
q95 -34 128 -71q41 -47 41 -114q0 -82 -55.5 -134.5t-143.5 -52.5q-98 0 -145 54q-44 49 -44 112v16zM237 757l73 90h54l-106 -132h-46l-103 132h54z" />
    <glyph glyph-name="scaron" unicode="&#x161;" horiz-adv-x="407" 
d="M356 339h-52q0 40 -27 61.5t-76 21.5q-46 0 -73.5 -21t-27.5 -56q0 -36 22.5 -54t86.5 -34q84 -20 115 -53q36 -36 36 -87q0 -56 -43 -90.5t-114 -34.5q-150 0 -165 136h51q3 -43 33.5 -67t82.5 -24q46 0 74.5 22t28.5 58q0 35 -26 55.5t-89 35.5q-74 18 -106 47
q-39 34 -39 87q0 56 43 91t111 35q70 0 110.5 -34t43.5 -95zM205 565l74 90h53l-105 -130h-48l-104 130h54z" />
    <glyph glyph-name="Tcommaaccent" unicode="&#x162;" horiz-adv-x="434" 
d="M245 616v-616h-57v616h-175v51h407v-51h-175zM239 -41v-73q0 -91 -60 -107v27q34 18 33 71h-20v82h47z" />
    <glyph glyph-name="tcommaaccent" unicode="&#x163;" horiz-adv-x="247" 
d="M137 413v-341q0 -17 6.5 -22t26.5 -5h42v-45h-54q-38 0 -54.5 14.5t-16.5 48.5v350h-70v47h70v155h50v-155h75v-47h-75zM145 -54v-56q0 -41 -13.5 -64.5t-48.5 -41.5v29l6 6q4 4 14 12q12 13 15 49h-20v66h47z" />
    <glyph glyph-name="Tcaron" unicode="&#x164;" horiz-adv-x="434" 
d="M245 616v-616h-57v616h-175v51h407v-51h-175zM216 757l73 90h55l-106 -132h-46l-103 132h53z" />
    <glyph glyph-name="tcaron" unicode="&#x165;" horiz-adv-x="460" 
d="M137 413v-341q0 -17 6.5 -22t26.5 -5h42v-45h-54q-38 0 -54.5 14.5t-16.5 48.5v350h-70v47h70v155h50v-155h75v-47h-75zM418 658l-97 -201l-40 17l94 206z" />
    <glyph glyph-name="Tbar" unicode="&#x166;" horiz-adv-x="495" 
d="M274 403h193v-40h-193v-363h-53v363h-193v40h193v218h-232v46h517v-46h-232v-218z" />
    <glyph glyph-name="tbar" unicode="&#x167;" horiz-adv-x="258" 
d="M140 347h82v-34h-82v-182q0 -51 8 -67q14 -27 56 -27q12 0 40 4v-40q-31 -4 -50 -4q-65 0 -89 37q-15 24 -15 92v187h-69v34h69v97h-89v37h89v150h50v-150h104v-37h-104v-97z" />
    <glyph glyph-name="utilde" unicode="&#x169;" horiz-adv-x="470" 
d="M352 460h50v-297q0 -45 -9.5 -72.5t-33.5 -49.5q-51 -49 -123 -49q-76 0 -122 47t-46 124v297h50v-297q0 -56 32.5 -90t84.5 -34q57 0 92 38q25 28 25 86v297zM359 631l34 -25q-45 -69 -90 -69q-14 0 -28 6.5t-56 32.5q-23 15 -38 15q-31 0 -56 -42l-35 30q46 61 91 61
q19 0 34.5 -7.5t58.5 -36.5q17 -11 30 -11q29 0 55 46z" />
    <glyph glyph-name="Umacron" unicode="&#x16a;" horiz-adv-x="635" 
d="M134 667v-400q0 -73 11.5 -113t40.5 -66q23 -21 59.5 -34.5t69.5 -13.5q73 0 130 50q32 30 43 66t11 114v397h60v-400q0 -76 -12 -119.5t-44 -80.5q-68 -79 -185 -79q-120 0 -190 84q-30 36 -40.5 76t-10.5 119v400h57zM458 799v-44h-280v44h280z" />
    <glyph glyph-name="umacron" unicode="&#x16b;" horiz-adv-x="470" 
d="M352 460h50v-297q0 -45 -9.5 -72.5t-33.5 -49.5q-51 -49 -123 -49q-76 0 -122 47t-46 124v297h50v-297q0 -56 32.5 -90t84.5 -34q57 0 92 38q25 28 25 86v297zM368 609v-41h-267v41h267z" />
    <glyph glyph-name="ubreve" unicode="&#x16d;" horiz-adv-x="470" 
d="M352 460h50v-297q0 -45 -9.5 -72.5t-33.5 -49.5q-51 -49 -123 -49q-76 0 -122 47t-46 124v297h50v-297q0 -56 32.5 -90t84.5 -34q57 0 92 38q25 28 25 86v297zM95 632h50q24 -58 90 -58t90 58h49q-10 -46 -47 -72.5t-92 -26.5t-92 26.5t-48 72.5z" />
    <glyph glyph-name="Uring" unicode="&#x16e;" horiz-adv-x="635" 
d="M134 667v-400q0 -73 11.5 -113t40.5 -66q23 -21 59.5 -34.5t69.5 -13.5q73 0 130 50q32 30 43 66t11 114v397h60v-400q0 -76 -12 -119.5t-44 -80.5q-68 -79 -185 -79q-120 0 -190 84q-30 36 -40.5 76t-10.5 119v400h57zM319 857q31 0 52 -21.5t21 -53.5q0 -30 -21.5 -51
t-51.5 -21q-31 0 -52.5 21t-21.5 53q0 31 21.5 52t52.5 21zM319 832q-21 0 -35 -13.5t-14 -34.5t14 -35t35 -14q20 0 34 14t14 34q0 21 -13.5 35t-34.5 14z" />
    <glyph glyph-name="uring" unicode="&#x16f;" horiz-adv-x="470" 
d="M352 460h50v-297q0 -45 -9.5 -72.5t-33.5 -49.5q-51 -49 -123 -49q-76 0 -122 47t-46 124v297h50v-297q0 -56 32.5 -90t84.5 -34q57 0 92 38q25 28 25 86v297zM235 667q31 0 52 -21.5t21 -53.5q0 -30 -21.5 -51t-51.5 -21q-31 0 -52.5 21t-21.5 53q0 31 21.5 52t52.5 21z
M235 642q-21 0 -35 -13.5t-14 -34.5t14 -35t35 -14q20 0 34 14t14 34q0 21 -13.5 35t-34.5 14z" />
    <glyph glyph-name="Uhungarumlaut" unicode="&#x170;" horiz-adv-x="635" 
d="M134 667v-400q0 -73 11.5 -113t40.5 -66q23 -21 59.5 -34.5t69.5 -13.5q73 0 130 50q32 30 43 66t11 114v397h60v-400q0 -76 -12 -119.5t-44 -80.5q-68 -79 -185 -79q-120 0 -190 84q-30 36 -40.5 76t-10.5 119v400h57zM283 845h69l-91 -130h-44zM430 845h69l-91 -130
h-44z" />
    <glyph glyph-name="uhungarumlaut" unicode="&#x171;" horiz-adv-x="470" 
d="M352 460h50v-297q0 -45 -9.5 -72.5t-33.5 -49.5q-51 -49 -123 -49q-76 0 -122 47t-46 124v297h50v-297q0 -56 32.5 -90t84.5 -34q57 0 92 38q25 28 25 86v297zM205 653h68l-90 -128h-40zM339 653h68l-90 -128h-41z" />
    <glyph glyph-name="Uogonek" unicode="&#x172;" horiz-adv-x="635" 
d="M134 667v-400q0 -73 11.5 -113t40.5 -66q23 -21 59.5 -34.5t69.5 -13.5q73 0 130 50q32 30 43 66t11 114v397h60v-400q0 -76 -12 -119.5t-44 -80.5q-68 -79 -185 -79q-120 0 -190 84q-30 36 -40.5 76t-10.5 119v400h57zM456 0h47q-39 -29 -54 -48.5t-15 -40.5
q0 -23 16.5 -36.5t43.5 -13.5q17 0 39 7l9 -40q-28 -10 -52 -10q-45 0 -74 23t-29 58q0 59 69 101z" />
    <glyph glyph-name="uogonek" unicode="&#x173;" horiz-adv-x="470" 
d="M352 460h50v-297q0 -45 -9.5 -72.5t-33.5 -49.5q-51 -49 -123 -49q-76 0 -122 47t-46 124v297h50v-297q0 -56 32.5 -90t84.5 -34q57 0 92 38q25 28 25 86v297zM226 0h47q-69 -46 -69 -90q0 -22 16.5 -35.5t44.5 -13.5q13 0 38 7l10 -40q-28 -10 -53 -10q-45 0 -74 23
t-29 58q0 59 69 101z" />
    <glyph glyph-name="Wcircumflex" unicode="&#x174;" horiz-adv-x="862" 
d="M623 110l175 557h58l-212 -667h-41l-170 569l-169 -569h-42l-215 667h60l176 -557l167 557h50zM432 805l-73 -90h-55l107 132h45l103 -132h-53z" />
    <glyph glyph-name="Ycircumflex" unicode="&#x176;" horiz-adv-x="515" 
d="M288 293v-293h-57v293l-234 374h67l194 -314l193 314h67zM258 805l-73 -90h-55l107 132h45l103 -132h-53z" />
    <glyph glyph-name="ycircumflex" unicode="&#x177;" horiz-adv-x="422" 
d="M202 84l154 376h56l-283 -688h-55l101 245l-165 443h53zM210 615l-74 -90h-53l104 130h48l104 -130h-54z" />
    <glyph glyph-name="Ydieresis" unicode="&#x178;" horiz-adv-x="515" 
d="M288 293v-293h-57v293l-234 374h67l194 -314l193 314h67zM159 821q17 0 29 -12t12 -30q0 -17 -12 -29t-29 -12q-18 0 -30 12t-12 29q0 18 12 30t30 12zM358 821q17 0 29 -12t12 -30q0 -17 -12 -29t-29 -12q-18 0 -30 12t-12 29q0 18 12 30t30 12z" />
    <glyph glyph-name="Zacute" unicode="&#x179;" horiz-adv-x="532" 
d="M112 51h369v-51h-468l412 616h-367v51h467zM320 845h71l-111 -130h-46z" />
    <glyph glyph-name="zacute" unicode="&#x17a;" horiz-adv-x="391" 
d="M116 47h229v-47h-320l263 413h-233v47h321zM248 653h70l-110 -128h-42z" />
    <glyph glyph-name="Zdotaccent" unicode="&#x17b;" horiz-adv-x="532" 
d="M112 51h369v-51h-468l412 616h-367v51h467zM267 821q17 0 29 -12t12 -30q0 -17 -12 -29t-29 -12q-18 0 -30 12t-12 29q0 18 12 30t30 12z" />
    <glyph glyph-name="zdotaccent" unicode="&#x17c;" horiz-adv-x="391" 
d="M116 47h229v-47h-320l263 413h-233v47h321zM196 623q16 0 26 -10.5t10 -26.5t-10.5 -26t-25.5 -10q-16 0 -26.5 10t-10.5 26t10.5 26.5t26.5 10.5z" />
    <glyph glyph-name="Zcaron" unicode="&#x17d;" horiz-adv-x="532" 
d="M112 51h369v-51h-468l412 616h-367v51h467zM266 757l73 90h54l-106 -132h-46l-103 132h54z" />
    <glyph glyph-name="zcaron" unicode="&#x17e;" horiz-adv-x="391" 
d="M116 47h229v-47h-320l263 413h-233v47h321zM197 565l73 90h54l-105 -130h-48l-104 130h54z" />
    <glyph glyph-name="florin" unicode="&#x192;" 
d="M246 417h-69l7 43h70l24 137q10 60 45 92q39 34 87 34q10 0 18 -1l-8 -42q-46 -5 -64.5 -21.5t-27.5 -61.5l-24 -137h77l-7 -43h-78l-67 -381q-10 -74 -54 -120t-109 -49l8 47q39 2 66 34t38 86z" />
    <glyph glyph-name="uni01CD" unicode="&#x1cd;" horiz-adv-x="592" 
d="M457 175h-322l-71 -175h-57l262 667h62l254 -667h-63zM437 227l-139 364l-142 -364h281zM296 757l73 90h55l-107 -132h-45l-103 132h53z" />
    <glyph glyph-name="uni01CE" unicode="&#x1ce;" horiz-adv-x="561" 
d="M428 375v85h50v-460h-50v102q-67 -110 -172 -110q-93 0 -153 67t-60 171t59.5 171t152.5 67q108 0 173 -93zM259 421q-80 0 -123 -59q-41 -57 -41 -135q0 -81 46 -134.5t115 -53.5q72 0 122.5 58t50.5 140t-47 133t-123 51zM282 565l74 90h53l-104 -130h-49l-104 130h54z
" />
    <glyph glyph-name="uni01D3" unicode="&#x1d3;" horiz-adv-x="635" 
d="M134 667v-400q0 -73 11.5 -113t40.5 -66q23 -21 59.5 -34.5t69.5 -13.5q73 0 130 50q32 30 43 66t11 114v397h60v-400q0 -76 -12 -119.5t-44 -80.5q-68 -79 -185 -79q-120 0 -190 84q-30 36 -40.5 76t-10.5 119v400h57zM318 757l73 90h55l-107 -132h-46l-102 132h53z" />
    <glyph glyph-name="Gcaron" unicode="&#x1e6;" horiz-adv-x="722" 
d="M365 354h310v-41q0 -91 -35 -160q-41 -78 -112.5 -121.5t-159.5 -43.5q-140 0 -230.5 97t-90.5 246q0 154 90 251t233 97q145 0 239 -118l-42 -35q-40 43 -58 55q-61 46 -141 46q-112 0 -187.5 -84.5t-75.5 -209.5q0 -124 74 -208.5t184 -84.5q61 0 120 31.5t94 82.5
q40 59 43 149h-255v51zM360 757l74 90h54l-106 -132h-46l-103 132h53z" />
    <glyph glyph-name="gcaron" unicode="&#x1e7;" horiz-adv-x="560" 
d="M427 370v90h50v-482q0 -100 -58 -156.5t-161 -56.5q-126 0 -191 80l38 37q27 -29 44 -40q44 -28 112 -28q84 0 131 49q35 38 35 115v123q-31 -50 -59 -72q-50 -37 -115 -37q-89 0 -149.5 68t-60.5 169q0 55 19.5 105t53.5 82q52 52 140 52q54 0 94 -23t77 -75zM263 421
q-74 0 -121 -53t-47 -136t47 -138t118 -55q74 0 128 62q37 45 37 132q0 48 -8 76t-28 53q-51 59 -126 59zM282 565l73 90h54l-105 -130h-48l-104 130h54z" />
    <glyph glyph-name="uni01F4" unicode="&#x1f4;" horiz-adv-x="722" 
d="M365 354h310v-41q0 -91 -35 -160q-41 -78 -112.5 -121.5t-159.5 -43.5q-140 0 -230.5 97t-90.5 246q0 154 90 251t233 97q145 0 239 -118l-42 -35q-40 43 -58 55q-61 46 -141 46q-112 0 -187.5 -84.5t-75.5 -209.5q0 -124 74 -208.5t184 -84.5q61 0 120 31.5t94 82.5
q40 59 43 149h-255v51zM415 845h71l-111 -130h-46z" />
    <glyph glyph-name="scommaaccent" unicode="&#x219;" horiz-adv-x="407" 
d="M356 339h-52q0 40 -27 61.5t-76 21.5q-46 0 -73.5 -21t-27.5 -56q0 -36 22.5 -54t86.5 -34q84 -20 115 -53q36 -36 36 -87q0 -56 -43 -90.5t-114 -34.5q-150 0 -165 136h51q3 -43 33.5 -67t82.5 -24q46 0 74.5 22t28.5 58q0 35 -26 55.5t-89 35.5q-74 18 -106 47
q-39 34 -39 87q0 56 43 91t111 35q70 0 110.5 -34t43.5 -95zM225 -54v-56q0 -41 -13.5 -64.5t-48.5 -41.5v29l6 6q4 4 14 12q12 13 15 49h-20v66h47z" />
    <glyph glyph-name="uni021A" unicode="&#x21a;" horiz-adv-x="434" 
d="M245 616v-616h-57v616h-175v51h407v-51h-175zM239 -41v-73q0 -91 -60 -107v27q34 18 33 71h-20v82h47z" />
    <glyph glyph-name="uni021B" unicode="&#x21b;" horiz-adv-x="247" 
d="M137 413v-341q0 -17 6.5 -22t26.5 -5h42v-45h-54q-38 0 -54.5 14.5t-16.5 48.5v350h-70v47h70v155h50v-155h75v-47h-75zM145 -54v-56q0 -41 -13.5 -64.5t-48.5 -41.5v29l6 6q4 4 14 12q12 13 15 49h-20v66h47z" />
    <glyph glyph-name="afii57929" unicode="&#x2bc;" horiz-adv-x="213" 
d="M172 658l-98 -201l-39 17l94 206z" />
    <glyph glyph-name="circumflex" unicode="&#x2c6;" 
d="M249 615l-74 -90h-53l104 130h49l104 -130h-54z" />
    <glyph glyph-name="caron" unicode="&#x2c7;" 
d="M252 565l73 90h54l-105 -130h-48l-104 130h54z" />
    <glyph glyph-name="uni02C9" unicode="&#x2c9;" 
d="M384 609v-41h-267v41h267z" />
    <glyph glyph-name="breve" unicode="&#x2d8;" 
d="M110 632h49q25 -58 91 -58t90 58h49q-10 -46 -47 -72.5t-92 -26.5t-92 26.5t-48 72.5z" />
    <glyph glyph-name="dotaccent" unicode="&#x2d9;" 
d="M250 623q16 0 26 -10.5t10 -26.5t-10.5 -26t-25.5 -10q-16 0 -26.5 10t-10.5 26t10.5 26.5t26.5 10.5z" />
    <glyph glyph-name="ring" unicode="&#x2da;" 
d="M251 667q31 0 52 -21.5t21 -53.5q0 -30 -21.5 -51t-51.5 -21q-31 0 -52.5 21t-21.5 53q0 31 21.5 52t52.5 21zM251 642q-21 0 -35 -13.5t-14 -34.5t14 -35t35 -14q20 0 34 14t14 34q0 21 -13.5 35t-34.5 14z" />
    <glyph glyph-name="ogonek" unicode="&#x2db;" 
d="M241 0h47q-69 -46 -69 -90q0 -22 16.5 -35.5t44.5 -13.5q13 0 38 7l10 -40q-28 -10 -53 -10q-45 0 -74 23t-29 58q0 59 69 101z" />
    <glyph glyph-name="tilde" unicode="&#x2dc;" 
d="M373 631l35 -25q-46 -69 -90 -69q-15 0 -29 6.5t-55 32.5q-23 15 -39 15q-30 0 -55 -42l-35 30q46 61 90 61q20 0 35 -7t59 -37q17 -11 29 -11q31 0 55 46z" />
    <glyph glyph-name="hungarumlaut" unicode="&#x2dd;" 
d="M220 653h68l-90 -128h-40zM354 653h67l-90 -128h-40z" />
    <glyph glyph-name="uni0387" unicode="&#x387;" horiz-adv-x="215" 
d="M108 283q18 0 29.5 -12t11.5 -30q0 -17 -12 -28.5t-29 -11.5t-29 12t-12 29q0 18 12 29.5t29 11.5z" />
    <glyph glyph-name="Wacute" unicode="&#x1e82;" horiz-adv-x="267" 
d="M233 265v-47h-200v47h200z" />
    <glyph glyph-name="Wdieresis" unicode="&#x1e84;" horiz-adv-x="862" 
d="M623 110l175 557h58l-212 -667h-41l-170 569l-169 -569h-42l-215 667h60l176 -557l167 557h50zM332 821q17 0 29 -12t12 -30q0 -17 -12 -29t-29 -12q-18 0 -30 12t-12 29q0 18 12 30t30 12zM532 821q17 0 29 -12t12 -30q0 -17 -12 -29t-29 -12q-18 0 -30 12t-12 29
q0 18 12 30t30 12z" />
    <glyph glyph-name="uni2006" unicode="&#x2006;" horiz-adv-x="67" 
 />
    <glyph glyph-name="uni2007" unicode="&#x2007;" horiz-adv-x="556" 
 />
    <glyph glyph-name="uni2011" unicode="&#x2011;" horiz-adv-x="200" 
d="M200 265v-47h-200v47h200z" />
    <glyph glyph-name="figuredash" unicode="&#x2012;" 
d="M416 265v-47h-333v47h333z" />
    <glyph glyph-name="endash" unicode="&#x2013;" 
d="M416 265v-47h-333v47h333z" />
    <glyph glyph-name="emdash" unicode="&#x2014;" horiz-adv-x="598" 
d="M598 265v-47h-598v47h598z" />
    <glyph glyph-name="afii00208" unicode="&#x2015;" horiz-adv-x="598" 
d="M598 265v-47h-598v47h598z" />
    <glyph glyph-name="underscoredbl" unicode="&#x2017;" 
d="M0 -62h500v-29h-500v29zM0 -178h500v-30h-500v30z" />
    <glyph glyph-name="quoteleft" unicode="&#x2018;" horiz-adv-x="213" 
d="M41 479l98 201l39 -18l-93 -205z" />
    <glyph glyph-name="quoteright" unicode="&#x2019;" horiz-adv-x="213" 
d="M172 658l-98 -201l-39 17l94 206z" />
    <glyph glyph-name="quotesinglbase" unicode="&#x201a;" horiz-adv-x="213" 
d="M172 60l-98 -201l-39 18l94 206z" />
    <glyph glyph-name="quotedblleft" unicode="&#x201c;" horiz-adv-x="386" 
d="M208 444l109 236l38 -18l-100 -239zM41 444l108 236l39 -18l-101 -240z" />
    <glyph glyph-name="quotedblright" unicode="&#x201d;" horiz-adv-x="386" 
d="M177 659l-108 -237l-38 18l100 239zM345 659l-109 -237l-39 18l101 240z" />
    <glyph glyph-name="quotedblbase" unicode="&#x201e;" horiz-adv-x="386" 
d="M177 62l-108 -237l-38 18l100 239zM345 62l-109 -237l-39 18l101 240z" />
    <glyph glyph-name="dagger" unicode="&#x2020;" 
d="M227 667h47v-180h146v-43h-146v-664h-47v664h-147v43h147v180z" />
    <glyph glyph-name="daggerdbl" unicode="&#x2021;" 
d="M227 667h47v-180h146v-43h-146v-441h146v-43h-146v-180h-47v180h-147v43h147v441h-147v43h147v180z" />
    <glyph glyph-name="bullet" unicode="&#x2022;" horiz-adv-x="667" 
d="M337 477q55 0 95.5 -41t40.5 -97q0 -58 -40.5 -98.5t-97.5 -40.5t-98 40.5t-41 97.5q0 58 41 98.5t100 40.5z" />
    <glyph glyph-name="ellipsis" unicode="&#x2026;" horiz-adv-x="645" 
d="M108 77q18 0 29.5 -12t11.5 -30q0 -17 -12 -28.5t-29 -11.5t-29 12t-12 29q0 18 12 29.5t29 11.5zM323 77q18 0 29.5 -12t11.5 -30q0 -17 -12 -28.5t-29 -11.5t-29 12t-12 29q0 18 12 29.5t29 11.5zM538 77q18 0 29.5 -12t11.5 -30q0 -17 -12 -28.5t-29 -11.5t-29 12
t-12 29q0 18 12 29.5t29 11.5z" />
    <glyph glyph-name="perthousand" unicode="&#x2030;" horiz-adv-x="836" 
d="M238 549v-110q0 -45 -14 -67q-23 -36 -80 -36q-49 0 -74 31q-13 15 -15.5 25.5t-2.5 47.5v109q0 66 22 89q26 28 72 28q43 0 69 -26q16 -15 19.5 -29.5t3.5 -61.5zM85 548v-93q0 -33 1.5 -43t8.5 -19q16 -23 50 -23q36 0 52 26q8 15 8 54v109q0 73 -58 73q-34 0 -50 -19
q-8 -10 -10 -20.5t-2 -44.5zM524 213v-110q0 -45 -14 -67q-23 -36 -80 -36q-49 0 -74 31q-13 15 -15.5 25.5t-2.5 47.5v109q0 66 22 89q26 28 72 28q43 0 69 -26q16 -15 19.5 -29.5t3.5 -61.5zM371 212v-93q0 -33 1.5 -43t8.5 -19q16 -23 50 -23q36 0 52 26q8 15 8 54v109
q0 73 -58 73q-34 0 -50 -19q-8 -10 -10 -20.5t-2 -44.5zM536 653l-467 -659l-29 21l466 658zM784 213v-110q0 -45 -14 -67q-23 -36 -80 -36q-49 0 -74 31q-13 15 -15.5 25.5t-2.5 47.5v109q0 66 22 89q26 28 72 28q43 0 69 -26q16 -15 19.5 -29.5t3.5 -61.5zM631 212v-93
q0 -33 1.5 -43t8.5 -19q16 -23 50 -23q36 0 52 26q8 15 8 54v109q0 73 -58 73q-34 0 -50 -19q-8 -10 -10 -20.5t-2 -44.5z" />
    <glyph glyph-name="guilsinglleft" unicode="&#x2039;" horiz-adv-x="252" 
d="M95 234l104 -165h-48l-104 165l104 172h48z" />
    <glyph glyph-name="guilsinglright" unicode="&#x203a;" horiz-adv-x="252" 
d="M157 241l-104 165h48l104 -165l-104 -172h-48z" />
    <glyph glyph-name="exclamdbl" unicode="&#x203c;" horiz-adv-x="375" 
d="M119 667v-178l-10 -309h-32l-10 309v178h52zM120 106v-106h-54v106h54zM309 667v-178l-10 -309h-32l-10 309v178h52zM309 106v-106h-54v106h54z" />
    <glyph glyph-name="uni203E" unicode="&#x203e;" 
d="M0 845h500v-36h-500v36z" />
    <glyph glyph-name="fraction" unicode="&#x2044;" horiz-adv-x="122" 
d="M309 646l-467 -659l-29 21l466 659z" />
    <glyph glyph-name="zerosuperior" unicode="&#x2070;" horiz-adv-x="327" 
d="M286 541v-158q0 -63 -28 -92q-35 -35 -96 -35q-62 0 -96 36q-16 16 -21 36.5t-5 65.5v131q0 40 5 60.5t19 36.5q30 38 98 38q58 0 93 -30q31 -27 31 -89zM81 523v-129q0 -39 3 -51.5t15 -24.5q24 -24 64 -24q82 0 82 89v156q0 43 -24 63q-25 20 -58 20q-45 0 -68 -31
q-14 -19 -14 -68z" />
    <glyph glyph-name="foursuperior" unicode="&#x2074;" horiz-adv-x="327" 
d="M201 354h-172v28l213 295v-284h54v-39h-54v-93h-41v93zM201 393v168l-122 -168h122z" />
    <glyph glyph-name="fivesuperior" unicode="&#x2075;" horiz-adv-x="327" 
d="M99 614v-104q30 10 61 10q59 0 97 -37t38 -94q0 -59 -40.5 -96.5t-103.5 -37.5q-94 0 -127 82l40 14q13 -24 23 -34q22 -24 65 -24q42 0 71 28t29 69t-28 66.5t-73 25.5q-28 0 -47.5 -9.5t-45.5 -35.5v216h171v-39h-130z" />
    <glyph glyph-name="sixsuperior" unicode="&#x2076;" horiz-adv-x="327" 
d="M231 653l-103 -154q17 6 39 6q56 0 93.5 -35t37.5 -87q0 -53 -40 -90.5t-95 -37.5q-57 0 -96 38t-39 93q0 34 25 72l127 195h51zM164 469q-39 0 -66 -24.5t-27 -60.5q0 -38 27 -64.5t65 -26.5t65 26t27 63q0 36 -26.5 61.5t-64.5 25.5z" />
    <glyph glyph-name="sevensuperior" unicode="&#x2077;" horiz-adv-x="327" 
d="M231 614h-170v39h232l-168 -392h-47z" />
    <glyph glyph-name="eightsuperior" unicode="&#x2078;" horiz-adv-x="327" 
d="M215 482q37 -11 57.5 -39.5t20.5 -66.5q0 -53 -37 -87t-94 -34q-56 0 -92.5 33t-36.5 84q0 40 21 69t58 41q-28 10 -44.5 32.5t-16.5 51.5q0 41 32 67.5t81 26.5q48 0 79.5 -26.5t31.5 -67.5q0 -29 -16 -51.5t-44 -32.5zM164 623q-32 0 -51.5 -16t-19.5 -41
q0 -26 20 -43.5t50 -17.5q28 0 49 18.5t21 41.5t-20.5 40.5t-48.5 17.5zM164 460q-36 0 -62 -24.5t-26 -58.5q0 -35 25.5 -59.5t61.5 -24.5t61.5 24.5t25.5 59.5q0 34 -25.5 58.5t-60.5 24.5z" />
    <glyph glyph-name="ninesuperior" unicode="&#x2079;" horiz-adv-x="327" 
d="M98 261l101 155q-19 -7 -40 -7q-55 0 -92.5 35.5t-37.5 87.5q0 53 40 90.5t97 37.5q56 0 94 -36.5t38 -89.5q0 -38 -21 -70l-128 -203h-51zM165 622q-39 0 -66 -25.5t-27 -62.5t26.5 -62.5t64.5 -25.5q40 0 66 24.5t26 62.5t-26 63.5t-64 25.5z" />
    <glyph glyph-name="zeroinferior" unicode="&#x2080;" horiz-adv-x="327" 
d="M286 279v-157q0 -64 -28 -93q-33 -35 -96 -35q-62 0 -96 36q-16 16 -21 36.5t-5 65.5v131q0 41 5 61.5t19 36.5q30 38 98 38q58 0 93 -30q31 -28 31 -90zM81 262v-130q0 -38 3 -51t15 -25q24 -24 64 -24q82 0 82 90v156q0 43 -24 63q-25 20 -58 20q-45 0 -68 -31
q-14 -19 -14 -68z" />
    <glyph glyph-name="oneinferior" unicode="&#x2081;" horiz-adv-x="327" 
d="M173 332l-100 -67v41l141 98v-404h-41v332z" />
    <glyph glyph-name="twoinferior" unicode="&#x2082;" horiz-adv-x="327" 
d="M110 39h156v-39h-234l148 194q36 47 47 67.5t11 39.5q0 27 -21 44t-55 17q-37 0 -53.5 -18t-17.5 -59h-41q6 114 115 114q50 0 82 -27t32 -70q0 -44 -46 -103z" />
    <glyph glyph-name="threeinferior" unicode="&#x2083;" horiz-adv-x="327" 
d="M207 353h-153v39h238l-125 -147q53 0 89 -34.5t36 -86.5q0 -56 -40 -93t-101 -37q-49 0 -82 23.5t-47 66.5l38 13q24 -65 89 -65q42 0 71 26t29 63q0 38 -28.5 62t-74.5 24q-26 0 -57 -16l-11 13z" />
    <glyph glyph-name="fourinferior" unicode="&#x2084;" horiz-adv-x="327" 
d="M201 93h-172v28l213 295v-284h54v-39h-54v-93h-41v93zM201 132v168l-122 -168h122z" />
    <glyph glyph-name="fiveinferior" unicode="&#x2085;" horiz-adv-x="327" 
d="M99 353v-104q29 10 61 10q59 0 97 -37t38 -94q0 -59 -40.5 -96.5t-103.5 -37.5q-94 0 -127 82l40 14q17 -33 36.5 -45.5t51.5 -12.5q42 0 71 28t29 69t-28 66.5t-73 25.5q-28 0 -47.5 -9.5t-45.5 -35.5v216h171v-39h-130z" />
    <glyph glyph-name="sixinferior" unicode="&#x2086;" horiz-adv-x="327" 
d="M231 392l-103 -154q17 6 39 6q56 0 93.5 -35t37.5 -87q0 -53 -39.5 -91t-95.5 -38q-57 0 -96 38t-39 93q0 34 25 72l127 196h51zM164 208q-39 0 -66 -24.5t-27 -60.5q0 -38 27 -65t65 -27t65 26t27 63t-26.5 62.5t-64.5 25.5z" />
    <glyph glyph-name="seveninferior" unicode="&#x2087;" horiz-adv-x="327" 
d="M231 353h-170v39h232l-168 -392h-47z" />
    <glyph glyph-name="eightinferior" unicode="&#x2088;" horiz-adv-x="327" 
d="M215 221q37 -11 57.5 -39.5t20.5 -66.5q0 -53 -37 -87t-94 -34q-56 0 -92.5 33t-36.5 84q0 40 21 69t58 41q-28 10 -44.5 32t-16.5 51q0 41 32 68t81 27q48 0 79.5 -26.5t31.5 -67.5q0 -62 -60 -84zM164 362q-32 0 -51.5 -16t-19.5 -41q0 -26 20 -44t50 -18q28 0 49 18.5
t21 42.5q0 23 -20.5 40.5t-48.5 17.5zM164 198q-36 0 -62 -24.5t-26 -58.5t25.5 -58.5t61.5 -24.5t61.5 24.5t25.5 58.5t-25.5 58.5t-60.5 24.5z" />
    <glyph glyph-name="nineinferior" unicode="&#x2089;" horiz-adv-x="327" 
d="M98 0l101 155q-19 -7 -40 -7q-55 0 -92.5 35.5t-37.5 87.5q0 53 40 90.5t97 37.5q56 0 94 -36.5t38 -89.5q0 -37 -21 -71l-128 -202h-51zM165 361q-39 0 -66 -25.5t-27 -62.5t26.5 -62.5t64.5 -25.5q40 0 66 24.5t26 62.5t-26 63.5t-64 25.5z" />
    <glyph glyph-name="franc" unicode="&#x20a3;" horiz-adv-x="660" 
d="M147 616v-253h274v-51h-274v-312h-57v667h331v-51h-274zM434 460h50v-83q18 41 43 61q38 30 93 30h20v-49h-17q-58 -1 -94 -40q-45 -49 -45 -139v-240h-50v460z" />
    <glyph glyph-name="lira" unicode="&#x20a4;" horiz-adv-x="583" 
d="M334 363v-25h-124q28 -52 37 -101h90v-26h-92q0 -88 -88 -167q14 6 16 8q43 20 78 20q29 0 76 -16q70 -24 96 -24q32 0 69.5 20t61.5 49l23 -41q-74 -76 -155 -76q-36 0 -92 21q-68 24 -98 24q-50 0 -109 -42l-31 42q49 35 77 84t27 98h-123v26h121q-9 47 -42 101h-79v25
h65q-42 74 -42 121q0 78 62.5 126.5t163.5 48.5q223 0 226 -228h-48q-2 94 -45 139t-131 45q-77 0 -124.5 -36.5t-47.5 -96.5q0 -26 8 -48t36 -71h138z" />
    <glyph glyph-name="peseta" unicode="&#x20a7;" horiz-adv-x="860" 
d="M147 268v-268h-57v667h161q117 0 177 -48q66 -54 66 -150q0 -104 -73 -160q-52 -41 -161 -41h-113zM147 319h102q59 0 92 12q44 13 70.5 51t26.5 86q0 50 -27.5 87t-74.5 50q-40 11 -106 11h-83v-297zM517 244v-198q0 -8 3 -10.5t14 -2.5h30v-33h-38q-48 0 -48 40v204
h-43v34h43v92h39v-92h47v-34h-47zM824 200h-41q-1 49 -60 49q-26 0 -42 -11.5t-16 -30.5q0 -20 13 -30t51 -19q53 -12 73 -32q24 -22 24 -54q0 -34 -28 -55.5t-73 -21.5q-98 0 -107 87h40q3 -54 68 -54q27 0 43.5 12t16.5 32q0 19 -15.5 30.5t-52.5 19.5q-93 22 -93 83
q0 35 28 56.5t72 21.5q46 0 72 -21.5t27 -61.5z" />
    <glyph glyph-name="Euro" unicode="&#x20ac;" 
d="M31 406h44q8 53 19 85q25 83 83.5 135.5t125.5 52.5q48 0 96 -26.5t84 -72.5l-26 -55q-62 102 -156 102q-61 0 -107 -61t-60 -160h276l-21 -47h-260q-1 -9 -1 -26q0 -21 2 -31h236l-21 -47h-211q14 -98 59.5 -156.5t108.5 -58.5q46 0 87.5 26t69.5 73v-78
q-73 -73 -157 -73q-68 0 -128 53t-83 134q-11 39 -16 80h-64l20 47h40q-1 12 -1 25q0 21 1 32h-60z" />
    <glyph glyph-name="uni2101" unicode="&#x2101;" horiz-adv-x="880" 
d="M304 370h-194l-44 -103h-44l165 400h44l161 -400h-48zM288 407l-80 201l-83 -201h163zM753 646l-467 -659l-29 21l466 659zM598 107h40q3 -40 21.5 -59t56.5 -19q40 0 64 21t24 56q0 28 -19 44.5t-70 32.5q-60 18 -82 37q-33 28 -33 76q0 49 33.5 80t86.5 31
q55 0 86.5 -30.5t31.5 -84.5h-42q0 30 -10 47q-20 31 -66 31q-34 0 -55.5 -20.5t-21.5 -52.5q0 -31 21 -47q17 -13 75 -31q58 -19 82.5 -45t24.5 -67q0 -50 -35.5 -82t-92.5 -32q-58 0 -89.5 29.5t-30.5 84.5z" />
    <glyph glyph-name="afii61248" unicode="&#x2105;" horiz-adv-x="296" 
d="M149 387q16 0 27 -11t11 -27t-11 -27.5t-27 -11.5t-27.5 11t-11.5 27t11 27.5t28 11.5z" />
    <glyph glyph-name="afii61289" unicode="&#x2113;" 
d="M242 268q-33 -171 -33 -216q0 -26 20 -26q14 0 26 13t27 45q8 17 18 17q11 0 11 -11q0 -17 -17 -45q-33 -61 -81 -61q-29 0 -46.5 20.5t-17.5 55.5q0 34 14 148q-46 -48 -59 -48q-4 0 -7.5 4t-3.5 8q0 9 22 28q28 23 55 56q42 217 88.5 319t103.5 102q26 0 41.5 -20.5
t15.5 -55.5q0 -85 -59 -185q-38 -65 -118 -148zM250 315q83 90 116 181q22 61 22 107q0 42 -27 42q-31 0 -55 -70.5t-56 -259.5z" />
    <glyph glyph-name="uni2117" unicode="&#x2117;" horiz-adv-x="152" 
d="M96 545v-278h-39v278h39zM76 645q11 0 18.5 -8t7.5 -19q0 -10 -8 -18t-18 -8q-11 0 -19 8t-8 19t8 18.5t19 7.5z" />
    <glyph glyph-name="trademark" unicode="&#x2122;" horiz-adv-x="816" 
d="M166 630v-363h-43v363h-109v37h260v-37h-108zM393 565v-298h-43v400h35l166 -319l169 319h34v-400h-43v298l-160 -303z" />
    <glyph glyph-name="uni2126" unicode="&#x2126;" horiz-adv-x="666" 
d="M27 0v45h199q-200 113 -200 316q0 136 88.5 229t217.5 93q130 0 218.5 -93t88.5 -229q0 -203 -200 -316h199v-45h-257v43q74 40 116 88q90 98 90 224q0 119 -73.5 200.5t-180.5 81.5q-108 0 -181.5 -81.5t-73.5 -200.5q0 -144 109 -245q34 -31 97 -67v-43h-257z" />
    <glyph glyph-name="onethird" unicode="&#x2153;" horiz-adv-x="776" 
d="M173 594l-100 -68v41l141 98v-404h-41v333zM636 646l-466 -659l-30 21l467 659zM656 353h-153v39h238l-125 -147q53 0 89 -34.5t36 -86.5q0 -56 -40 -93t-101 -37q-49 0 -82 23.5t-47 66.5l38 13q24 -65 89 -65q42 0 71 26t29 63q0 38 -28.5 62t-74.5 24q-26 0 -57 -16
l-11 13z" />
    <glyph glyph-name="twothirds" unicode="&#x2154;" horiz-adv-x="776" 
d="M110 300h156v-39h-234l148 195q36 46 47 66.5t11 40.5q0 27 -21 44t-55 17q-37 0 -53.5 -18t-17.5 -59h-41q6 114 115 114q50 0 82 -27t32 -70q0 -44 -46 -103zM636 646l-467 -659l-29 21l467 659zM656 353h-153v39h238l-125 -147q53 0 89 -34.5t36 -86.5q0 -56 -40 -93
t-101 -37q-49 0 -82 23.5t-47 66.5l38 13q24 -65 89 -65q42 0 71 26t29 63q0 38 -28.5 62t-74.5 24q-26 0 -57 -16l-11 13z" />
    <glyph glyph-name="oneeighth" unicode="&#x215b;" horiz-adv-x="776" 
d="M173 594l-100 -68v41l141 98v-404h-41v333zM636 646l-466 -659l-30 21l467 659zM665 221q37 -11 57.5 -39.5t20.5 -66.5q0 -53 -37 -87t-94 -34q-56 0 -92.5 33t-36.5 84q0 40 20.5 69t58.5 41q-28 10 -44.5 32t-16.5 51q0 41 32 68t81 27q48 0 79.5 -26.5t31.5 -67.5
q0 -29 -16 -51.5t-44 -32.5zM614 362q-32 0 -51.5 -16t-19.5 -41q0 -26 20 -44t50 -18q28 0 49 18.5t21 42.5q0 23 -20.5 40.5t-48.5 17.5zM614 198q-36 0 -62 -24.5t-26 -58.5t25.5 -58.5t61.5 -24.5t61.5 24.5t25.5 58.5t-25.5 58.5t-60.5 24.5z" />
    <glyph glyph-name="threeeighths" unicode="&#x215c;" horiz-adv-x="776" 
d="M207 614h-153v39h238l-125 -146q53 0 89 -35t36 -87q0 -56 -40 -93t-101 -37q-49 0 -82 23.5t-47 67.5l38 12q24 -65 89 -65q42 0 71 26t29 63q0 38 -28.5 62t-74.5 24q-26 0 -57 -16l-11 13zM636 646l-467 -659l-29 21l466 659zM664 221q37 -11 57.5 -39.5t20.5 -66.5
q0 -53 -37 -87t-94 -34q-56 0 -92.5 33t-36.5 84q0 40 21 69t58 41q-28 10 -44 32t-16 51q0 41 32 68t81 27q48 0 79.5 -26.5t31.5 -67.5q0 -62 -61 -84zM614 362q-32 0 -51.5 -16t-19.5 -41q0 -26 20 -44t50 -18q28 0 49 18.5t21 42.5q0 23 -20.5 40.5t-48.5 17.5zM613 198
q-36 0 -62 -24.5t-26 -58.5t25.5 -58.5t61.5 -24.5t61.5 24.5t25.5 58.5t-25.5 58.5t-60.5 24.5z" />
    <glyph glyph-name="fiveeighths" unicode="&#x215d;" horiz-adv-x="776" 
d="M99 614v-104q30 10 61 10q59 0 97 -37t38 -94q0 -59 -40.5 -96.5t-103.5 -37.5q-94 0 -127 82l40 14q13 -24 23 -34q22 -24 65 -24q42 0 71 28t29 69t-28 66.5t-73 25.5q-28 0 -47.5 -9.5t-45.5 -35.5v216h171v-39h-130zM636 646l-467 -659l-29 21l466 659zM664 221
q37 -11 57.5 -39.5t20.5 -66.5q0 -53 -37 -87t-94 -34q-56 0 -92.5 33t-36.5 84q0 40 21 69t58 41q-28 10 -44.5 32t-16.5 51q0 41 32 68t81 27t80.5 -26.5t31.5 -67.5q0 -29 -16.5 -51.5t-44.5 -32.5zM613 362q-32 0 -51.5 -16t-19.5 -41q0 -26 20.5 -44t49.5 -18
q28 0 49.5 18.5t21.5 42.5q0 23 -21 40.5t-49 17.5zM613 198q-36 0 -62 -24.5t-26 -58.5t25.5 -58.5t61.5 -24.5t61.5 24.5t25.5 58.5t-25.5 58.5t-60.5 24.5z" />
    <glyph glyph-name="seveneighths" unicode="&#x215e;" horiz-adv-x="776" 
d="M231 614h-170v39h232l-168 -392h-47zM636 646l-467 -659l-29 21l467 659zM664 221q37 -11 58 -39.5t21 -66.5q0 -53 -37 -87t-94 -34t-93.5 33t-36.5 84q0 40 21 69t59 41q-28 10 -44.5 32t-16.5 51q0 41 32 68t81 27q48 0 79.5 -26.5t31.5 -67.5q0 -29 -16 -51t-45 -33z
M614 362q-32 0 -51.5 -16t-19.5 -41q0 -26 20 -44t50 -18q28 0 49 18.5t21 42.5q0 23 -20.5 40.5t-48.5 17.5zM614 198q-37 0 -63 -24.5t-26 -58.5t25.5 -58.5t61.5 -24.5q37 0 62.5 24t25.5 59q0 34 -25.5 58.5t-60.5 24.5z" />
    <glyph glyph-name="arrowleft" unicode="&#x2190;" horiz-adv-x="667" 
d="M653 363v-51h-500q15 -19 33.5 -56t18.5 -48q0 -14 -15 -14q-8 0 -22 17q-45 53 -132 104q-23 11 -23 20q0 10 16 19q61 36 86.5 56.5t58.5 59.5q8 9 16 9q15 0 15 -15q0 -29 -52 -101h500z" />
    <glyph glyph-name="arrowup" unicode="&#x2191;" horiz-adv-x="667" 
d="M360 13h-51v500q-20 -15 -56.5 -33.5t-47.5 -18.5q-14 0 -14 15q0 8 17 23q53 44 103 132q13 23 21 23q10 0 19 -17q37 -62 57.5 -87.5t58.5 -57.5q9 -8 9 -16q0 -15 -15 -15q-27 0 -101 52v-500z" />
    <glyph glyph-name="arrowright" unicode="&#x2192;" horiz-adv-x="667" 
d="M13 310v51h500q-15 19 -33.5 56t-18.5 48q0 14 15 14q8 0 22 -17q47 -56 132 -104q23 -13 23 -20q0 -10 -16 -19q-62 -37 -87 -57t-58 -59q-8 -9 -16 -9q-15 0 -15 15q0 29 52 101h-500z" />
    <glyph glyph-name="arrowdown" unicode="&#x2193;" horiz-adv-x="667" 
d="M307 653h51v-500q19 16 56 34t48 18q14 0 14 -15q0 -8 -17 -22q-55 -47 -103 -132q-13 -23 -21 -23q-10 0 -19 16q-37 62 -57 87t-59 58q-9 8 -9 16q0 15 15 15q27 0 101 -52v500z" />
    <glyph glyph-name="arrowboth" unicode="&#x2194;" horiz-adv-x="667" 
d="M513 310h-361q22 -29 37.5 -59t15.5 -42q0 -15 -15 -15q-7 0 -20 14q-2 3 -4 5q-28 32 -55.5 53.5t-87.5 56.5q-10 6 -10 15q0 8 23 21q83 47 132 103q14 17 22 17q15 0 15 -14q0 -11 -18.5 -47.5t-34.5 -56.5h361q-15 19 -33.5 56t-18.5 48q0 14 15 14q8 0 22 -17
q50 -58 132 -103q23 -13 23 -21q0 -10 -16 -19q-62 -38 -87.5 -58t-57.5 -58q-9 -9 -16 -9q-15 0 -15 15q0 29 52 101z" />
    <glyph glyph-name="arrowupdn" unicode="&#x2195;" horiz-adv-x="667" 
d="M360 513v-361q71 53 101 53q15 0 15 -15q0 -7 -14 -20q-3 -2 -5 -4q-33 -29 -53.5 -56t-56.5 -87q-6 -10 -15 -10q-8 0 -20 23q-49 85 -104 132q-17 14 -17 22q0 15 14 15q11 0 47.5 -18.5t56.5 -34.5v361q-20 -15 -56.5 -33.5t-47.5 -18.5q-14 0 -14 15q0 8 17 23
q55 46 104 132q12 23 20 23q10 0 19 -17q37 -62 57.5 -87.5t58.5 -57.5q9 -8 9 -16q0 -15 -15 -15q-27 0 -101 52z" />
    <glyph glyph-name="arrowupdnbse" unicode="&#x21a8;" horiz-adv-x="667" 
d="M360 513v-361q71 53 101 53q15 0 15 -15q0 -7 -14 -20q-3 -2 -5 -4q-33 -29 -53.5 -56t-56.5 -87q-6 -10 -15 -10q-7 0 -21 23q-48 85 -103 132q-17 14 -17 22q0 15 14 15q11 0 47.5 -18.5t56.5 -34.5v361q-20 -15 -56.5 -33.5t-47.5 -18.5q-14 0 -14 15q0 8 17 23
q55 46 104 132q12 23 20 23q10 0 19 -17q37 -62 57.5 -87.5t58.5 -57.5q9 -8 9 -16q0 -15 -15 -15q-27 0 -101 52zM201 -68h264v-43h-264v43z" />
    <glyph glyph-name="partialdiff" unicode="&#x2202;" 
d="M94 630l7 43q145 -22 232 -105q61 -60 95.5 -148.5t34.5 -186.5q0 -91 -38 -149q-28 -45 -74.5 -70.5t-99.5 -25.5q-89 0 -151.5 65.5t-62.5 158.5q0 94 61 159t148 65q70 0 114 -36q16 -12 44 -50q-1 3 -5 12.5t-11.5 30t-15.5 40.5q-37 81 -110 132.5t-168 64.5z
M258 396q-74 0 -124 -53t-50 -131q0 -75 49.5 -128.5t117.5 -53.5q71 0 117.5 53.5t46.5 134.5q0 92 -56 140q-46 38 -101 38z" />
    <glyph glyph-name="emptyset" unicode="&#x2205;" horiz-adv-x="618" 
d="M439 667l48 -25l-48 -88q113 -80 113 -204q0 -102 -72 -172.5t-176 -70.5q-46 0 -79 16l-63 -123l-48 25l61 122q-108 79 -108 202q0 102 71 172.5t173 70.5q39 0 81 -14zM416 502l-165 -330q32 -8 58 -8q77 0 132 54.5t55 130.5q0 47 -21.5 89t-58.5 64zM200 198
l166 329q-28 8 -54 8q-78 0 -133.5 -54.5t-55.5 -130.5q0 -90 77 -152z" />
    <glyph glyph-name="Delta" unicode="&#x2206;" horiz-adv-x="612" 
d="M5 0l274 667h53l274 -667h-601zM73 45h465l-232 565z" />
    <glyph glyph-name="product" unicode="&#x220f;" horiz-adv-x="667" 
d="M30 750h607v-43h-74v-914h74v-43h-202v43h81v914h-364v-914h79v-43h-201v43h75v914h-75v43z" />
    <glyph glyph-name="summation" unicode="&#x2211;" horiz-adv-x="667" 
d="M589 750v-220h-48l-4 172h-446l252 -431l-251 -474h455l2 172h49v-219h-563v55l248 466l-248 426v53h554z" />
    <glyph glyph-name="minus" unicode="&#x2212;" 
d="M27 351h445v-32h-445v32z" />
    <glyph glyph-name="uni2218" unicode="&#x2218;" 
d="M253 480q56 0 95.5 -41t39.5 -99t-40 -99t-97 -41t-97.5 41t-40.5 99t40.5 99t99.5 41zM252 432q-39 0 -65.5 -27t-26.5 -65t26.5 -65t64.5 -27q37 0 63.5 27t26.5 65t-26 65t-63 27z" />
    <glyph glyph-name="radical" unicode="&#x221a;" horiz-adv-x="667" 
d="M667 827v-44h-202l-242 -783h-52l-94 307h-77v44h109l47 -152q11 -35 38 -133h2q1 5 2.5 11t2.5 8.5t1 3.5q47 156 105 349l120 389h240z" />
    <glyph glyph-name="infinity" unicode="&#x221e;" horiz-adv-x="667" 
d="M334 312q-43 -64 -82.5 -92t-87.5 -28q-65 0 -105 41.5t-40 108.5q0 65 41 106t105 41q90 0 167 -120q43 64 82.5 91.5t89.5 27.5q63 0 103 -41.5t40 -107.5q0 -65 -40 -106t-103 -41q-50 0 -90 28t-80 92zM354 341q38 -61 72 -87t75 -26q46 0 75.5 31.5t29.5 80.5
t-30 80.5t-76 31.5q-41 0 -73.5 -24.5t-72.5 -86.5zM312 340q-38 61 -72 87t-75 26q-46 0 -75.5 -31.5t-29.5 -80.5q0 -50 30 -81.5t76 -31.5q41 0 73.5 25t72.5 87z" />
    <glyph glyph-name="orthogonal" unicode="&#x221f;" horiz-adv-x="344" 
d="M24 466h296v-38h-296v38z" />
    <glyph glyph-name="intersection" unicode="&#x2229;" horiz-adv-x="531" 
d="M496 0h-51v323q0 103 -6 146t-25 71q-23 37 -64 58.5t-85 21.5q-47 0 -90 -24.5t-64 -63.5q-15 -28 -20.5 -72t-5.5 -137v-323h-51v320q0 124 7.5 168.5t33.5 82.5q68 96 190 96q64 0 117 -29.5t83 -82.5q19 -34 25 -77.5t6 -157.5v-320z" />
    <glyph glyph-name="union" unicode="&#x222a;" horiz-adv-x="531" 
d="M34 667h51v-323q0 -103 6 -146t25 -71q23 -37 64 -58.5t85 -21.5q47 0 90 24.5t64 63.5q15 28 20.5 71.5t5.5 137.5v323h51v-320q0 -124 -7.5 -168.5t-33.5 -82.5q-68 -96 -190 -96q-64 0 -117 29.5t-83 82.5q-19 34 -25 78t-6 157v320z" />
    <glyph glyph-name="integral" unicode="&#x222b;" 
d="M116 -239l13 47q20 -10 38 -10q41 0 51 34q5 15 5 84v660q1 68 2 82t6 30q9 28 35.5 45t62.5 17q26 0 55 -11l-13 -47q-19 10 -38 10q-40 0 -51 -34q-5 -14 -5 -72v-671q0 -66 -2.5 -88.5t-12.5 -38.5q-13 -21 -41 -34t-61 -13q-22 0 -44 10z" />
    <glyph glyph-name="uni222E" unicode="&#x222e;" 
d="M115 -239l12 47q23 -10 40 -10q41 0 52 34q5 17 5 73v195q-57 6 -97 52t-40 106t38.5 104.5t98.5 52.5v184q0 77 14 102q24 49 88 49q26 0 57 -11l-13 -47q-21 10 -40 10q-42 0 -51 -34q-5 -14 -5 -69v-183q63 -9 101.5 -52.5t38.5 -105.5t-39.5 -106.5t-100.5 -51.5
v-196q0 -54 -2 -71.5t-10 -32.5q-25 -50 -95 -50q-28 0 -52 11zM274 385v-255q49 7 79 42.5t30 85.5q0 49 -31 85t-78 42zM224 130v255q-46 -6 -76 -42t-30 -85t30.5 -85.5t75.5 -42.5z" />
    <glyph glyph-name="uni2236" unicode="&#x2236;" horiz-adv-x="296" 
d="M149 529q14 0 23.5 -10t9.5 -24q0 -13 -10 -23t-23 -10q-14 0 -24 10t-10 24t10 23.5t24 9.5zM149 234q13 0 23 -10t10 -23q0 -14 -9.5 -24t-23.5 -10t-24 9.5t-10 23.5t10 24t24 10z" />
    <glyph glyph-name="similar" unicode="&#x223c;" 
d="M42 269l-31 24q52 104 131 104q39 0 117 -41q70 -37 99 -37t52 18.5t47 61.5l31 -24q-50 -104 -132 -104q-23 0 -45.5 8.5t-85.5 41.5q-53 28 -85 28q-28 0 -51 -18.5t-47 -61.5z" />
    <glyph glyph-name="approxequal" unicode="&#x2248;" 
d="M42 348l-31 21q52 104 131 104q39 0 117 -41q70 -36 99 -36t50.5 16.5t48.5 59.5l31 -21q-49 -103 -135 -103q-22 0 -44 8.5t-84 40.5q-53 28 -85 28q-28 0 -50 -17.5t-48 -59.5zM42 193l-31 21q52 104 131 104q39 0 117 -41q70 -36 99 -36t51 17t48 60l31 -21
q-49 -104 -135 -104q-21 0 -43.5 8.5t-84.5 40.5q-53 28 -85 28q-28 0 -50 -17t-48 -60z" />
    <glyph glyph-name="notequal" unicode="&#x2260;" 
d="M275 426l59 120l39 -13l-51 -107h145v-45h-165l-50 -106h215v-45h-234l-61 -127l-39 13l54 114h-154v45h172l51 106h-223v45h242z" />
    <glyph glyph-name="equivalence" unicode="&#x2261;" 
d="M33 507h433v-47h-433v47zM33 357h433v-47h-433v47zM33 206h433v-47h-433v47z" />
    <glyph glyph-name="lessequal" unicode="&#x2264;" 
d="M466 577v-51l-374 -153l374 -153v-51l-433 180v48zM466 139v-47h-433v47h433z" />
    <glyph glyph-name="greaterequal" unicode="&#x2265;" 
d="M33 169v51l374 153l-374 153v51l433 -180v-48zM33 92v47h433v-47h-433z" />
    <glyph glyph-name="dotmath" unicode="&#x22c5;" horiz-adv-x="215" 
d="M108 283q18 0 29.5 -12t11.5 -30q0 -17 -12 -28.5t-29 -11.5t-29 12t-12 29q0 18 12 29.5t29 11.5z" />
    <glyph glyph-name="house" unicode="&#x2302;" horiz-adv-x="751" 
d="M84 0v401l291 328l292 -328v-401h-583zM135 51h481v328l-241 270l-240 -270v-328z" />
    <glyph glyph-name="revlogicalnot" unicode="&#x2310;" 
d="M85 0h-52v273h433v-47h-381v-226z" />
    <glyph glyph-name="uni2319" unicode="&#x2319;" 
d="M85 273v-226h381v-47h-433v273h52z" />
    <glyph glyph-name="integraltp" unicode="&#x2320;" 
d="M277 -250h-54v826q1 68 2 82t6 30q9 28 35.5 45t62.5 17q26 0 55 -11l-13 -47q-19 10 -38 10q-40 0 -51 -34q-5 -14 -5 -72v-846z" />
    <glyph glyph-name="integralbt" unicode="&#x2321;" 
d="M223 750h54v-826q0 -89 -8 -112q-9 -28 -35.5 -45t-62.5 -17q-26 0 -55 11l13 47q20 -10 38 -10q40 0 51 34q5 14 5 72v846z" />
    <glyph glyph-name="filledbox" unicode="&#x25a0;" horiz-adv-x="667" 
d="M667 0h-667v667h667v-667z" />
    <glyph glyph-name="uni25A1" unicode="&#x25a1;" horiz-adv-x="667" 
d="M667 0h-667v667h667v-667zM620 47v573h-573v-573h573z" />
    <glyph glyph-name="H18551" unicode="&#x25ab;" horiz-adv-x="344" 
d="M24 466h127v125h40v-125h130v-38h-130v-125h-40v125h-127v38z" />
    <glyph glyph-name="filledrect" unicode="&#x25ac;" horiz-adv-x="667" 
d="M667 333v-333h-667v333h667z" />
    <glyph glyph-name="uni25AE" unicode="&#x25ae;" horiz-adv-x="667" 
d="M500 0h-333v667h333v-667z" />
    <glyph glyph-name="uni25AF" unicode="&#x25af;" horiz-adv-x="667" 
d="M334 589q107 0 183.5 -74.5t76.5 -180.5t-76.5 -181.5t-183.5 -75.5q-110 0 -185.5 75.5t-75.5 184.5q0 104 77 178t184 74z" />
    <glyph glyph-name="triagup" unicode="&#x25b2;" horiz-adv-x="667" 
d="M633 67h-600l300 561z" />
    <glyph glyph-name="uni25B4" unicode="&#x25b4;" 
d="M466 147h-433l217 405z" />
    <glyph glyph-name="uni25B8" unicode="&#x25b8;" 
d="M71 119v433l405 -217z" />
    <glyph glyph-name="triagdn" unicode="&#x25bc;" horiz-adv-x="667" 
d="M33 600h600l-300 -561z" />
    <glyph glyph-name="uni25BE" unicode="&#x25be;" 
d="M33 520h433l-216 -405z" />
    <glyph glyph-name="uni25C2" unicode="&#x25c2;" 
d="M428 552v-433l-405 216z" />
    <glyph glyph-name="lozenge" unicode="&#x25ca;" horiz-adv-x="667" 
d="M334 693l259 -359l-259 -360l-260 360zM334 604l-197 -270l197 -271l197 271z" />
    <glyph glyph-name="circle" unicode="&#x25cb;" horiz-adv-x="667" 
d="M334 589q107 0 183.5 -74.5t76.5 -180.5t-76.5 -181.5t-183.5 -75.5q-110 0 -185.5 75.5t-75.5 184.5q0 104 77 178t184 74zM334 543q-88 0 -151 -61t-63 -146q0 -89 62 -151t152 -62q88 0 150.5 62t62.5 149q0 86 -62.5 147.5t-150.5 61.5z" />
    <glyph glyph-name="invbullet" unicode="&#x25d8;" horiz-adv-x="667" 
d="M0 0v667h667v-667h-667zM336 473q-59 0 -99.5 -40.5t-40.5 -99.5q0 -57 40.5 -98t97.5 -41t97 41t40 99q0 57 -40 98t-95 41z" />
    <glyph glyph-name="invcircle" unicode="&#x25d9;" horiz-adv-x="667" 
d="M667 0h-667v667h667v-667zM334 590q-107 0 -184 -74t-77 -178q0 -110 75.5 -185.5t185.5 -75.5q107 0 183.5 75.5t76.5 181.5t-76.5 181t-183.5 75zM334 543q88 0 150.5 -61.5t62.5 -147.5q0 -87 -62.5 -149t-150.5 -62q-90 0 -152 62t-62 151q0 85 63 146t151 61z" />
    <glyph glyph-name="openbullet" unicode="&#x25e6;" 
d="M253 480q56 0 95.5 -41t39.5 -99t-40 -99t-97 -41t-97.5 41t-40.5 99t40.5 99t99.5 41zM252 432q-39 0 -65.5 -27t-26.5 -65t26.5 -65t64.5 -27q37 0 63.5 27t26.5 65t-26 65t-63 27z" />
    <glyph glyph-name="smileface" unicode="&#x263a;" horiz-adv-x="667" 
d="M339 650q127 0 219 -93.5t92 -222.5q0 -131 -92.5 -224t-223.5 -93q-132 0 -224.5 93t-92.5 226q0 131 94 222.5t228 91.5zM338 608q-126 0 -208 -91q-71 -79 -71 -181q0 -116 80 -196.5t195 -80.5q114 0 194.5 80.5t80.5 194.5q0 112 -80.5 193t-190.5 81zM241 466
q17 0 30 -13t13 -31t-13 -31t-31 -13t-31 13t-13 31q0 19 13 31.5t32 12.5zM434 465q17 0 30 -13t13 -31t-13 -31t-31 -13t-31 13t-13 31q0 19 13 31.5t32 12.5zM540 372q-4 -60 -15 -95t-35 -66q-56 -70 -156 -70q-109 0 -164 82q-20 29 -28.5 60.5t-13.5 88.5
q12 -54 42 -89q61 -70 164 -70q102 0 165 70q29 35 41 89z" />
    <glyph glyph-name="invsmileface" unicode="&#x263b;" horiz-adv-x="667" 
d="M339 650q127 0 219 -93.5t92 -222.5q0 -131 -92.5 -224t-223.5 -93q-132 0 -224.5 93t-92.5 226q0 131 94 222.5t228 91.5zM240 465q-18 0 -31 -12.5t-13 -30.5q0 -19 12.5 -31.5t31.5 -12.5q18 0 30.5 12.5t12.5 31.5q0 17 -12.5 30t-30.5 13zM434 465q-19 0 -32 -12.5
t-13 -31.5q0 -18 13 -31t31 -13t31 13t13 31t-13 31t-30 13zM540 372q-12 -54 -41 -89q-63 -70 -165 -70q-103 0 -164 70q-30 35 -42 89q5 -61 15.5 -95.5t35.5 -65.5q56 -70 155 -70q110 0 165 82q35 53 41 149z" />
    <glyph glyph-name="sun" unicode="&#x263c;" horiz-adv-x="667" 
d="M159 472l-75 75l35 35l75 -75q49 40 114 48v105h50v-105q66 -8 113 -47l75 74l35 -35l-74 -74q38 -48 47 -114h105v-51h-105q-9 -64 -47 -114l74 -74l-35 -35l-75 74q-50 -40 -113 -47v-105h-50v105q-60 6 -114 47l-75 -74l-35 35l74 74q-40 51 -46 114h-105v51h105
q7 61 47 113zM336 493q-68 0 -115.5 -46t-47.5 -112q0 -67 46.5 -114t113.5 -47q66 0 112.5 47t46.5 113q0 65 -46 112t-110 47z" />
    <glyph glyph-name="female" unicode="&#x2640;" horiz-adv-x="667" 
d="M308 209v105q-68 10 -111.5 61.5t-43.5 120.5q0 76 52.5 129.5t126.5 53.5q75 0 128 -53.5t53 -129.5q0 -70 -44 -120.5t-113 -61.5v-105h163v-43h-163v-166h-48v166h-161v43h161zM335 632q-57 0 -96 -39.5t-39 -96.5q0 -56 39 -95.5t94 -39.5t94 39.5t39 95.5t-38.5 96
t-92.5 40z" />
    <glyph glyph-name="male" unicode="&#x2642;" horiz-adv-x="667" 
d="M570 499l-152 -151q36 -49 36 -110q0 -75 -53 -128.5t-127 -53.5t-127 53.5t-53 129.5q0 75 53 128.5t127 53.5q61 0 112 -39l151 151q-52 12 -106 40q-21 11 -21 23t13 12q3 0 20 -3q41 -9 83 -9q57 0 105 14l10 1q10 0 10 -10q0 -4 -5 -23q-10 -40 -10 -87q0 -43 9 -84
q3 -17 3 -20q0 -13 -12 -13q-7 0 -10.5 3.5t-12.5 17.5q-31 44 -43 104zM276 374q-57 0 -96 -39t-39 -96q0 -56 39 -95.5t94 -39.5t94 39.5t39 95.5t-38.5 95.5t-92.5 39.5z" />
    <glyph glyph-name="spade" unicode="&#x2660;" horiz-adv-x="667" 
d="M108 0v18q70 14 102 29t63 49q52 60 56 159q-12 -26 -13 -28q-20 -33 -56 -53.5t-76 -20.5q-49 0 -84.5 37t-35.5 88q0 81 104 169q142 115 164 239q26 -80 51.5 -117t99.5 -105q73 -67 97 -103.5t24 -83.5q0 -52 -35.5 -87.5t-86.5 -35.5q-84 0 -140 101
q6 -108 58.5 -163t167.5 -74v-18h-460z" />
    <glyph glyph-name="club" unicode="&#x2663;" horiz-adv-x="667" 
d="M561 0h-455v18q113 16 167 78.5t54 177.5q-22 -38 -34 -52q-27 -34 -66.5 -54.5t-79.5 -20.5q-59 0 -101.5 44.5t-42.5 106.5t38.5 104.5t93.5 42.5q29 0 71 -20l15 -8q-35 53 -35 100q0 59 43.5 101t104.5 42t104 -42t43 -101q0 -48 -35 -100q39 19 52.5 23.5t33.5 4.5
q55 0 93.5 -42.5t38.5 -103.5q0 -64 -42.5 -108t-103.5 -44q-37 0 -76 19t-64 50q-17 21 -38 58q2 -65 15 -106t44 -76q32 -32 62.5 -46.5t99.5 -27.5v-18z" />
    <glyph glyph-name="heart" unicode="&#x2665;" horiz-adv-x="667" 
d="M332 -11q-16 67 -52 128.5t-134 192.5q-54 74 -72 113t-18 82q0 56 37.5 95t91.5 39q76 0 120 -68q13 -19 27 -62q37 131 147 131q55 0 93.5 -38.5t38.5 -92.5q0 -50 -24 -100.5t-86 -128.5q-143 -179 -169 -291z" />
    <glyph glyph-name="diamond" unicode="&#x2666;" horiz-adv-x="667" 
d="M333 693q22 -47 111.5 -173t142.5 -186q-71 -85 -141.5 -184.5t-112.5 -175.5q-71 135 -253 360q180 226 253 359z" />
    <glyph glyph-name="musicalnote" unicode="&#x266a;" horiz-adv-x="667" 
d="M306 156v511h46v-61q14 -18 15 -18l52 -63q91 -107 91 -225q0 -91 -57 -162h-28q33 77 33 149q0 65 -31.5 116t-74.5 57v-304q0 -72 -42.5 -118.5t-109.5 -46.5q-32 0 -50.5 16t-18.5 45q0 45 36.5 80t84.5 35q29 0 54 -11z" />
    <glyph glyph-name="uni266C" unicode="&#x266c;" horiz-adv-x="667" 
d="M616 694v-502q0 -46 -17 -81q-19 -38 -55.5 -60.5t-79.5 -22.5q-32 0 -50 16t-18 44q0 46 36.5 80.5t83.5 34.5q29 0 54 -11v270l-329 -90v-236q0 -71 -42.5 -117t-109.5 -46q-32 0 -50.5 16t-18.5 44q0 44 36.5 78.5t84.5 34.5q26 0 54 -10v451zM241 448l329 90v70
l-329 -90v-70z" />
    <glyph glyph-name="dotlessj" unicode="&#xf6be;" horiz-adv-x="217" 
d="M133 460v-525q0 -80 -36 -122q-41 -47 -104 -47h-15v48h6q44 0 71.5 34t27.5 87v525h50z" />
    <glyph glyph-name="commaaccent" unicode="&#xf6c3;" 
d="M271 -54v-56q0 -41 -13.5 -64.5t-48.5 -41.5v29l6 6q4 4 14 12q12 13 15 49h-20v66h47z" />
    <glyph glyph-name="Acute" unicode="&#xf6c9;" 
d="M304 845h71l-111 -130h-46z" />
    <glyph glyph-name="Caron" unicode="&#xf6ca;" 
d="M250 757l73 90h55l-106 -132h-46l-103 132h53z" />
    <glyph glyph-name="Dieresis" unicode="&#xf6cb;" 
d="M151 821q17 0 29 -12t12 -30q0 -17 -12 -29t-30 -12q-17 0 -29 12t-12 29q0 18 12 30t30 12zM351 821q17 0 29 -12t12 -30q0 -17 -12 -29t-29 -12q-18 0 -30 12t-12 29q0 18 12 30t30 12z" />
    <glyph glyph-name="Grave" unicode="&#xf6ce;" 
d="M196 845l86 -130h-46l-111 130h71z" />
    <glyph glyph-name="Hungarumlaut" unicode="&#xf6cf;" 
d="M215 845h69l-91 -130h-44zM362 845h69l-91 -130h-44z" />
    <glyph glyph-name="Macron" unicode="&#xf6d0;" 
d="M390 799v-44h-280v44h280z" />
    <glyph glyph-name="commasuperior" unicode="&#xf6e2;" horiz-adv-x="137" 
d="M109 311l-69 -153l-30 13l63 155z" />
    <glyph glyph-name="periodsuperior" unicode="&#xf6e8;" horiz-adv-x="137" 
d="M69 321q11 0 19.5 -8.5t8.5 -20.5q0 -11 -8.5 -19.5t-19.5 -8.5q-12 0 -20.5 8.5t-8.5 20.5q0 11 8.5 19.5t20.5 8.5z" />
    <glyph glyph-name="Dbreve" horiz-adv-x="618" 
d="M90 0v667h171q142 0 226 -86.5t84 -233.5q0 -164 -89 -255.5t-248 -91.5h-144zM147 616v-565h31q101 0 149.5 10.5t87.5 41.5q98 74 98 244q0 131 -65.5 200t-189.5 69h-111zM163 829h52q26 -55 94 -55t94 55h52q-11 -46 -50 -72.5t-96 -26.5t-96 26.5t-50 72.5z" />
    <glyph glyph-name="Adotaccent" horiz-adv-x="592" 
d="M457 175h-322l-71 -175h-57l262 667h62l254 -667h-63zM437 227l-139 364l-142 -364h281zM297 821q17 0 29 -12t12 -30q0 -17 -12 -29t-29 -12q-18 0 -30 12t-12 29q0 18 12 30t30 12z" />
    <glyph glyph-name="Fdotaccent" horiz-adv-x="451" 
d="M147 616v-253h274v-51h-274v-312h-57v667h331v-51h-274zM226 821q17 0 29 -12t12 -30q0 -17 -12 -29t-29 -12q-18 0 -30 12t-12 29q0 18 12 30t30 12z" />
    <glyph glyph-name="ahungarumlaut" horiz-adv-x="561" 
d="M428 375v85h50v-460h-50v102q-67 -110 -172 -110q-93 0 -153 67t-60 171t59.5 171t152.5 67q108 0 173 -93zM259 421q-80 0 -123 -59q-41 -57 -41 -135q0 -81 46 -134.5t115 -53.5q72 0 122.5 58t50.5 140t-47 133t-123 51zM251 653h68l-90 -128h-40zM385 653h67
l-90 -128h-40z" />
    <glyph glyph-name="adotaccent" horiz-adv-x="561" 
d="M428 375v85h50v-460h-50v102q-67 -110 -172 -110q-93 0 -153 67t-60 171t59.5 171t152.5 67q108 0 173 -93zM259 421q-80 0 -123 -59q-41 -57 -41 -135q0 -81 46 -134.5t115 -53.5q72 0 122.5 58t50.5 140t-47 133t-123 51zM281 623q16 0 26 -10.5t10 -26.5t-10.5 -26
t-25.5 -10q-16 0 -26.5 10t-10.5 26t10 26.5t27 10.5z" />
    <glyph glyph-name="one.numerator" horiz-adv-x="229" 
d="M121 621l-70 -47v28l99 68v-277h-29v228z" />
    <glyph glyph-name="two.numerator" horiz-adv-x="229" 
d="M77 420h109v-27h-164l104 133q40 51 40 73q0 19 -15 30.5t-38 11.5q-49 0 -49 -53h-30q6 78 81 78q35 0 57.5 -18.5t22.5 -48.5q0 -29 -32 -70z" />
    <glyph glyph-name="three.numerator" horiz-adv-x="229" 
d="M144 634h-107v27h167l-88 -101q36 1 61.5 -23t25.5 -59q0 -39 -28 -64t-70 -25q-34 0 -58 16.5t-32 45.5l27 8q15 -44 61 -44q29 0 49.5 18t20.5 43q0 26 -19.5 42t-51.5 16q-20 0 -40 -11l-8 9z" />
    <glyph glyph-name="four.numerator" horiz-adv-x="229" 
d="M141 456h-120v20l149 201v-194h38v-27h-38v-63h-29v63zM141 483v115l-85 -115h85z" />
    <glyph glyph-name="five.numerator" horiz-adv-x="229" 
d="M70 634v-71q20 7 42 7q40 0 67 -25.5t27 -63.5q0 -40 -28 -66t-72 -26q-65 0 -89 56l29 9q20 -39 60 -39q30 0 50 19t20 47t-19.5 45.5t-50.5 17.5q-33 0 -65 -31v148h119v-27h-90z" />
    <glyph glyph-name="six.numerator" horiz-adv-x="229" 
d="M162 661l-72 -105q12 4 27 4q40 0 66 -24t26 -59q0 -37 -28 -62.5t-67 -25.5q-40 0 -67 25.5t-27 63.5q0 23 18 49l89 134h35zM115 535q-27 0 -46 -16.5t-19 -40.5q0 -26 18.5 -44.5t45.5 -18.5t46 18t19 43q0 24 -18.5 41.5t-45.5 17.5z" />
    <glyph glyph-name="seven.numerator" horiz-adv-x="229" 
d="M162 634h-119v27h162l-117 -268h-33z" />
    <glyph glyph-name="eight.numerator" horiz-adv-x="229" 
d="M150 545q55 -17 55 -73q0 -37 -25.5 -60t-66.5 -23q-39 0 -64.5 22.5t-25.5 57.5q0 28 14.5 47.5t40.5 27.5q-42 16 -42 58q0 28 22.5 46t56.5 18t56 -18t22 -46q0 -43 -43 -57zM115 641q-22 0 -36 -11t-14 -28q0 -18 14.5 -30t34.5 -12q19 0 34.5 12.5t15.5 28.5
t-14.5 28t-34.5 12zM115 529q-26 0 -44 -16.5t-18 -40.5q0 -23 18 -40t43 -17q26 0 43.5 16.5t17.5 40.5q0 23 -17.5 40t-42.5 17z" />
    <glyph glyph-name="nine.numerator" horiz-adv-x="229" 
d="M68 393l71 106q-14 -5 -28 -5q-38 0 -64.5 24.5t-26.5 59.5q0 37 27.5 62.5t67.5 25.5t66.5 -24.5t26.5 -61.5q0 -27 -14 -48l-90 -139h-36zM115 640q-27 0 -46 -18t-19 -43t18.5 -42.5t45.5 -17.5t45.5 17.5t18.5 42.5q0 26 -18 43.5t-45 17.5z" />
    <glyph glyph-name="zero.numerator" horiz-adv-x="229" 
d="M200 584v-107q0 -87 -86 -87q-43 0 -67 24q-19 20 -19 70v90q0 46 17 66q21 26 68 26q40 0 65 -20q22 -19 22 -62zM57 573v-89q0 -27 2 -35.5t10 -16.5q18 -16 45 -16q57 0 57 61v106q0 57 -57 57q-30 0 -43.5 -16t-13.5 -51z" />
    <glyph glyph-name="one.denominator" horiz-adv-x="229" 
d="M121 227l-70 -46v28l99 67v-276h-29v227z" />
    <glyph glyph-name="two.denominator" horiz-adv-x="229" 
d="M77 27h109v-27h-164l104 133q40 52 40 73q0 19 -15 30.5t-38 11.5q-49 0 -49 -53h-30q6 78 81 78q35 0 57.5 -18.5t22.5 -47.5q0 -30 -32 -71z" />
    <glyph glyph-name="three.denominator" horiz-adv-x="229" 
d="M144 241h-107v27h167l-88 -100q36 0 61.5 -24.5t25.5 -58.5q0 -39 -28 -64t-70 -25q-34 0 -58 16.5t-32 45.5l27 8q15 -44 61 -44q29 0 49.5 18t20.5 43q0 26 -19.5 42t-51.5 16q-20 0 -40 -11l-8 9z" />
    <glyph glyph-name="four.denominator" horiz-adv-x="229" 
d="M141 63h-120v20l149 201v-194h38v-27h-38v-63h-29v63zM141 90v115l-85 -115h85z" />
    <glyph glyph-name="five.denominator" horiz-adv-x="229" 
d="M70 241v-71q20 7 42 7q40 0 67 -25.5t27 -63.5q0 -40 -28 -66t-72 -26q-65 0 -89 56l29 10q12 -22 25 -31t35 -9q30 0 50 19t20 47t-19.5 45.5t-50.5 17.5q-33 0 -65 -31v148h119v-27h-90z" />
    <glyph glyph-name="six.denominator" horiz-adv-x="229" 
d="M162 268l-72 -105q12 4 27 4q40 0 66 -24t26 -59q0 -37 -28 -62.5t-67 -25.5q-40 0 -67 25.5t-27 63.5q0 23 18 49l89 134h35zM115 142q-27 0 -46 -16.5t-19 -40.5q0 -26 18.5 -44.5t45.5 -18.5t46 18t19 43q0 24 -18.5 41.5t-45.5 17.5z" />
    <glyph glyph-name="seven.denominator" horiz-adv-x="229" 
d="M162 241h-119v27h162l-117 -268h-33z" />
    <glyph glyph-name="eight.denominator" horiz-adv-x="229" 
d="M150 151q55 -16 55 -73q0 -36 -26 -59t-66 -23q-39 0 -64.5 22.5t-25.5 57.5q0 57 55 75q-42 15 -42 57q0 28 22.5 46.5t56.5 18.5t56 -18.5t22 -46.5q0 -43 -43 -57zM115 248q-22 0 -36 -11t-14 -28q0 -18 14.5 -30.5t34.5 -12.5t35 13t15 29t-15 28t-34 12zM115 135
q-26 0 -44 -16.5t-18 -39.5t18 -40t43 -17q26 0 43.5 16.5t17.5 40.5q0 23 -17.5 39.5t-42.5 16.5z" />
    <glyph glyph-name="nine.denominator" horiz-adv-x="229" 
d="M68 0l71 106q-14 -5 -28 -5q-38 0 -64.5 24.5t-26.5 59.5q0 37 27.5 62.5t67.5 25.5t66.5 -24.5t26.5 -61.5q0 -28 -14 -49l-90 -138h-36zM115 247q-27 0 -46 -18t-19 -43t18.5 -42.5t45.5 -17.5t45.5 17.5t18.5 42.5q0 26 -18 43.5t-45 17.5z" />
    <glyph glyph-name="zero.denominator" horiz-adv-x="229" 
d="M200 191v-108q0 -87 -86 -87q-43 0 -67 24q-19 20 -19 70v90q0 46 17 67q21 26 68 26q41 0 65 -21q22 -19 22 -61zM57 179v-89q0 -27 2 -35.5t10 -16.5q18 -16 45 -16q57 0 57 61v107q0 57 -57 57q-30 0 -43.5 -16t-13.5 -52z" />
    <glyph glyph-name="oneone" horiz-adv-x="776" 
d="M173 594l-100 -68v41l141 98v-404h-41v333zM636 646l-466 -659l-30 21l467 659zM622 332l-100 -67v41l141 98v-404h-41v332z" />
    <glyph glyph-name="onefifth" horiz-adv-x="776" 
d="M173 594l-100 -68v41l141 98v-404h-41v333zM636 646l-466 -659l-30 21l467 659zM549 353v-104q29 10 60 10q59 0 97 -37t38 -94q0 -58 -40.5 -96t-102.5 -38q-92 0 -127 82l40 14q17 -33 36 -45.5t51 -12.5q43 0 71.5 28t28.5 69t-28 66.5t-72 25.5q-28 0 -47.5 -9.5
t-45.5 -35.5v216h170v-39h-129z" />
    <glyph glyph-name="twofifth" horiz-adv-x="776" 
d="M110 300h156v-39h-234l148 195q36 46 47 66.5t11 40.5q0 27 -21 44t-55 17q-37 0 -53.5 -18t-17.5 -59h-41q6 114 115 114q50 0 82 -27t32 -70q0 -44 -46 -103zM636 646l-467 -659l-29 21l467 659zM549 353v-104q29 10 60 10q59 0 97 -37t38 -94q0 -58 -40.5 -96
t-102.5 -38q-92 0 -127 82l40 14q17 -33 36 -45.5t51 -12.5q43 0 71.5 28t28.5 69t-28 66.5t-72 25.5q-28 0 -47.5 -9.5t-45.5 -35.5v216h170v-39h-129z" />
    <glyph glyph-name="threefifth" horiz-adv-x="776" 
d="M207 614h-153v39h238l-125 -146q53 0 89 -35t36 -87q0 -56 -40 -93t-101 -37q-49 0 -82 23.5t-47 67.5l38 12q24 -65 89 -65q42 0 71 26t29 63q0 38 -28.5 62t-74.5 24q-26 0 -57 -16l-11 13zM636 646l-467 -659l-29 21l466 659zM548 353v-104q29 10 61 10q59 0 97 -37
t38 -94q0 -59 -40.5 -96.5t-103.5 -37.5q-92 0 -127 82l40 14q17 -33 36.5 -45.5t51.5 -12.5q42 0 71 28t29 69t-28 66.5t-73 25.5q-28 0 -47.5 -9.5t-45.5 -35.5v216h171v-39h-130z" />
    <glyph glyph-name="fourfifth" horiz-adv-x="776" 
d="M201 354h-172v28l213 295v-284h54v-39h-54v-93h-41v93zM201 393v168l-122 -168h122zM635 646l-466 -659l-29 21l466 659zM548 353v-104q29 10 60 10q59 0 97 -37t38 -94q0 -58 -40.5 -96t-102.5 -38q-92 0 -127 82l40 14q17 -33 36 -45.5t51 -12.5q43 0 71.5 28t28.5 69
t-28 66.5t-72 25.5q-28 0 -47.5 -9.5t-45.5 -35.5v216h170v-39h-129z" />
    <glyph glyph-name="onesixth" horiz-adv-x="776" 
d="M173 594l-100 -68v41l141 98v-404h-41v333zM636 646l-466 -659l-30 21l467 659zM681 392l-104 -154q18 6 40 6q56 0 93.5 -35t37.5 -87q0 -53 -39.5 -91t-95.5 -38q-57 0 -96 38t-39 93q0 35 25 72l127 196h51zM614 208q-39 0 -66 -24.5t-27 -60.5q0 -38 27 -65t65 -27
t65 26t27 63t-26.5 62.5t-64.5 25.5z" />
    <glyph glyph-name="fivesixth" horiz-adv-x="776" 
d="M99 614v-104q30 10 61 10q59 0 97 -37t38 -94q0 -59 -40.5 -96.5t-103.5 -37.5q-94 0 -127 82l40 14q13 -24 23 -34q22 -24 65 -24q42 0 71 28t29 69t-28 66.5t-73 25.5q-28 0 -47.5 -9.5t-45.5 -35.5v216h171v-39h-130zM636 646l-467 -659l-29 21l466 659zM681 392
l-104 -154q17 6 39 6q56 0 93.5 -35t37.5 -87q0 -53 -39.5 -91t-95.5 -38q-57 0 -96 38t-39 93q0 33 25 72l128 196h51zM613 208q-39 0 -66 -24.5t-27 -60.5q0 -38 27 -65t65 -27t65 26t27 63t-26.5 62.5t-64.5 25.5z" />
    <glyph glyph-name="Dotaccent" 
d="M251 821q17 0 29 -12t12 -30q0 -17 -12 -29t-30 -12q-17 0 -29 12t-12 29q0 18 12 30t30 12z" />
    <glyph glyph-name="Ring" 
d="M251 857q31 0 52 -21.5t21 -53.5q0 -30 -21.5 -51t-51.5 -21q-31 0 -52.5 21t-21.5 53q0 31 21.5 52t52.5 21zM251 832q-21 0 -35 -13.5t-14 -34.5t14 -35t35 -14q20 0 34 14t14 34q0 21 -13.5 35t-34.5 14z" />
    <glyph glyph-name="Circumflex" 
d="M251 805l-73 -90h-55l106 132h46l103 -132h-53z" />
    <glyph glyph-name="Breve" 
d="M104 829h52q26 -55 94 -55t93 55h52q-11 -46 -49.5 -72.5t-95.5 -26.5q-58 0 -96.5 26.5t-49.5 72.5z" />
    <glyph glyph-name="Tilde" 
d="M369 824l40 -27q-50 -68 -94 -68q-25 0 -70 27q-31 18 -47 18q-33 0 -55 -47l-39 22q26 44 45 60t44 16q24 0 74 -28q35 -20 49 -20q31 0 53 47z" />
    <glyph glyph-name="Cedilla" 
d="M213 -207l-33 27q37 29 55.5 56t29.5 68l56 -21q-24 -74 -108 -130z" />
    <glyph glyph-name="Ogonek" 
d="M388 0h47q-39 -29 -54 -48.5t-15 -40.5q0 -23 16.5 -36.5t43.5 -13.5q18 0 39 7l10 -40q-27 -10 -53 -10q-44 0 -73.5 23t-29.5 58q0 59 69 101z" />
    <glyph glyph-name="commaaccent.sc" 
d="M272 -41v-73q0 -89 -59 -107v27q33 19 32 71h-20v82h47z" />
    <glyph glyph-name="Comma.high" horiz-adv-x="147" 
d="M105 658l-98 -201l-39 17l94 206z" />
    <glyph glyph-name="Dieresis.alt" 
d="M184 821q17 0 29 -12t12 -30q0 -17 -12 -29t-30 -12q-17 0 -29 12t-12 29q0 18 12 30t30 12zM317 821q17 0 29 -12t12 -30q0 -17 -12 -29t-29 -12q-18 0 -30 12t-12 29q0 18 12 30t30 12z" />
    <glyph glyph-name="comma.high" horiz-adv-x="147" 
d="M105 658l-98 -201l-39 17l94 206z" />
    <glyph glyph-name="dieresis.alt" 
d="M191 623q16 0 26 -10.5t10 -26.5t-10.5 -26t-25.5 -10q-16 0 -26.5 10t-10.5 26t10 26.5t27 10.5zM311 623q16 0 26 -10.5t10 -26.5t-10.5 -26t-25.5 -10q-16 0 -26.5 10t-10.5 26t10 26.5t27 10.5z" />
    <glyph glyph-name="zerozero.afrac" horiz-adv-x="273" 
d="M273 346v-29h-273v29h273zM223 584v-107q0 -87 -87 -87q-43 0 -67 24q-19 20 -19 70v90q0 46 17 66q21 26 69 26q40 0 65 -20q22 -19 22 -62zM79 573v-89q0 -27 2 -35.5t10 -16.5q18 -16 46 -16q57 0 57 61v106q0 57 -57 57q-31 0 -44.5 -16t-13.5 -51zM223 191v-108
q0 -87 -87 -87q-43 0 -67 24q-19 20 -19 70v90q0 46 17 67q21 26 69 26q41 0 65 -21q22 -19 22 -61zM79 179v-89q0 -27 2 -35.5t10 -16.5q18 -16 46 -16q57 0 57 61v107q0 27 -15 42t-42 15q-31 0 -44.5 -16t-13.5 -52z" />
    </font>
</defs>
</svg>
